# Exported from c010_idle00_puppet.mdl by laobamac MDL Parser
mtllib c010_idle00.mtl
v 148.833344 -410.000000 0.000000
v 136.500000 -396.000000 0.000000
v 136.500000 -419.000000 0.000000
v 156.500000 -398.333344 0.000000
v 153.500000 -450.000000 0.000000
v 164.500000 -450.000000 0.000000
v 160.166656 -444.333344 0.000000
v 173.500000 -444.000000 0.000000
v 142.500000 -439.000000 0.000000
v 153.500000 -446.333344 0.000000
v 173.500000 -415.000000 0.000000
v 150.833344 -424.333344 0.000000
v 163.166656 -432.666656 0.000000
v 136.166656 -360.666656 0.000000
v 134.166656 -346.333344 0.000000
v 129.500000 -358.000000 0.000000
v 149.500000 -350.000000 0.000000
v 129.500000 -374.000000 0.000000
v 146.166656 -369.333344 0.000000
v 141.833344 -384.666656 0.000000
v 135.333344 -307.277771 0.000000
v 139.333344 -325.833344 0.000000
v 145.000000 -296.500000 0.000000
v 128.166656 -318.777771 0.000000
v 82.833344 -22.666656 0.000000
v 108.277802 -29.333344 0.000000
v 104.611115 -12.222198 0.000000
v 96.500000 -39.666656 0.000000
v 123.500000 -331.000000 0.000000
v 182.166656 178.333313 0.000000
v 185.500000 180.000000 0.000000
v 178.000000 179.500000 0.000000
v 190.500000 176.000000 0.000000
v 110.000000 -301.000000 0.000000
v 92.222198 -216.500000 0.000000
v 104.166656 -238.000000 0.000000
v 115.166656 -214.000000 0.000000
v 86.000000 -235.500000 0.000000
v 96.500000 -271.000000 0.000000
v 115.166656 -280.222229 0.000000
v 168.500000 215.000000 0.000000
v 175.500000 195.000000 0.000000
v 187.500000 206.000000 0.000000
v 160.500000 206.000000 0.000000
v 95.555542 -248.166672 0.000000
v 97.917572 227.383545 0.000000
v 94.944458 257.666687 0.000000
v 82.166656 236.555603 0.000000
v 119.362000 236.827942 0.000000
v 75.500000 -200.000000 0.000000
v 175.500000 -24.666656 0.000000
v 164.500000 -7.777740 0.000000
v 155.500000 -21.666656 0.000000
v 181.500000 -8.000000 0.000000
v 67.500000 -183.000000 0.000000
v 72.611115 -180.666656 0.000000
v 79.166656 -163.111115 0.000000
v 82.833344 -176.000000 0.000000
v 59.500000 -166.000000 0.000000
v 194.833344 87.666687 0.000000
v 184.500000 78.000000 0.000000
v 197.500000 87.000000 0.000000
v 177.833344 89.333313 0.000000
v 54.000000 -146.000000 0.000000
v 60.500000 -142.444458 0.000000
v -30.944443 334.777771 0.000000
v 0.166672 332.333313 0.000000
v -6.833328 356.666687 0.000000
v -18.166672 319.666687 0.000000
v 48.500000 -126.000000 0.000000
v 90.500000 404.000000 0.000000
v 70.166656 407.333313 0.000000
v 84.500000 394.333313 0.000000
v 80.500000 418.000000 0.000000
v 40.750000 -108.000000 0.000000
v 47.333344 -100.333344 0.000000
v 22.388901 354.888916 0.000000
v 30.277786 330.333313 0.000000
v 33.000000 -90.000000 0.000000
v 79.055542 387.555481 0.000000
v 88.500000 381.333313 0.000000
v 82.500000 361.000000 0.000000
v 25.250000 -72.000000 0.000000
v 37.000000 -76.333344 0.000000
v 17.500000 -54.000000 0.000000
v 54.055542 -62.666656 0.000000
v -111.722229 310.111084 0.000000
v -92.611115 326.666687 0.000000
v -111.833336 324.000000 0.000000
v -79.500000 301.000000 0.000000
v 15.750000 -71.750000 0.000000
v 0.555557 -75.833344 0.000000
v -24.166672 -130.000000 0.000000
v -38.500000 -145.000000 0.000000
v -22.166672 -144.463287 0.000000
v -44.500000 -120.000000 0.000000
v 14.000000 -89.500000 0.000000
v -5.722229 -145.253296 0.000000
v -22.055557 -158.049927 0.000000
v -5.500000 -166.296631 0.000000
v 12.250000 -107.250000 0.000000
v 6.333328 -104.722198 0.000000
v -38.500000 -163.389893 0.000000
v 10.500000 -125.000000 0.000000
v 11.000000 -167.750000 0.000000
v 0.377625 -190.357147 0.000000
v 5.333328 -153.015533 0.000000
v 10.750000 -146.375000 0.000000
v -25.166672 -250.277771 0.000000
v -16.000000 -240.333328 0.000000
v -25.444443 -224.826370 0.000000
v -12.000000 -262.833313 0.000000
v 11.500000 -210.500000 0.000000
v 3.166672 -348.333344 0.000000
v 8.833328 -327.000000 0.000000
v -3.500000 -343.000000 0.000000
v 17.500000 -342.000000 0.000000
v 12.000000 -253.250000 0.000000
v 2.500000 -234.694443 0.000000
v 6.166672 -364.000000 0.000000
v -4.500000 -360.000000 0.000000
v 12.166672 -353.333344 0.000000
v 12.500000 -296.000000 0.000000
v 1.000000 -263.666687 0.000000
v 8.500000 -394.333344 0.000000
v 28.500000 -396.000000 0.000000
v 17.166672 -376.000000 0.000000
v 20.166672 -407.000000 0.000000
v 23.500000 -358.000000 0.000000
v 15.500000 -439.666656 0.000000
v 22.833328 -429.333344 0.000000
v 11.833328 -420.333344 0.000000
v 22.833328 -442.000000 0.000000
v 3.500000 -436.000000 0.000000
v 12.500000 -443.000000 0.000000
v 34.500000 -412.000000 0.000000
v 30.500000 -440.000000 0.000000
v 25.500000 -443.000000 0.000000
v -0.500000 -374.000000 0.000000
v -2.500000 -413.000000 0.000000
v -12.250000 -313.750000 0.000000
v -4.000000 -307.833313 0.000000
v -9.500000 -311.777771 0.000000
v -4.166672 -296.111084 0.000000
v -2.500000 -281.388916 0.000000
v -8.777771 -219.659714 0.000000
v -21.833328 -208.145828 0.000000
v -21.367142 -192.821472 0.000000
v -32.944443 -207.361130 0.000000
v -38.500000 -187.937531 0.000000
v -21.000000 -284.500000 0.000000
v -21.367142 -184.638916 0.000000
v -37.101440 -180.026886 0.000000
v -38.500000 -226.000000 0.000000
v -11.944458 -133.154419 0.000000
v -6.388901 -118.222198 0.000000
v -5.500000 -99.666656 0.000000
v -24.722229 -116.555542 0.000000
v -26.611099 -101.222198 0.000000
v -7.111099 -91.055542 0.000000
v -45.611099 -94.000000 0.000000
v -45.055542 -70.666656 0.000000
v -62.500000 -78.000000 0.000000
v -29.833328 -84.000000 0.000000
v -18.388870 -62.666656 0.000000
v -53.500000 -99.000000 0.000000
v -63.666656 -56.888885 0.000000
v -42.833328 -50.000000 0.000000
v -193.500000 -109.000000 0.000000
v -185.833328 -99.666656 0.000000
v -196.833328 -85.333344 0.000000
v -173.055557 -108.888885 0.000000
v -110.500000 -162.000000 0.000000
v -103.166664 -142.000000 0.000000
v -109.166664 -139.333344 0.000000
v -102.166664 -163.666656 0.000000
v -68.500000 -93.000000 0.000000
v -76.277786 -87.777802 0.000000
v -118.166664 -159.666656 0.000000
v -74.500000 -108.000000 0.000000
v -90.500000 -144.666656 0.000000
v -80.500000 -136.000000 0.000000
v -88.055550 -127.777802 0.000000
v -95.833336 -166.666656 0.000000
v -86.500000 -164.000000 0.000000
v -109.500000 -165.000000 0.000000
v -91.500000 -171.000000 0.000000
v -124.500000 -156.000000 0.000000
v -119.500000 -161.000000 0.000000
v -114.500000 -136.666656 0.000000
v -128.500000 -154.000000 0.000000
v -126.500000 -158.000000 0.000000
v -119.833336 -134.000000 0.000000
v -134.500000 -152.000000 0.000000
v -131.500000 -156.000000 0.000000
v -140.500000 -148.000000 0.000000
v -139.500000 -153.000000 0.000000
v -142.611115 -126.333344 0.000000
v -155.833328 -139.000000 0.000000
v -149.500000 -145.000000 0.000000
v -159.500000 -139.000000 0.000000
v -100.944435 -115.777802 0.000000
v -95.166664 -95.111115 0.000000
v -143.500000 -151.000000 0.000000
v -144.500000 -146.000000 0.000000
v -148.500000 -149.000000 0.000000
v -164.166672 -134.666656 0.000000
v -169.500000 -133.000000 0.000000
v -173.500000 -126.000000 0.000000
v -119.166664 -100.000000 0.000000
v -146.277771 -94.888885 0.000000
v -130.388885 -113.333344 0.000000
v -141.722229 -74.888885 0.000000
v -152.166672 -106.000000 0.000000
v -199.166672 -67.000000 0.000000
v -206.500000 -73.000000 0.000000
v -201.166672 -73.333344 0.000000
v -200.500000 -64.000000 0.000000
v -206.500000 -83.000000 0.000000
v -176.500000 -128.000000 0.000000
v -181.166672 -121.000000 0.000000
v -184.944443 -76.000000 0.000000
v -183.388885 -87.888885 0.000000
v -190.500000 -64.000000 0.000000
v -120.555550 -66.000000 0.000000
v -117.833336 -43.333344 0.000000
v -138.500000 -46.000000 0.000000
v -104.000000 -52.000000 0.000000
v -164.500000 -55.000000 0.000000
v -165.500000 -62.888885 0.000000
v -80.000000 -66.000000 0.000000
v -91.833336 -77.333344 0.000000
v -93.388885 -30.888885 0.000000
v -111.000000 -32.000000 0.000000
v -85.666664 -42.666656 0.000000
v -124.750000 -39.000000 0.000000
v -93.833336 -57.333344 0.000000
v -105.000000 -76.444458 0.000000
v -97.250000 -25.000000 0.000000
v -83.500000 -18.000000 0.000000
v -72.888885 -29.777740 0.000000
v -82.500000 -14.000000 0.000000
v -61.362000 -11.710907 0.000000
v -19.171997 37.285980 0.000000
v 0.898010 64.391968 0.000000
v -10.887772 71.450256 0.000000
v 1.383987 21.279999 0.000000
v -49.500000 -28.666656 0.000000
v -40.090668 -8.986237 0.000000
v -37.006454 -28.164215 0.000000
v -87.500000 -9.000000 0.000000
v -70.473099 10.622437 0.000000
v -140.166656 92.666687 0.000000
v -126.500000 99.000000 0.000000
v -134.500000 100.000000 0.000000
v -118.277779 80.777771 0.000000
v -96.000000 -12.500000 0.000000
v -90.944435 8.444458 0.000000
v -132.833344 10.666656 0.000000
v -145.500000 20.000000 0.000000
v -152.500000 4.000000 0.000000
v -139.500000 26.000000 0.000000
v -100.250000 -14.250000 0.000000
v -101.833336 -13.000000 0.000000
v -104.500000 -16.000000 0.000000
v -113.500000 -14.000000 0.000000
v -159.500000 1.000000 0.000000
v -152.500000 -9.000000 0.000000
v -154.833328 12.666656 0.000000
v -130.500000 -19.000000 0.000000
v -129.833344 -4.333344 0.000000
v -142.833344 -2.666656 0.000000
v -163.000000 35.500000 0.000000
v -147.500000 40.000000 0.000000
v -161.833328 51.333344 0.000000
v -159.500000 17.000000 0.000000
v -113.500000 1.000000 0.000000
v -137.833344 55.000000 0.000000
v -163.944443 63.444458 0.000000
v -117.833336 38.666656 0.000000
v -141.833344 72.333313 0.000000
v -151.500000 78.000000 0.000000
v -178.500000 61.000000 0.000000
v -198.833328 62.000000 0.000000
v -194.166672 52.000000 0.000000
v -197.500000 69.000000 0.000000
v -170.750000 33.250000 0.000000
v -170.833328 35.666656 0.000000
v -186.500000 36.000000 0.000000
v -198.500000 51.000000 0.000000
v -178.500000 31.000000 0.000000
v -200.500000 66.000000 0.000000
v -174.500000 73.500000 0.000000
v -175.833328 69.333313 0.000000
v -122.055565 66.111084 0.000000
v -142.500000 101.000000 0.000000
v -54.549103 31.386444 0.000000
v -52.085999 7.533997 0.000000
v -71.833328 33.333344 0.000000
v 152.500000 64.000000 0.000000
v 138.166656 60.000000 0.000000
v 156.166656 44.777802 0.000000
v 136.500000 66.000000 0.000000
v -70.611099 282.333313 0.000000
v -61.500000 303.000000 0.000000
v -69.500000 299.000000 0.000000
v -46.698441 271.827576 0.000000
v -127.500000 103.000000 0.000000
v -99.833336 108.333313 0.000000
v -157.722229 297.333313 0.000000
v -182.500000 299.000000 0.000000
v -176.166656 284.444397 0.000000
v -176.500000 308.333313 0.000000
v -134.000000 104.500000 0.000000
v -134.166656 107.333313 0.000000
v -140.500000 106.000000 0.000000
v -138.833344 112.000000 0.000000
v -146.500000 112.000000 0.000000
v -144.833344 113.666687 0.000000
v -152.500000 118.000000 0.000000
v -152.833328 127.000000 0.000000
v -143.833344 119.333313 0.000000
v -168.500000 140.000000 0.000000
v -133.166656 113.000000 0.000000
v -134.500000 113.000000 0.000000
v -169.500000 154.000000 0.000000
v -158.500000 139.000000 0.000000
v -178.500000 218.777771 0.000000
v -196.500000 235.000000 0.000000
v -205.166672 219.000000 0.000000
v -179.277771 241.777771 0.000000
v -189.500000 161.000000 0.000000
v -188.166672 166.666687 0.000000
v -205.500000 185.000000 0.000000
v -190.500000 191.333313 0.000000
v -209.500000 198.000000 0.000000
v -203.833328 206.000000 0.000000
v -209.500000 224.000000 0.000000
v -191.166672 290.666687 0.000000
v -197.500000 282.000000 0.000000
v -193.166672 276.000000 0.000000
v -193.500000 291.000000 0.000000
v -179.611115 271.555481 0.000000
v -192.833328 260.333313 0.000000
v -199.500000 247.000000 0.000000
v -169.500000 316.000000 0.000000
v -177.500000 310.000000 0.000000
v -145.500000 330.888855 0.000000
v -143.833344 305.333313 0.000000
v -129.388885 325.222168 0.000000
v -157.833328 320.777771 0.000000
v -107.500000 364.000000 0.000000
v -101.944450 347.666687 0.000000
v -94.500000 369.000000 0.000000
v -117.277779 344.777771 0.000000
v -141.500000 368.000000 0.000000
v -154.833328 357.666687 0.000000
v -132.500000 346.333313 0.000000
v -153.500000 366.000000 0.000000
v -162.166672 354.666687 0.000000
v -169.500000 339.000000 0.000000
v -160.166672 341.000000 0.000000
v -163.500000 359.000000 0.000000
v -125.166664 376.000000 0.000000
v -115.166664 372.000000 0.000000
v -132.500000 378.000000 0.000000
v -124.500000 381.000000 0.000000
v -132.833344 375.666687 0.000000
v -86.500000 355.000000 0.000000
v -109.500000 379.000000 0.000000
v -148.500000 230.000000 0.000000
v -153.220001 201.693787 0.000000
v -119.920006 215.531311 0.000000
v -83.000000 328.000000 0.000000
v -152.833328 278.333313 0.000000
v -130.644440 247.059753 0.000000
v -122.737534 273.267090 0.000000
v -164.722229 256.222168 0.000000
v 30.675995 261.476013 0.000000
v 57.558685 289.158691 0.000000
v 24.003098 293.380920 0.000000
v 61.336456 262.158691 0.000000
v -98.244202 280.837769 0.000000
v -104.466667 167.495789 0.000000
v -96.166664 198.666687 0.000000
v -120.659996 183.747986 0.000000
v -77.239990 179.406006 0.000000
v -43.500000 351.000000 0.000000
v 53.166656 417.333313 0.000000
v 47.500000 443.000000 0.000000
v 25.500000 426.888855 0.000000
v 60.388885 426.111084 0.000000
v 92.500000 379.000000 0.000000
v 92.166656 392.000000 0.000000
v -49.500000 321.000000 0.000000
v -38.722229 309.888916 0.000000
v 93.500000 393.000000 0.000000
v -40.388870 383.777771 0.000000
v -53.500000 374.666687 0.000000
v -16.833328 382.000000 0.000000
v 23.277771 406.444397 0.000000
v 48.722198 403.777771 0.000000
v -58.500000 375.000000 0.000000
v -58.500000 398.000000 0.000000
v -47.833328 392.000000 0.000000
v -41.500000 427.000000 0.000000
v -43.277771 411.111084 0.000000
v 6.277771 436.777771 0.000000
v 29.500000 448.000000 0.000000
v -4.500000 447.000000 0.000000
v -17.388901 429.777771 0.000000
v 135.498016 170.268005 0.000000
v 127.454010 197.752625 0.000000
v 116.776001 182.773987 0.000000
v 149.258667 189.257996 0.000000
v 115.500000 282.000000 0.000000
v 124.833344 266.666687 0.000000
v 139.166656 270.666687 0.000000
v 109.500000 279.000000 0.000000
v 156.833344 265.000000 0.000000
v 168.500000 265.000000 0.000000
v 160.500000 274.000000 0.000000
v 161.500000 255.666687 0.000000
v 151.500000 257.333313 0.000000
v 141.500000 256.000000 0.000000
v 93.500000 325.000000 0.000000
v 73.388885 343.888916 0.000000
v -29.476242 291.160950 0.000000
v 78.500000 310.333313 0.000000
v 46.500000 313.000000 0.000000
v 61.388885 327.888916 0.000000
v 185.166656 225.666687 0.000000
v 187.500000 247.000000 0.000000
v 199.500000 239.000000 0.000000
v 191.500000 251.000000 0.000000
v 189.166656 236.666687 0.000000
v 95.500000 293.000000 0.000000
v 196.500000 220.000000 0.000000
v 184.833344 167.333313 0.000000
v 175.166656 161.888855 0.000000
v 171.500000 251.000000 0.000000
v 165.500000 -39.000000 0.000000
v 179.500000 -27.000000 0.000000
v 125.166656 -64.333344 0.000000
v 132.500000 -49.000000 0.000000
v 122.500000 -47.333344 0.000000
v 127.500000 -69.000000 0.000000
v 170.500000 179.000000 0.000000
v 181.833344 120.333313 0.000000
v 181.833344 135.555481 0.000000
v 170.166656 139.333313 0.000000
v 193.611115 129.777771 0.000000
v 42.248901 105.666016 0.000000
v 70.500000 87.333313 0.000000
v 77.260651 113.434387 0.000000
v 43.944458 84.222229 0.000000
v 161.833344 83.333313 0.000000
v 162.500000 73.000000 0.000000
v 167.166656 77.000000 0.000000
v 155.833344 76.333313 0.000000
v 139.166656 -35.333344 0.000000
v 106.166656 -187.000000 0.000000
v 88.166656 -187.666656 0.000000
v 98.944427 -200.333328 0.000000
v 100.833344 -175.000000 0.000000
v 193.500000 147.000000 0.000000
v 205.500000 122.000000 0.000000
v 202.500000 98.000000 0.000000
v 184.833344 104.000000 0.000000
v 169.500000 30.000000 0.000000
v 161.000000 47.000000 0.000000
v 150.833344 25.666656 0.000000
v 154.500000 80.000000 0.000000
v 150.500000 76.000000 0.000000
v 6.918015 -18.183990 0.000000
v 21.940002 5.273987 0.000000
v -18.686005 -5.825989 0.000000
v 156.500000 74.500000 0.000000
v 111.201996 119.971985 0.000000
v 133.528900 136.111755 0.000000
v 119.217987 149.030029 0.000000
v 142.622894 117.101746 0.000000
v 89.833344 184.666687 0.000000
v 105.085999 204.484009 0.000000
v 94.543976 166.181946 0.000000
v 153.294891 155.787781 0.000000
v 135.166656 18.000000 0.000000
v 156.500000 6.333344 0.000000
v 141.166656 -6.333344 0.000000
v 86.722198 -69.666656 0.000000
v 84.166656 -49.000000 0.000000
v 60.500000 -85.000000 0.000000
v 109.333344 -259.722229 0.000000
v 124.000000 -250.388901 0.000000
v 165.500000 20.000000 0.000000
v 71.388885 -122.111115 0.000000
v 73.500000 -135.333344 0.000000
v 113.888885 -300.500000 0.000000
v 106.722198 -98.000000 0.000000
v 112.500000 -114.000000 0.000000
v 114.000000 -94.500000 0.000000
v 92.166656 -105.000000 0.000000
v 67.055542 -105.333344 0.000000
v 121.833344 -73.000000 0.000000
v 122.500000 -75.000000 0.000000
v 107.388885 -57.111115 0.000000
v 115.500000 -75.000000 0.000000
v 89.388885 -88.333344 0.000000
v 76.055542 -149.555573 0.000000
v 95.166656 -147.333344 0.000000
v 86.944427 -129.222260 0.000000
v 116.944427 -200.000000 0.000000
v 113.500000 -162.000000 0.000000
v 107.055542 -141.111115 0.000000
v 128.388885 -218.666672 0.000000
v 129.500000 -199.000000 0.000000
v 119.944427 -231.666672 0.000000
v 116.388885 -182.666656 0.000000
v 137.611115 -269.888916 0.000000
v 131.333344 -288.722229 0.000000
v 127.333344 -270.166687 0.000000
v 140.500000 -243.000000 0.000000
v 159.500000 -384.000000 0.000000
v 121.666656 -299.500000 0.000000
v 167.166656 233.666687 0.000000
v 22.833328 386.666687 0.000000
v -4.388901 403.444397 0.000000
v 44.166672 345.666687 0.000000
v 49.833344 364.444519 0.000000
v -5.166672 305.666687 0.000000
v 1.249100 277.319580 0.000000
v 13.833328 317.000000 0.000000
v 146.500000 40.333344 0.000000
v 127.055542 -33.555573 0.000000
v 97.166656 -161.777802 0.000000
v 58.499969 385.000000 0.000000
v 99.944427 -122.111115 0.000000
v 6.166672 96.666687 0.000000
v -26.353775 90.986267 0.000000
v 87.611115 268.000000 0.000000
v -149.553329 158.916016 0.000000
v -160.220001 176.360413 0.000000
v 24.698441 234.728027 0.000000
v 57.833344 232.000000 0.000000
v 49.611115 206.555603 0.000000
v -77.644455 260.281982 0.000000
v -1.833328 245.666687 0.000000
v -21.761993 264.816040 0.000000
v -31.003113 241.063538 0.000000
v -125.388893 294.888855 0.000000
v -10.566818 -203.822433 0.000000
v -21.789047 -171.441803 0.000000
v -59.333328 -40.444427 0.000000
v -14.673096 -36.608643 0.000000
v -167.500000 -78.666656 0.000000
v -168.500000 -94.777740 0.000000
v -114.055565 54.888885 0.000000
v -86.500000 71.000000 0.000000
v -92.055565 47.666656 0.000000
v -103.500000 116.333313 0.000000
v -36.833328 18.333344 0.000000
v -39.727997 53.291992 0.000000
v -57.242661 82.430664 0.000000
v -66.020447 52.541779 0.000000
v -101.055565 24.333344 0.000000
v -121.388893 16.777740 0.000000
v -104.277779 92.777771 0.000000
v 25.360001 133.888245 0.000000
v 50.080017 132.997986 0.000000
v 119.833344 57.000000 0.000000
v 135.166656 71.333313 0.000000
v 24.166672 35.000000 0.000000
v 49.367340 11.980469 0.000000
v 61.500000 -41.888885 0.000000
v 60.424438 -7.353119 0.000000
v 40.757767 -23.797577 0.000000
v 133.277740 -19.888916 0.000000
v 49.661987 35.334015 0.000000
v 35.242233 56.130859 0.000000
v 55.166656 68.666687 0.000000
v 127.166656 43.666656 0.000000
v -86.833344 102.777771 0.000000
v -68.722229 107.666687 0.000000
v -39.500000 141.000000 0.000000
v -43.718002 177.038025 0.000000
v -63.635559 149.802002 0.000000
v -18.722229 148.000000 0.000000
v -97.722229 128.222168 0.000000
v -117.388885 122.888855 0.000000
v -141.500000 117.000000 0.000000
v -137.500000 123.000000 0.000000
v -137.166656 133.777771 0.000000
v -74.166672 129.000000 0.000000
v -49.495773 212.593567 0.000000
v -62.833328 247.000000 0.000000
v -76.891098 219.750671 0.000000
v -56.833328 247.666687 0.000000
v -90.599998 232.846008 0.000000
v -131.553345 154.027100 0.000000
v -88.968895 149.246399 0.000000
v -115.500000 139.333313 0.000000
v -14.414001 210.708008 0.000000
v -6.166672 415.333313 0.000000
v -25.833328 416.888855 0.000000
v -29.833328 408.333313 0.000000
v 71.166656 215.666687 0.000000
v 152.833344 248.666687 0.000000
v 117.500000 262.000000 0.000000
v 47.638000 166.742004 0.000000
v 72.311981 149.590027 0.000000
v 74.630219 195.630920 0.000000
v 146.500000 92.000000 0.000000
v 171.055573 105.444397 0.000000
v 100.511780 88.101746 0.000000
v 93.500000 134.000000 0.000000
v 39.183777 157.246643 0.000000
v 20.743774 76.575134 0.000000
v 130.956207 94.435120 0.000000
v 122.067352 82.768372 0.000000
v 147.500000 82.000000 0.000000
v 21.084229 204.902649 0.000000
v 46.212677 184.802917 0.000000
v 19.833328 172.000000 0.000000
v 130.584229 225.383545 0.000000
v 151.166656 227.666687 0.000000
v 142.500000 244.000000 0.000000
v 138.917572 212.716858 0.000000
v 144.500000 251.000000 0.000000
v 129.500000 259.000000 0.000000
v 182.833344 151.222168 0.000000
v 166.166656 117.222168 0.000000
v 111.500000 40.000000 0.000000
v 101.500000 39.000000 0.000000
v 106.500000 37.000000 0.000000
v 97.277802 61.111084 0.000000
v 122.500000 7.000000 0.000000
v 127.722198 -5.777802 0.000000
v 121.000000 -5.500000 0.000000
v -11.360229 174.569336 0.000000
v -3.500000 133.222229 0.000000
v -25.277771 116.888916 0.000000
v -45.500000 123.000000 0.000000
v 68.776215 47.666901 0.000000
v 100.500000 36.000000 0.000000
v 75.553986 22.222443 0.000000
v 75.722198 65.000000 0.000000
v 117.500000 27.000000 0.000000
v 76.500000 -4.666656 0.000000
v 90.277802 -7.777740 0.000000
v 98.388885 6.555573 0.000000
v -101.951599 258.074341 0.000000
v 107.166656 20.333344 0.000000
v 111.500000 4.000000 0.000000
v 105.000000 28.500000 0.000000
v 119.500000 -18.000000 0.000000
v -53.055557 131.000000 0.000000
v 135.500000 244.000000 0.000000
v 126.500000 253.000000 0.000000
v 109.500000 21.000000 0.000000
v -36.500000 131.000000 0.000000
v -42.500000 132.000000 0.000000
v 115.500000 -7.000000 0.000000
vt 0.855211 0.955556
vt 0.825776 0.940000
vt 0.825776 0.965556
vt 0.873508 0.942593
vt 0.866348 1.000000
vt 0.892601 1.000000
vt 0.882259 0.993704
vt 0.914081 0.993333
vt 0.840095 0.987778
vt 0.866348 0.995926
vt 0.914081 0.961111
vt 0.859984 0.971482
vt 0.889419 0.980741
vt 0.824980 0.900741
vt 0.820207 0.884815
vt 0.809069 0.897778
vt 0.856802 0.888889
vt 0.809069 0.915556
vt 0.848846 0.910370
vt 0.838504 0.927407
vt 0.822991 0.841420
vt 0.832538 0.862037
vt 0.846062 0.829444
vt 0.805887 0.854198
vt 0.697693 0.525185
vt 0.758420 0.532593
vt 0.749669 0.513580
vt 0.730310 0.544074
vt 0.794749 0.867778
vt 0.934765 0.301852
vt 0.942721 0.300000
vt 0.924821 0.300556
vt 0.954654 0.304444
vt 0.762530 0.834444
vt 0.720101 0.740556
vt 0.748608 0.764444
vt 0.774861 0.737778
vt 0.705251 0.761667
vt 0.730310 0.801111
vt 0.774861 0.811358
vt 0.902148 0.261111
vt 0.918854 0.283333
vt 0.947494 0.271111
vt 0.883055 0.271111
vt 0.728056 0.775741
vt 0.733693 0.247352
vt 0.726598 0.213704
vt 0.696102 0.237160
vt 0.784873 0.236858
vt 0.680191 0.722222
vt 0.918854 0.527407
vt 0.892601 0.508642
vt 0.871122 0.524074
vt 0.933174 0.508889
vt 0.661098 0.703333
vt 0.673296 0.700741
vt 0.688942 0.681235
vt 0.697693 0.695556
vt 0.642005 0.684444
vt 0.964996 0.402593
vt 0.940334 0.413333
vt 0.971360 0.403333
vt 0.924423 0.400741
vt 0.628878 0.662222
vt 0.644391 0.658272
vt 0.426147 0.128025
vt 0.500398 0.130741
vt 0.483691 0.103704
vt 0.456643 0.144815
vt 0.615752 0.640000
vt 0.715990 0.051111
vt 0.667462 0.047407
vt 0.701671 0.061852
vt 0.692124 0.035556
vt 0.597255 0.620000
vt 0.612967 0.611481
vt 0.553434 0.105679
vt 0.572262 0.132963
vt 0.578759 0.600000
vt 0.688677 0.069383
vt 0.711217 0.076296
vt 0.696897 0.098889
vt 0.560263 0.580000
vt 0.588305 0.584815
vt 0.541766 0.560000
vt 0.629011 0.569630
vt 0.233360 0.155432
vt 0.278971 0.137037
vt 0.233095 0.140000
vt 0.310263 0.165556
vt 0.537589 0.579722
vt 0.501326 0.584259
vt 0.442323 0.644444
vt 0.408115 0.661111
vt 0.447096 0.660515
vt 0.393795 0.633333
vt 0.533413 0.599444
vt 0.486343 0.661393
vt 0.447361 0.675611
vt 0.486874 0.684774
vt 0.529236 0.619167
vt 0.515115 0.616358
vt 0.408115 0.681544
vt 0.525060 0.638889
vt 0.526253 0.686389
vt 0.500901 0.711508
vt 0.512729 0.670017
vt 0.525656 0.662639
vt 0.439936 0.778086
vt 0.461814 0.767037
vt 0.439273 0.749807
vt 0.471360 0.792037
vt 0.527446 0.733889
vt 0.507558 0.887037
vt 0.521082 0.863333
vt 0.491647 0.881111
vt 0.541766 0.880000
vt 0.528640 0.781389
vt 0.505967 0.760772
vt 0.514718 0.904444
vt 0.489260 0.900000
vt 0.529037 0.892593
vt 0.529833 0.828889
vt 0.502387 0.792963
vt 0.520286 0.938148
vt 0.568019 0.940000
vt 0.540971 0.917778
vt 0.548130 0.952222
vt 0.556086 0.897778
vt 0.536993 0.988519
vt 0.554495 0.977037
vt 0.528242 0.967037
vt 0.554495 0.991111
vt 0.508353 0.984444
vt 0.529833 0.992222
vt 0.582339 0.957778
vt 0.572792 0.988889
vt 0.560859 0.992222
vt 0.498807 0.915556
vt 0.494033 0.958889
vt 0.470764 0.848611
vt 0.490453 0.842037
vt 0.477327 0.846420
vt 0.490056 0.829012
vt 0.494033 0.812654
vt 0.479051 0.744066
vt 0.447892 0.731273
vt 0.449004 0.714246
vt 0.421374 0.730401
vt 0.408115 0.708820
vt 0.449881 0.816111
vt 0.449004 0.705154
vt 0.411452 0.700030
vt 0.408115 0.751111
vt 0.471493 0.647949
vt 0.484752 0.631358
vt 0.486874 0.610741
vt 0.440997 0.629506
vt 0.436489 0.612469
vt 0.483028 0.601173
vt 0.391143 0.604444
vt 0.392469 0.578519
vt 0.350835 0.586667
vt 0.428799 0.593333
vt 0.456112 0.569630
vt 0.372315 0.610000
vt 0.348051 0.563210
vt 0.397772 0.555556
vt 0.038186 0.621111
vt 0.056484 0.610741
vt 0.030231 0.594815
vt 0.086980 0.620988
vt 0.236277 0.680000
vt 0.253779 0.657778
vt 0.239459 0.654815
vt 0.256165 0.681852
vt 0.336516 0.603333
vt 0.317953 0.597531
vt 0.217979 0.677407
vt 0.322196 0.620000
vt 0.284010 0.660741
vt 0.307876 0.651111
vt 0.289844 0.641975
vt 0.271281 0.685185
vt 0.293556 0.682222
vt 0.238663 0.683333
vt 0.281623 0.690000
vt 0.202864 0.673333
vt 0.214797 0.678889
vt 0.226730 0.651852
vt 0.193317 0.671111
vt 0.198091 0.675556
vt 0.214002 0.648889
vt 0.178998 0.668889
vt 0.186158 0.673333
vt 0.164678 0.664444
vt 0.167064 0.670000
vt 0.159639 0.640370
vt 0.128083 0.654444
vt 0.143198 0.661111
vt 0.119332 0.654444
vt 0.259082 0.628642
vt 0.272872 0.605679
vt 0.157518 0.667778
vt 0.155131 0.662222
vt 0.145585 0.665556
vt 0.108194 0.649630
vt 0.095465 0.647778
vt 0.085919 0.640000
vt 0.215593 0.611111
vt 0.150888 0.605432
vt 0.188809 0.625926
vt 0.161761 0.583210
vt 0.136834 0.617778
vt 0.024662 0.574444
vt 0.007160 0.581111
vt 0.019889 0.581481
vt 0.021480 0.571111
vt 0.007160 0.592222
vt 0.078759 0.642222
vt 0.067621 0.634444
vt 0.058605 0.584444
vt 0.062318 0.597654
vt 0.045346 0.571111
vt 0.212278 0.573333
vt 0.218775 0.548148
vt 0.169451 0.551111
vt 0.251790 0.557778
vt 0.107399 0.561111
vt 0.105012 0.569877
vt 0.309069 0.573333
vt 0.280827 0.585926
vt 0.277115 0.534321
vt 0.235084 0.535556
vt 0.295545 0.547407
vt 0.202267 0.543333
vt 0.276054 0.563704
vt 0.249403 0.584938
vt 0.267900 0.527778
vt 0.300716 0.520000
vt 0.326041 0.533086
vt 0.303103 0.515556
vt 0.353551 0.513012
vt 0.454243 0.458571
vt 0.502143 0.428453
vt 0.474015 0.420611
vt 0.503303 0.476356
vt 0.381862 0.531852
vt 0.404318 0.509985
vt 0.411679 0.531294
vt 0.291169 0.510000
vt 0.331806 0.488197
vt 0.165473 0.397037
vt 0.198091 0.390000
vt 0.178998 0.388889
vt 0.217714 0.410247
vt 0.270883 0.513889
vt 0.282949 0.490617
vt 0.182975 0.488148
vt 0.152745 0.477778
vt 0.136038 0.495556
vt 0.167064 0.471111
vt 0.260740 0.515833
vt 0.256961 0.514444
vt 0.250597 0.517778
vt 0.229117 0.515556
vt 0.119332 0.498889
vt 0.136038 0.510000
vt 0.130469 0.485926
vt 0.188544 0.521111
vt 0.190135 0.504815
vt 0.159109 0.502963
vt 0.110979 0.460556
vt 0.147971 0.455556
vt 0.113763 0.442963
vt 0.119332 0.481111
vt 0.229117 0.498889
vt 0.171042 0.438889
vt 0.108724 0.429506
vt 0.218775 0.457037
vt 0.161496 0.419630
vt 0.138425 0.413333
vt 0.073986 0.432222
vt 0.025457 0.431111
vt 0.036595 0.442222
vt 0.028640 0.423333
vt 0.092482 0.463056
vt 0.092283 0.460370
vt 0.054893 0.460000
vt 0.026253 0.443333
vt 0.073986 0.465556
vt 0.021480 0.426667
vt 0.083532 0.418333
vt 0.080350 0.422963
vt 0.208698 0.426543
vt 0.159905 0.387778
vt 0.369811 0.465126
vt 0.375690 0.491629
vt 0.328560 0.462963
vt 0.863962 0.428889
vt 0.829753 0.433333
vt 0.872713 0.450247
vt 0.825776 0.426667
vt 0.331477 0.186296
vt 0.353222 0.163333
vt 0.334129 0.167778
vt 0.388548 0.197969
vt 0.195704 0.385556
vt 0.261734 0.379630
vt 0.123575 0.169630
vt 0.064439 0.167778
vt 0.079554 0.183951
vt 0.078759 0.157407
vt 0.180191 0.383889
vt 0.179793 0.380741
vt 0.164678 0.382222
vt 0.168656 0.375556
vt 0.150358 0.375556
vt 0.154336 0.373704
vt 0.136038 0.368889
vt 0.135243 0.358889
vt 0.156722 0.367407
vt 0.097852 0.344444
vt 0.182180 0.374444
vt 0.178998 0.374444
vt 0.095465 0.328889
vt 0.121718 0.345556
vt 0.073986 0.256914
vt 0.031026 0.238889
vt 0.010342 0.256667
vt 0.072129 0.231358
vt 0.047733 0.321111
vt 0.050915 0.314815
vt 0.009547 0.294444
vt 0.045346 0.287407
vt 0.000000 0.280000
vt 0.013524 0.271111
vt 0.000000 0.251111
vt 0.043755 0.177037
vt 0.028640 0.186667
vt 0.038982 0.193333
vt 0.038186 0.176667
vt 0.071334 0.198272
vt 0.039777 0.210741
vt 0.023866 0.225556
vt 0.095465 0.148889
vt 0.076372 0.155556
vt 0.152745 0.132346
vt 0.156722 0.160741
vt 0.191196 0.138642
vt 0.123309 0.143580
vt 0.243437 0.095556
vt 0.256696 0.113704
vt 0.274463 0.090000
vt 0.220101 0.116914
vt 0.162291 0.091111
vt 0.130469 0.102593
vt 0.183771 0.115185
vt 0.133652 0.093333
vt 0.112967 0.105926
vt 0.095465 0.123333
vt 0.117741 0.121111
vt 0.109785 0.101111
vt 0.201273 0.082222
vt 0.225139 0.086667
vt 0.183771 0.080000
vt 0.202864 0.076667
vt 0.182975 0.082593
vt 0.293556 0.105556
vt 0.238663 0.078889
vt 0.145585 0.244444
vt 0.134320 0.275896
vt 0.213795 0.260521
vt 0.301909 0.135556
vt 0.135243 0.190741
vt 0.188199 0.225489
vt 0.207070 0.196370
vt 0.106868 0.215309
vt 0.573212 0.209471
vt 0.637372 0.178713
vt 0.557287 0.174021
vt 0.646388 0.208713
vt 0.265527 0.187958
vt 0.250676 0.313894
vt 0.270485 0.279259
vt 0.212029 0.295836
vt 0.315656 0.300660
vt 0.396181 0.110000
vt 0.626889 0.036296
vt 0.613365 0.007778
vt 0.560859 0.025679
vt 0.644126 0.026543
vt 0.720764 0.078889
vt 0.719968 0.064444
vt 0.381862 0.143333
vt 0.407584 0.155679
vt 0.723150 0.063333
vt 0.403607 0.073580
vt 0.372315 0.083704
vt 0.459825 0.075556
vt 0.555556 0.048395
vt 0.616282 0.051358
vt 0.360382 0.083333
vt 0.360382 0.057778
vt 0.385839 0.064444
vt 0.400955 0.025556
vt 0.396712 0.043210
vt 0.514983 0.014691
vt 0.570406 0.002222
vt 0.489260 0.003333
vt 0.458499 0.022469
vt 0.823384 0.310813
vt 0.804186 0.280275
vt 0.778702 0.296918
vt 0.856226 0.289713
vt 0.775656 0.186667
vt 0.797932 0.203704
vt 0.832140 0.199259
vt 0.761337 0.190000
vt 0.874304 0.205556
vt 0.902148 0.205556
vt 0.883055 0.195556
vt 0.885442 0.215926
vt 0.861575 0.214074
vt 0.837709 0.215556
vt 0.723150 0.138889
vt 0.675152 0.117901
vt 0.429651 0.176488
vt 0.687351 0.155185
vt 0.610979 0.152222
vt 0.646513 0.135679
vt 0.941925 0.249259
vt 0.947494 0.225556
vt 0.976134 0.234444
vt 0.957041 0.221111
vt 0.951472 0.237037
vt 0.727924 0.174444
vt 0.968974 0.255556
vt 0.941130 0.314074
vt 0.918059 0.320123
vt 0.909308 0.221111
vt 0.894988 0.543333
vt 0.928401 0.530000
vt 0.798727 0.571481
vt 0.816229 0.554444
vt 0.792363 0.552593
vt 0.804296 0.576667
vt 0.906921 0.301111
vt 0.933970 0.366296
vt 0.933970 0.349383
vt 0.906126 0.345185
vt 0.962079 0.355802
vt 0.600833 0.382593
vt 0.668258 0.402963
vt 0.684393 0.373962
vt 0.604879 0.406420
vt 0.886237 0.407407
vt 0.887828 0.418889
vt 0.898966 0.414444
vt 0.871917 0.415185
vt 0.832140 0.539259
vt 0.753381 0.707778
vt 0.710422 0.708519
vt 0.736144 0.722593
vt 0.740652 0.694444
vt 0.961814 0.336667
vt 0.990453 0.364444
vt 0.983294 0.391111
vt 0.941130 0.384444
vt 0.904535 0.466667
vt 0.884248 0.447778
vt 0.859984 0.471482
vt 0.868735 0.411111
vt 0.859189 0.415556
vt 0.516511 0.520204
vt 0.552363 0.494140
vt 0.455403 0.506473
vt 0.873508 0.417222
vt 0.765399 0.366698
vt 0.818685 0.348765
vt 0.784530 0.334411
vt 0.840389 0.369887
vt 0.714399 0.294815
vt 0.750802 0.272796
vt 0.725642 0.315353
vt 0.865859 0.326902
vt 0.822593 0.480000
vt 0.873508 0.492963
vt 0.836913 0.507037
vt 0.706974 0.577407
vt 0.700875 0.554444
vt 0.644391 0.594444
vt 0.760939 0.788580
vt 0.795943 0.778210
vt 0.894988 0.477778
vt 0.670379 0.635679
vt 0.675418 0.650370
vt 0.771811 0.833889
vt 0.754707 0.608889
vt 0.768496 0.626667
vt 0.772076 0.605000
vt 0.719968 0.616667
vt 0.660037 0.617037
vt 0.790772 0.581111
vt 0.792363 0.583333
vt 0.756298 0.563457
vt 0.775656 0.583333
vt 0.713339 0.598148
vt 0.681517 0.666173
vt 0.727128 0.663704
vt 0.707505 0.643580
vt 0.779104 0.722222
vt 0.770883 0.680000
vt 0.755502 0.656790
vt 0.806417 0.742963
vt 0.809069 0.721111
vt 0.786264 0.757407
vt 0.777778 0.702963
vt 0.828427 0.799877
vt 0.813445 0.820802
vt 0.803898 0.800185
vt 0.835322 0.770000
vt 0.880668 0.926667
vt 0.790374 0.832778
vt 0.898966 0.240370
vt 0.554495 0.070370
vt 0.489525 0.051728
vt 0.605410 0.115926
vt 0.618934 0.095062
vt 0.487669 0.160370
vt 0.502981 0.191867
vt 0.533015 0.147778
vt 0.849642 0.455185
vt 0.803235 0.537284
vt 0.731901 0.679753
vt 0.639618 0.072222
vt 0.738531 0.635679
vt 0.514718 0.392593
vt 0.437103 0.398904
vt 0.709096 0.202222
vt 0.143071 0.323427
vt 0.117613 0.304044
vt 0.558946 0.239191
vt 0.638027 0.242222
vt 0.618404 0.270494
vt 0.314691 0.210798
vt 0.495625 0.227037
vt 0.448062 0.205760
vt 0.426007 0.232152
vt 0.200742 0.172346
vt 0.474781 0.726469
vt 0.447998 0.690491
vt 0.358393 0.544938
vt 0.464981 0.540676
vt 0.100239 0.587407
vt 0.097852 0.605309
vt 0.227791 0.439012
vt 0.293556 0.421111
vt 0.280297 0.447037
vt 0.252983 0.370741
vt 0.412092 0.479630
vt 0.405184 0.440787
vt 0.363383 0.408410
vt 0.342433 0.441620
vt 0.258817 0.472963
vt 0.210289 0.481358
vt 0.251127 0.396914
vt 0.560525 0.351235
vt 0.619523 0.352224
vt 0.785998 0.436667
vt 0.822593 0.420741
vt 0.557677 0.461111
vt 0.617822 0.486688
vt 0.646778 0.546543
vt 0.644211 0.508170
vt 0.597274 0.526442
vt 0.818085 0.522099
vt 0.618525 0.460740
vt 0.584110 0.437632
vt 0.631663 0.423704
vt 0.803500 0.451482
vt 0.292761 0.385802
vt 0.335985 0.380370
vt 0.405728 0.343333
vt 0.395661 0.303291
vt 0.348125 0.333553
vt 0.455317 0.335556
vt 0.266773 0.357531
vt 0.219836 0.363457
vt 0.162291 0.370000
vt 0.171838 0.363333
vt 0.172633 0.351358
vt 0.322991 0.356667
vt 0.381872 0.263785
vt 0.350040 0.225556
vt 0.316489 0.255833
vt 0.364360 0.224815
vt 0.283771 0.241282
vt 0.186030 0.328859
vt 0.287664 0.334171
vt 0.224344 0.345185
vt 0.465599 0.265880
vt 0.485282 0.038519
vt 0.438345 0.036790
vt 0.428799 0.046296
vt 0.669849 0.260370
vt 0.864757 0.223704
vt 0.780430 0.208889
vt 0.613694 0.314731
vt 0.672582 0.333789
vt 0.678115 0.282632
vt 0.849642 0.397778
vt 0.908247 0.382840
vt 0.739885 0.402109
vt 0.723150 0.351111
vt 0.593517 0.325282
vt 0.549508 0.414917
vt 0.812545 0.395072
vt 0.791330 0.408035
vt 0.852029 0.408889
vt 0.550320 0.272330
vt 0.610293 0.294663
vt 0.547335 0.308889
vt 0.811657 0.249574
vt 0.860780 0.247037
vt 0.840095 0.228889
vt 0.831546 0.263648
vt 0.844869 0.221111
vt 0.809069 0.212222
vt 0.936356 0.331975
vt 0.896579 0.369753
vt 0.766110 0.455556
vt 0.742243 0.456667
vt 0.754177 0.458889
vt 0.732167 0.432099
vt 0.792363 0.492222
vt 0.804826 0.506420
vt 0.788783 0.506111
vt 0.472887 0.306034
vt 0.491647 0.351975
vt 0.439671 0.370123
vt 0.391408 0.363333
vt 0.664144 0.447037
vt 0.739857 0.460000
vt 0.680320 0.475308
vt 0.680721 0.427778
vt 0.780430 0.470000
vt 0.682578 0.505185
vt 0.715460 0.508642
vt 0.734818 0.492716
vt 0.256679 0.213251
vt 0.755768 0.477407
vt 0.766110 0.495556
vt 0.750597 0.468333
vt 0.785203 0.520000
vt 0.373376 0.354444
vt 0.823389 0.228889
vt 0.801909 0.218889
vt 0.761337 0.476667
vt 0.412888 0.354444
vt 0.398568 0.353333
vt 0.775656 0.507778
g Default
usemtl Default
f 1/1 2/2 3/3
f 2/2 1/1 4/4
f 5/5 6/6 7/7
f 7/7 6/6 8/8
f 9/9 5/5 10/10
f 11/11 12/12 13/13
f 12/12 11/11 1/1
f 3/3 9/9 12/12
f 14/14 15/15 16/16
f 15/15 14/14 17/17
f 18/18 19/19 14/14
f 19/19 18/18 20/20
f 18/18 2/2 20/20
f 16/16 18/18 14/14
f 21/21 22/22 23/23
f 22/22 21/21 24/24
f 25/25 26/26 27/27
f 26/26 25/25 28/28
f 29/29 16/16 15/15
f 30/30 31/31 32/32
f 31/31 30/30 33/33
f 34/34 29/29 24/24
f 35/35 36/36 37/37
f 36/36 35/35 38/38
f 39/39 34/34 40/40
f 41/41 42/42 43/43
f 42/42 41/41 44/44
f 38/38 39/39 45/45
f 46/46 47/47 48/48
f 47/47 46/46 49/49
f 50/50 38/38 35/35
f 51/51 52/52 53/53
f 52/52 51/51 54/54
f 55/55 50/50 56/56
f 57/57 56/56 58/58
f 56/56 57/57 59/59
f 59/59 55/55 56/56
f 60/60 61/61 62/62
f 61/61 60/60 63/63
f 64/64 59/59 65/65
f 66/66 67/67 68/68
f 67/67 66/66 69/69
f 70/70 64/64 65/65
f 71/71 72/72 73/73
f 72/72 71/71 74/74
f 75/75 70/70 76/76
f 67/67 77/77 68/68
f 77/77 67/67 78/78
f 79/79 75/75 76/76
f 80/80 81/81 73/73
f 81/81 80/80 82/82
f 83/83 79/79 84/84
f 85/85 83/83 86/86
f 87/87 88/88 89/89
f 88/88 87/87 90/90
f 91/91 85/85 92/92
f 93/93 94/94 95/95
f 94/94 93/93 96/96
f 97/97 91/91 92/92
f 98/98 99/99 100/100
f 99/99 98/98 95/95
f 101/101 97/97 102/102
f 99/99 94/94 103/103
f 94/94 99/99 95/95
f 104/104 101/101 102/102
f 105/105 100/100 106/106
f 100/100 105/105 107/107
f 108/108 104/104 98/98
f 105/105 108/108 107/107
f 109/109 110/110 111/111
f 110/110 109/109 112/112
f 113/113 105/105 106/106
f 114/114 115/115 116/116
f 115/115 114/114 117/117
f 118/118 113/113 119/119
f 120/120 114/114 121/121
f 114/114 120/120 122/122
f 123/123 118/118 124/124
f 117/117 114/114 122/122
f 117/117 123/123 115/115
f 125/125 126/126 127/127
f 126/126 125/125 128/128
f 129/129 117/117 122/122
f 130/130 131/131 132/132
f 131/131 130/130 133/133
f 126/126 129/129 127/127
f 134/134 130/130 132/132
f 130/130 134/134 135/135
f 136/136 126/126 128/128
f 133/133 137/137 131/131
f 137/137 133/133 138/138
f 137/137 136/136 131/131
f 131/131 128/128 132/132
f 128/128 131/131 136/136
f 135/135 138/138 133/133
f 127/127 139/139 125/125
f 139/139 127/127 120/120
f 140/140 134/134 132/132
f 116/116 115/115 141/141
f 139/139 140/140 125/125
f 115/115 142/142 143/143
f 142/142 115/115 123/123
f 144/144 123/123 145/145
f 123/123 144/144 142/142
f 121/121 139/139 120/120
f 110/110 146/146 111/111
f 146/146 110/110 119/119
f 116/116 121/121 114/114
f 111/111 146/146 147/147
f 148/148 149/149 147/147
f 149/149 148/148 150/150
f 151/151 141/141 143/143
f 150/150 152/152 153/153
f 152/152 150/150 148/148
f 154/154 151/151 109/109
f 104/104 155/155 98/98
f 155/155 104/104 156/156
f 150/150 154/154 149/149
f 102/102 156/156 104/104
f 156/156 102/102 157/157
f 158/158 96/96 93/93
f 96/96 158/158 159/159
f 97/97 92/92 160/160
f 161/161 162/162 163/163
f 162/162 161/161 164/164
f 164/164 165/165 162/162
f 165/165 164/164 160/160
f 166/166 96/96 161/161
f 167/167 162/162 168/168
f 162/162 167/167 163/163
f 163/163 166/166 161/161
f 169/169 170/170 171/171
f 170/170 169/169 172/172
f 173/173 174/174 175/175
f 174/174 173/173 176/176
f 177/177 163/163 178/178
f 173/173 175/175 179/179
f 180/180 177/177 178/178
f 174/174 176/176 181/181
f 182/182 180/180 183/183
f 181/181 176/176 184/184
f 185/185 182/182 181/181
f 186/186 184/184 176/176
f 184/184 186/186 187/187
f 187/187 185/185 184/184
f 179/179 175/175 188/188
f 173/173 186/186 176/176
f 174/174 183/183 175/175
f 183/183 174/174 181/181
f 189/189 173/173 179/179
f 190/190 188/188 175/175
f 188/188 190/190 191/191
f 188/188 189/189 179/179
f 188/188 191/191 192/192
f 193/193 191/191 190/190
f 191/191 193/193 194/194
f 191/191 194/194 195/195
f 196/196 194/194 193/193
f 194/194 196/196 197/197
f 196/196 193/193 198/198
f 199/199 200/200 198/198
f 200/200 199/199 201/201
f 180/180 202/202 183/183
f 202/202 180/180 203/203
f 204/204 196/196 205/205
f 205/205 196/196 198/198
f 205/205 200/200 206/206
f 200/200 205/205 198/198
f 207/207 208/208 201/201
f 208/208 207/207 209/209
f 210/210 211/211 212/212
f 211/211 210/210 213/213
f 214/214 207/207 198/198
f 207/207 214/214 209/209
f 215/215 216/216 217/217
f 216/216 215/215 218/218
f 219/219 217/217 216/216
f 217/217 219/219 171/171
f 220/220 209/209 221/221
f 172/172 169/169 221/221
f 169/169 220/220 221/221
f 222/222 171/171 223/223
f 171/171 222/222 217/217
f 219/219 169/169 171/171
f 214/214 198/198 212/212
f 224/224 218/218 215/215
f 202/202 190/190 175/175
f 190/190 202/202 193/193
f 225/225 226/226 227/227
f 226/226 225/225 228/228
f 229/229 224/224 230/230
f 231/231 178/178 163/163
f 178/178 231/231 232/232
f 227/227 229/229 213/213
f 228/228 233/233 234/234
f 233/233 228/228 235/235
f 236/236 227/227 226/226
f 232/232 237/237 238/238
f 237/237 232/232 231/231
f 234/234 236/236 226/226
f 234/234 233/233 239/239
f 231/231 163/163 167/167
f 240/240 239/239 233/233
f 241/241 242/242 240/240
f 242/242 241/241 243/243
f 244/244 245/245 246/246
f 245/245 244/244 247/247
f 248/248 249/249 243/243
f 249/249 248/248 250/250
f 251/251 242/242 252/252
f 253/253 254/254 255/255
f 254/254 253/253 256/256
f 257/257 251/251 258/258
f 259/259 260/260 261/261
f 260/260 259/259 262/262
f 263/263 257/257 264/264
f 263/263 264/264 265/265
f 265/265 264/264 266/266
f 261/261 267/267 268/268
f 267/267 261/261 269/269
f 270/270 266/266 271/271
f 259/259 272/272 271/271
f 272/272 259/259 261/261
f 268/268 270/270 272/272
f 272/272 270/270 271/271
f 273/273 274/274 275/275
f 276/276 267/267 269/269
f 271/271 266/266 277/277
f 260/260 276/276 269/269
f 258/258 264/264 257/257
f 264/264 258/258 277/277
f 275/275 278/278 279/279
f 278/278 275/275 274/274
f 274/274 262/262 280/280
f 281/281 253/253 282/282
f 253/253 281/281 256/256
f 283/283 284/284 285/285
f 284/284 283/283 286/286
f 287/287 273/273 288/288
f 289/289 285/285 290/290
f 285/285 289/289 283/283
f 291/291 287/287 288/288
f 291/291 288/288 289/289
f 284/284 286/286 292/292
f 289/289 288/288 283/283
f 292/292 290/290 284/284
f 288/288 275/275 283/283
f 275/275 288/288 273/273
f 293/293 286/286 294/294
f 279/279 281/281 282/282
f 281/281 279/279 278/278
f 282/282 293/293 279/279
f 281/281 295/295 256/256
f 295/295 281/281 278/278
f 296/296 282/282 253/253
f 278/278 274/274 280/280
f 255/255 296/296 253/253
f 297/297 252/252 298/298
f 252/252 297/297 299/299
f 300/300 301/301 302/302
f 301/301 300/300 303/303
f 304/304 305/305 306/306
f 305/305 304/304 307/307
f 308/308 254/254 309/309
f 310/310 311/311 312/312
f 311/311 310/310 313/313
f 314/314 308/308 315/315
f 314/314 315/315 316/316
f 316/316 315/315 317/317
f 318/318 316/316 317/317
f 318/318 317/317 319/319
f 320/320 318/318 319/319
f 321/321 320/320 322/322
f 320/320 321/321 323/323
f 315/315 324/324 325/325
f 324/324 315/315 308/308
f 326/326 323/323 327/327
f 328/328 329/329 330/330
f 329/329 328/328 331/331
f 332/332 326/326 333/333
f 333/333 334/334 332/332
f 334/334 333/333 335/335
f 335/335 336/336 334/334
f 336/336 335/335 337/337
f 338/338 336/336 330/330
f 328/328 337/337 335/335
f 337/337 328/328 330/330
f 329/329 338/338 330/330
f 339/339 340/340 341/341
f 340/340 339/339 342/342
f 343/343 341/341 344/344
f 341/341 343/343 312/312
f 345/345 329/329 331/331
f 340/340 345/345 344/344
f 346/346 313/313 310/310
f 313/313 346/346 347/347
f 348/348 349/349 350/350
f 349/349 348/348 351/351
f 311/311 342/342 339/339
f 352/352 353/353 354/354
f 353/353 352/352 355/355
f 347/347 311/311 313/313
f 356/356 357/357 358/358
f 357/357 356/356 359/359
f 360/360 361/361 362/362
f 361/361 360/360 363/363
f 361/361 346/346 351/351
f 361/361 351/351 362/362
f 364/364 358/358 365/365
f 358/358 364/364 356/356
f 359/359 363/363 357/357
f 366/366 364/364 367/367
f 364/364 366/366 368/368
f 354/354 353/353 369/369
f 366/366 356/356 368/368
f 89/89 353/353 355/355
f 353/353 89/89 88/88
f 345/345 331/331 344/344
f 370/370 367/367 365/365
f 354/354 370/370 352/352
f 371/371 372/372 373/373
f 372/372 371/371 328/328
f 306/306 90/90 304/304
f 374/374 369/369 353/353
f 375/375 376/376 377/377
f 376/376 375/375 378/378
f 379/379 380/380 381/381
f 380/380 379/379 382/382
f 90/90 374/374 88/88
f 304/304 90/90 383/383
f 384/384 385/385 386/386
f 385/385 384/384 387/387
f 66/66 68/68 388/388
f 389/389 390/390 391/391
f 390/390 389/389 392/392
f 81/81 393/393 394/394
f 393/393 81/81 82/82
f 395/395 305/305 396/396
f 71/71 73/73 397/397
f 388/388 398/398 399/399
f 398/398 388/388 400/400
f 388/388 395/395 66/66
f 389/389 401/401 402/402
f 401/401 389/389 391/391
f 403/403 388/388 399/399
f 404/404 403/403 405/405
f 405/405 403/403 399/399
f 406/406 404/404 407/407
f 408/408 409/409 410/410
f 409/409 408/408 391/391
f 410/410 406/406 411/411
f 412/412 413/413 414/414
f 413/413 412/412 415/415
f 416/416 417/417 418/418
f 417/417 416/416 419/419
f 390/390 409/409 391/391
f 74/74 390/390 392/392
f 420/420 421/421 422/422
f 421/421 420/420 423/423
f 424/424 418/418 425/425
f 418/418 424/424 420/420
f 393/393 397/397 394/394
f 426/426 82/82 427/427
f 305/305 428/428 396/396
f 428/428 305/305 307/307
f 429/429 430/430 380/380
f 430/430 429/429 431/431
f 41/41 43/43 432/432
f 433/433 434/434 435/435
f 434/434 433/433 436/436
f 437/437 426/426 429/429
f 432/432 43/43 438/438
f 416/416 437/437 419/419
f 439/439 32/32 440/440
f 32/32 439/439 30/30
f 422/422 416/416 418/418
f 441/441 421/421 423/423
f 442/442 51/51 53/53
f 51/51 442/442 443/443
f 435/435 441/441 433/433
f 444/444 445/445 446/446
f 445/445 444/444 447/447
f 438/438 434/434 436/436
f 440/440 32/32 448/448
f 449/449 450/450 451/451
f 450/450 449/449 452/452
f 252/252 242/242 243/243
f 453/453 454/454 455/455
f 454/454 453/453 456/456
f 448/448 42/42 415/415
f 457/457 458/458 459/459
f 458/458 457/457 460/460
f 61/61 63/63 459/459
f 461/461 442/442 53/53
f 442/442 461/461 445/445
f 462/462 463/463 464/464
f 463/463 462/462 465/465
f 466/466 33/33 439/439
f 467/467 466/466 452/452
f 468/468 467/467 469/469
f 62/62 468/468 60/60
f 79/79 76/76 84/84
f 302/302 470/470 471/471
f 470/470 302/302 472/472
f 473/473 460/460 457/457
f 460/460 473/473 474/474
f 300/300 474/474 303/303
f 458/458 61/61 459/459
f 247/247 475/475 476/476
f 475/475 247/247 477/477
f 252/252 243/243 298/298
f 478/478 458/458 460/460
f 479/479 480/480 481/481
f 480/480 479/479 482/482
f 483/483 414/414 484/484
f 414/414 483/483 485/485
f 474/474 478/478 460/460
f 448/448 486/486 440/440
f 486/486 448/448 415/415
f 487/487 488/488 472/472
f 488/488 487/487 489/489
f 471/471 300/300 302/302
f 86/86 490/490 491/491
f 490/490 86/86 492/492
f 36/36 493/493 494/494
f 493/493 36/36 45/45
f 495/495 470/470 472/472
f 65/65 496/496 70/70
f 496/496 65/65 497/497
f 54/54 495/495 52/52
f 443/443 54/54 51/51
f 34/34 24/24 498/498
f 499/499 500/500 501/501
f 500/500 499/499 502/502
f 503/503 70/70 496/496
f 70/70 503/503 76/76
f 447/447 504/504 505/505
f 504/504 447/447 444/444
f 506/506 444/444 446/446
f 444/444 506/506 507/507
f 501/501 507/507 499/499
f 503/503 492/492 76/76
f 492/492 503/503 508/508
f 508/508 499/499 507/507
f 499/499 508/508 502/502
f 507/507 505/505 504/504
f 86/86 83/83 84/84
f 509/509 510/510 511/511
f 510/510 509/509 57/57
f 59/59 509/509 65/65
f 509/509 59/59 57/57
f 464/464 37/37 512/512
f 37/37 464/464 35/35
f 513/513 500/500 514/514
f 37/37 515/515 516/516
f 515/515 37/37 517/517
f 516/516 513/513 518/518
f 519/519 520/520 23/23
f 520/520 519/519 521/521
f 522/522 516/516 515/515
f 23/23 522/522 519/519
f 22/22 15/15 17/17
f 15/15 22/22 29/29
f 17/17 23/23 22/22
f 20/20 4/4 523/523
f 4/4 20/20 2/2
f 523/523 17/17 19/19
f 3/3 12/12 1/1
f 11/11 523/523 4/4
f 13/13 9/9 10/10
f 9/9 13/13 12/12
f 8/8 11/11 13/13
f 11/11 4/4 1/1
f 5/5 7/7 10/10
f 10/10 7/7 13/13
f 7/7 8/8 13/13
f 17/17 14/14 19/19
f 523/523 19/19 20/20
f 34/34 498/498 40/40
f 520/520 21/21 23/23
f 21/21 520/520 524/524
f 29/29 22/22 24/24
f 525/525 433/433 441/441
f 433/433 525/525 436/436
f 438/438 436/436 432/432
f 469/469 467/467 449/449
f 469/469 60/60 468/468
f 60/60 469/469 63/63
f 526/526 400/400 68/68
f 400/400 526/526 527/527
f 528/528 431/431 427/427
f 431/431 528/528 78/78
f 529/529 427/427 82/82
f 427/427 529/529 528/528
f 77/77 78/78 528/528
f 66/66 396/396 69/69
f 396/396 66/66 395/395
f 381/381 530/530 531/531
f 530/530 381/381 532/532
f 36/36 494/494 517/517
f 36/36 38/38 45/45
f 493/493 521/521 494/494
f 521/521 493/493 40/40
f 472/472 302/302 533/533
f 534/534 445/445 461/461
f 445/445 534/534 446/446
f 495/495 488/488 52/52
f 488/488 495/495 472/472
f 488/488 489/489 52/52
f 463/463 56/56 50/50
f 56/56 463/463 58/58
f 465/465 513/513 535/535
f 513/513 465/465 518/518
f 397/397 73/73 394/394
f 81/81 394/394 73/73
f 536/536 80/80 72/72
f 80/80 536/536 82/82
f 514/514 511/511 510/510
f 511/511 514/514 537/537
f 57/57 535/535 510/510
f 535/535 57/57 58/58
f 538/538 246/246 245/245
f 246/246 538/538 539/539
f 415/415 42/42 44/44
f 419/419 540/540 47/47
f 540/540 419/419 437/437
f 541/541 326/326 327/327
f 326/326 541/541 542/542
f 543/543 544/544 379/379
f 544/544 543/543 545/545
f 304/304 383/383 546/546
f 67/67 532/532 78/78
f 532/532 67/67 530/530
f 379/379 547/547 543/543
f 547/547 379/379 531/531
f 379/379 544/544 382/382
f 531/531 379/379 381/381
f 548/548 549/549 547/547
f 549/549 548/548 307/307
f 492/492 86/86 84/84
f 84/84 76/76 492/492
f 346/346 310/310 351/351
f 550/550 383/383 87/87
f 383/383 550/550 377/377
f 351/351 310/310 349/349
f 349/349 375/375 550/550
f 375/375 349/349 310/310
f 343/343 378/378 375/375
f 378/378 343/343 344/344
f 550/550 375/375 377/377
f 152/152 106/106 100/100
f 106/106 152/152 148/148
f 148/148 551/551 106/106
f 551/551 148/148 147/147
f 111/111 149/149 154/154
f 149/149 111/111 147/147
f 551/551 113/113 106/106
f 113/113 551/551 146/146
f 164/164 159/159 160/160
f 159/159 164/164 161/161
f 97/97 157/157 102/102
f 157/157 97/97 160/160
f 100/100 552/552 152/152
f 552/552 100/100 99/99
f 124/124 118/118 119/119
f 145/145 112/112 151/151
f 112/112 145/145 124/124
f 123/123 124/124 145/145
f 129/129 120/120 127/127
f 120/120 129/129 122/122
f 141/141 115/115 143/143
f 140/140 128/128 125/125
f 128/128 140/140 132/132
f 135/135 133/133 130/130
f 143/143 144/144 151/151
f 144/144 143/143 142/142
f 109/109 111/111 154/154
f 124/124 110/110 112/112
f 110/110 124/124 119/119
f 153/153 152/152 552/552
f 98/98 107/107 108/108
f 107/107 98/98 100/100
f 95/95 155/155 93/93
f 155/155 95/95 98/98
f 158/158 157/157 159/159
f 157/157 158/158 156/156
f 160/160 159/159 157/157
f 92/92 85/85 165/165
f 553/553 235/235 167/167
f 235/235 553/553 241/241
f 162/162 165/165 168/168
f 168/168 554/554 250/250
f 554/554 168/168 165/165
f 217/217 222/222 215/215
f 230/230 224/224 222/222
f 171/171 170/170 223/223
f 172/172 209/209 214/214
f 209/209 172/172 221/221
f 183/183 181/181 182/182
f 185/185 181/181 184/184
f 238/238 237/237 228/228
f 178/178 203/203 180/180
f 203/203 178/178 232/232
f 202/202 175/175 183/183
f 193/193 202/202 212/212
f 199/199 207/207 201/201
f 207/207 199/199 198/198
f 227/227 213/213 225/225
f 213/213 555/555 211/211
f 555/555 213/213 230/230
f 212/212 202/202 210/210
f 238/238 203/203 232/232
f 203/203 238/238 210/210
f 198/198 193/193 212/212
f 212/212 211/211 214/214
f 556/556 170/170 172/172
f 170/170 556/556 223/223
f 223/223 556/556 555/555
f 211/211 556/556 214/214
f 556/556 211/211 555/555
f 555/555 230/230 222/222
f 215/215 222/222 224/224
f 234/234 226/226 228/228
f 238/238 228/228 225/225
f 233/233 241/241 240/240
f 241/241 233/233 235/235
f 235/235 228/228 237/237
f 553/553 168/168 248/248
f 168/168 553/553 167/167
f 243/243 241/241 248/248
f 248/248 168/168 250/250
f 85/85 554/554 165/165
f 554/554 85/85 475/475
f 557/557 558/558 256/256
f 558/558 557/557 559/559
f 243/243 249/249 298/298
f 308/308 309/309 560/560
f 249/249 561/561 298/298
f 561/561 249/249 477/477
f 477/477 554/554 475/475
f 554/554 477/477 250/250
f 26/26 446/446 534/534
f 446/446 26/26 28/28
f 562/562 561/561 244/244
f 561/561 562/562 297/297
f 561/561 247/247 244/244
f 247/247 561/561 477/477
f 563/563 562/562 539/539
f 562/562 563/563 564/564
f 251/251 252/252 258/258
f 564/564 297/297 562/562
f 297/297 564/564 299/299
f 565/565 277/277 258/258
f 277/277 565/565 566/566
f 557/557 256/256 295/295
f 277/277 266/266 264/264
f 566/566 565/565 280/280
f 566/566 262/262 259/259
f 262/262 566/566 280/280
f 260/260 269/269 261/261
f 261/261 268/268 272/272
f 271/271 277/277 259/259
f 259/259 277/277 566/566
f 565/565 299/299 559/559
f 299/299 565/565 258/258
f 278/278 280/280 557/557
f 279/279 293/293 294/294
f 286/286 283/283 294/294
f 290/290 285/285 284/284
f 283/283 275/275 279/279
f 567/567 254/254 256/256
f 254/254 567/567 309/309
f 564/564 559/559 299/299
f 559/559 564/564 558/558
f 564/564 563/563 558/558
f 568/568 453/453 569/569
f 453/453 568/568 538/538
f 244/244 246/246 562/562
f 570/570 303/303 571/571
f 303/303 570/570 301/301
f 476/476 572/572 247/247
f 572/572 476/476 573/573
f 574/574 575/575 576/576
f 575/575 574/574 25/25
f 534/534 461/461 577/577
f 578/578 579/579 572/572
f 579/579 578/578 580/580
f 572/572 573/573 578/578
f 301/301 570/570 581/581
f 582/582 563/563 583/583
f 563/563 582/582 558/558
f 584/584 585/585 586/586
f 585/585 584/584 587/587
f 322/322 320/320 319/319
f 558/558 582/582 567/567
f 309/309 588/588 560/560
f 588/588 309/309 582/582
f 343/343 375/375 312/312
f 340/340 344/344 341/341
f 308/308 560/560 589/589
f 322/322 319/319 590/590
f 317/317 315/315 325/325
f 324/324 308/308 589/589
f 319/319 317/317 590/590
f 321/321 591/591 592/592
f 591/591 321/321 322/322
f 588/588 582/582 593/593
f 323/323 321/321 327/327
f 327/327 321/321 592/592
f 327/327 592/592 541/541
f 335/335 542/542 372/372
f 542/542 335/335 333/333
f 376/376 378/378 371/371
f 542/542 333/333 326/326
f 373/373 372/372 386/386
f 336/336 337/337 330/330
f 339/339 312/312 311/311
f 312/312 339/339 341/341
f 375/375 310/310 312/312
f 365/365 367/367 364/364
f 550/550 350/350 349/349
f 350/350 550/550 87/87
f 348/348 358/358 362/362
f 358/358 348/348 350/350
f 355/355 350/350 89/89
f 350/350 355/355 358/358
f 355/355 365/365 358/358
f 365/365 355/355 352/352
f 352/352 370/370 365/365
f 357/357 363/363 360/360
f 358/358 357/357 362/362
f 362/362 357/357 360/360
f 368/368 356/356 364/364
f 594/594 595/595 596/596
f 595/595 594/594 597/597
f 598/598 373/373 385/385
f 373/373 598/598 376/376
f 596/596 595/595 598/598
f 373/373 386/386 385/385
f 386/386 541/541 599/599
f 541/541 386/386 542/542
f 600/600 601/601 588/588
f 601/601 600/600 384/384
f 387/387 596/596 385/385
f 596/596 387/387 594/594
f 387/387 600/600 586/586
f 600/600 387/387 384/384
f 387/387 585/585 594/594
f 585/585 387/387 586/586
f 530/530 67/67 69/69
f 531/531 428/428 548/548
f 428/428 531/531 530/530
f 428/428 307/307 548/548
f 546/546 597/597 307/307
f 597/597 546/546 595/595
f 598/598 595/595 546/546
f 600/600 593/593 586/586
f 593/593 600/600 588/588
f 589/589 592/592 591/591
f 592/592 589/589 601/601
f 324/324 591/591 325/325
f 591/591 324/324 589/589
f 72/72 392/392 389/389
f 392/392 72/72 74/74
f 529/529 82/82 536/536
f 72/72 389/389 402/402
f 526/526 536/536 402/402
f 536/536 526/526 529/529
f 549/549 307/307 597/597
f 549/549 594/594 602/602
f 594/594 549/549 597/597
f 603/603 604/604 527/527
f 604/604 603/603 411/411
f 398/398 605/605 405/405
f 605/605 398/398 400/400
f 411/411 408/408 410/410
f 408/408 411/411 603/603
f 527/527 401/401 603/603
f 401/401 527/527 526/526
f 529/529 77/77 528/528
f 77/77 529/529 526/526
f 526/526 402/402 401/401
f 405/405 407/407 404/404
f 407/407 405/405 605/605
f 527/527 604/604 605/605
f 407/407 604/604 406/406
f 604/604 407/407 605/605
f 400/400 388/388 68/68
f 405/405 399/399 398/398
f 73/73 72/72 80/80
f 48/48 544/544 606/606
f 544/544 48/48 382/382
f 607/607 441/441 423/423
f 441/441 607/607 525/525
f 417/417 419/419 608/608
f 414/414 413/413 484/484
f 480/480 486/486 412/412
f 486/486 480/480 451/451
f 483/483 609/609 610/610
f 609/609 483/483 611/611
f 612/612 457/457 613/613
f 457/457 612/612 473/473
f 479/479 455/455 614/614
f 455/455 479/479 615/615
f 616/616 569/569 610/610
f 569/569 616/616 568/568
f 579/579 617/617 245/245
f 617/617 579/579 456/456
f 479/479 481/481 615/615
f 610/610 455/455 615/615
f 455/455 610/610 569/569
f 571/571 618/618 619/619
f 618/618 571/571 620/620
f 616/616 610/610 609/609
f 621/621 622/622 545/545
f 622/622 621/621 623/623
f 544/544 545/545 606/606
f 483/483 610/610 485/485
f 481/481 414/414 485/485
f 414/414 481/481 412/412
f 624/624 625/625 626/626
f 625/625 624/624 627/627
f 46/46 606/606 484/484
f 606/606 46/46 48/48
f 484/484 624/624 46/46
f 624/624 484/484 413/413
f 431/431 78/78 430/430
f 381/381 380/380 430/430
f 429/429 426/426 431/431
f 41/41 625/625 44/44
f 625/625 41/41 525/525
f 627/627 415/415 44/44
f 415/415 627/627 413/413
f 626/626 625/625 607/607
f 44/44 625/625 627/627
f 525/525 607/607 625/625
f 423/423 424/424 607/607
f 424/424 423/423 420/420
f 607/607 628/628 626/626
f 628/628 607/607 424/424
f 418/418 420/420 422/422
f 436/436 525/525 432/432
f 432/432 525/525 41/41
f 418/418 417/417 629/629
f 457/457 459/459 63/63
f 52/52 489/489 53/53
f 53/53 489/489 577/577
f 439/439 33/33 30/30
f 451/451 630/630 440/440
f 630/630 451/451 450/450
f 480/480 412/412 481/481
f 631/631 451/451 482/482
f 451/451 631/631 449/449
f 449/449 467/467 452/452
f 613/613 469/469 449/449
f 469/469 613/613 63/63
f 439/439 630/630 466/466
f 630/630 439/439 440/440
f 631/631 612/612 613/613
f 612/612 631/631 482/482
f 457/457 63/63 613/613
f 487/487 472/472 533/533
f 302/302 301/301 533/533
f 533/533 581/581 487/487
f 581/581 533/533 301/301
f 632/632 633/633 634/634
f 633/633 632/632 635/635
f 303/303 474/474 571/571
f 635/635 619/619 614/614
f 619/619 635/635 570/570
f 489/489 487/487 636/636
f 636/636 637/637 489/489
f 637/637 636/636 638/638
f 461/461 53/53 577/577
f 494/494 519/519 522/522
f 519/519 494/494 521/521
f 40/40 493/493 39/39
f 40/40 524/524 520/520
f 524/524 40/40 498/498
f 509/509 511/511 497/497
f 513/513 510/510 535/535
f 510/510 513/513 514/514
f 511/511 496/496 497/497
f 496/496 511/511 502/502
f 491/491 506/506 28/28
f 506/506 491/491 490/490
f 475/475 576/576 476/476
f 576/576 475/475 85/85
f 444/444 507/507 504/504
f 25/25 574/574 491/491
f 491/491 28/28 25/25
f 576/576 85/85 86/86
f 500/500 502/502 537/537
f 508/508 503/503 502/502
f 502/502 511/511 537/537
f 518/518 465/465 462/462
f 463/463 465/465 58/58
f 518/518 512/512 516/516
f 512/512 518/518 462/462
f 37/37 516/516 512/512
f 464/464 512/512 462/462
f 37/37 36/36 517/517
f 611/611 622/622 609/609
f 622/622 611/611 545/545
f 484/484 606/606 611/611
f 609/609 623/623 616/616
f 623/623 609/609 622/622
f 639/639 621/621 602/602
f 621/621 639/639 623/623
f 623/623 640/640 568/568
f 640/640 623/623 587/587
f 538/538 245/245 617/617
f 641/641 538/538 640/640
f 538/538 641/641 539/539
f 539/539 642/642 563/563
f 642/642 539/539 641/641
f 588/588 589/589 560/560
f 589/589 588/588 601/601
f 386/386 599/599 384/384
f 453/453 455/455 569/569
f 643/643 644/644 633/633
f 644/644 643/643 645/645
f 614/614 455/455 454/454
f 618/618 614/614 619/619
f 614/614 618/618 479/479
f 571/571 474/474 620/620
f 576/576 573/573 476/476
f 573/573 576/576 575/575
f 643/643 635/635 646/646
f 635/635 643/643 633/633
f 487/487 581/581 647/647
f 619/619 570/570 571/571
f 581/581 570/570 632/632
f 580/580 578/578 643/643
f 454/454 580/580 646/646
f 580/580 454/454 456/456
f 579/579 245/245 572/572
f 573/573 645/645 578/578
f 645/645 573/573 575/575
f 25/25 648/648 575/575
f 648/648 25/25 649/649
f 581/581 632/632 647/647
f 645/645 648/648 650/650
f 648/648 645/645 575/575
f 647/647 636/636 487/487
f 524/524 24/24 21/21
f 24/24 524/524 498/498
f 40/40 520/520 521/521
f 45/45 39/39 493/493
f 486/486 415/415 412/412
f 50/50 35/35 464/464
f 497/497 65/65 509/509
f 526/526 68/68 77/77
f 69/69 428/428 530/530
f 428/428 69/69 396/396
f 371/371 331/331 328/328
f 331/331 371/371 378/378
f 344/344 331/331 378/378
f 165/165 160/160 92/92
f 119/119 113/113 146/146
f 145/145 151/151 144/144
f 151/151 112/112 109/109
f 147/147 146/146 551/551
f 93/93 156/156 158/158
f 156/156 93/93 155/155
f 167/167 235/235 231/231
f 161/161 96/96 159/159
f 203/203 210/210 202/202
f 223/223 555/555 222/222
f 172/172 214/214 556/556
f 213/213 229/229 230/230
f 231/231 235/235 237/237
f 248/248 241/241 553/553
f 245/245 247/247 572/572
f 561/561 297/297 298/298
f 250/250 477/477 249/249
f 299/299 258/258 252/252
f 256/256 558/558 567/567
f 295/295 278/278 557/557
f 283/283 279/279 294/294
f 328/328 335/335 372/372
f 374/374 353/353 88/88
f 362/362 351/351 348/348
f 89/89 350/350 87/87
f 386/386 372/372 542/542
f 376/376 598/598 651/651
f 90/90 87/87 383/383
f 377/377 651/651 383/383
f 651/651 377/377 376/376
f 651/651 598/598 546/546
f 383/383 651/651 546/546
f 376/376 371/371 373/373
f 380/380 540/540 437/437
f 540/540 380/380 382/382
f 380/380 437/437 429/429
f 598/598 385/385 596/596
f 601/601 384/384 599/599
f 304/304 546/546 307/307
f 603/603 391/391 408/408
f 391/391 603/603 401/401
f 527/527 605/605 400/400
f 411/411 406/406 604/604
f 608/608 419/419 47/47
f 382/382 48/48 540/540
f 540/540 48/48 47/47
f 426/426 427/427 431/431
f 452/452 466/466 450/450
f 450/450 466/466 630/630
f 580/580 456/456 579/579
f 617/617 453/453 538/538
f 453/453 617/617 456/456
f 451/451 440/440 486/486
f 649/649 25/25 27/27
f 652/652 650/650 653/653
f 650/650 652/652 654/654
f 650/650 648/648 649/649
f 482/482 451/451 480/480
f 482/482 479/479 618/618
f 485/485 615/615 481/481
f 615/615 485/485 610/610
f 50/50 464/464 463/463
f 535/535 58/58 465/465
f 502/502 503/503 496/496
f 490/490 492/492 508/508
f 507/507 490/490 508/508
f 490/490 507/507 506/506
f 86/86 491/491 574/574
f 506/506 446/446 28/28
f 514/514 500/500 537/537
f 522/522 517/517 494/494
f 517/517 522/522 515/515
f 430/430 78/78 532/532
f 430/430 532/532 381/381
f 655/655 637/637 638/638
f 637/637 655/655 577/577
f 72/72 402/402 536/536
f 583/583 656/656 593/593
f 656/656 583/583 642/642
f 539/539 562/562 246/246
f 599/599 592/592 601/601
f 592/592 599/599 541/541
f 545/545 543/543 621/621
f 602/602 621/621 543/543
f 602/602 543/543 547/547
f 548/548 547/547 531/531
f 602/602 547/547 549/549
f 99/99 103/103 552/552
f 552/552 103/103 153/153
f 210/210 225/225 213/213
f 225/225 210/210 238/238
f 280/280 559/559 557/557
f 559/559 280/280 565/565
f 26/26 534/534 655/655
f 563/563 642/642 583/583
f 583/583 593/593 582/582
f 309/309 567/567 582/582
f 623/623 568/568 616/616
f 538/538 568/568 640/640
f 576/576 86/86 574/574
f 577/577 489/489 637/637
f 655/655 534/534 577/577
f 593/593 656/656 586/586
f 585/585 587/587 639/639
f 586/586 656/656 584/584
f 602/602 594/594 585/585
f 602/602 585/585 639/639
f 483/483 484/484 611/611
f 449/449 631/631 613/613
f 606/606 545/545 611/611
f 624/624 413/413 627/627
f 47/47 49/49 608/608
f 46/46 624/624 49/49
f 49/49 624/624 657/657
f 608/608 49/49 658/658
f 570/570 635/635 632/632
f 646/646 614/614 454/454
f 614/614 646/646 635/635
f 580/580 643/643 646/646
f 652/652 653/653 659/659
f 623/623 639/639 587/587
f 641/641 587/587 660/660
f 587/587 641/641 640/640
f 482/482 618/618 612/612
f 618/618 620/620 612/612
f 650/650 27/27 653/653
f 27/27 650/650 649/649
f 27/27 26/26 655/655
f 578/578 645/645 643/643
f 645/645 650/650 654/654
f 642/642 661/661 656/656
f 584/584 656/656 661/661
f 657/657 624/624 626/626
f 424/424 425/425 628/628
f 418/418 629/629 425/425
f 629/629 417/417 608/608
f 658/658 49/49 657/657
f 642/642 641/641 660/660
f 660/660 587/587 584/584
f 317/317 325/325 590/590
f 591/591 322/322 590/590
f 473/473 620/620 474/474
f 27/27 655/655 662/662
f 653/653 27/27 662/662
f 659/659 654/654 652/652
f 644/644 645/645 654/654
