# Exported from jia_puppet.mdl by laobamac MDL Parser
mtllib jia.mtl
v -89.000000 -206.333328 0.000000
v -98.222229 -218.444427 0.000000
v -77.222229 -215.444427 0.000000
v -102.000000 -204.777771 0.000000
v -108.000000 -282.000000 0.000000
v -100.000000 -289.000000 0.000000
v -99.666672 -286.000000 0.000000
v -102.666672 -279.333344 0.000000
v -109.000000 -269.000000 0.000000
v -50.000000 -211.000000 0.000000
v -57.548004 -244.522003 0.000000
v -50.182663 -247.174011 0.000000
v -66.738220 -228.174011 0.000000
v -115.000000 -256.000000 0.000000
v -105.111099 -256.777771 0.000000
v -113.000000 -220.000000 0.000000
v -106.888901 -235.000000 0.000000
v -77.888870 -171.222214 0.000000
v -81.333328 -185.333328 0.000000
v -64.555542 -189.222214 0.000000
v -91.777771 -176.777771 0.000000
v -104.000000 -188.000000 0.000000
v -40.000000 -123.000000 0.000000
v -42.333328 -135.333328 0.000000
v -40.000000 -137.000000 0.000000
v -49.666672 -125.666672 0.000000
v -90.000000 -157.000000 0.000000
v 123.000000 -61.000000 0.000000
v 121.333344 -51.000000 0.000000
v 117.444458 -54.333344 0.000000
v 131.000000 -58.333344 0.000000
v -62.000000 -108.000000 0.000000
v -72.777771 -134.000000 0.000000
v 88.388885 29.500000 0.000000
v 90.500000 44.500000 0.000000
v 83.722198 38.277802 0.000000
v 96.000000 19.000000 0.000000
v -48.000000 -69.000000 0.000000
v -52.555557 -89.777771 0.000000
v 133.777802 94.777802 0.000000
v 124.000000 89.666656 0.000000
v 139.000000 90.000000 0.000000
v 125.000000 93.000000 0.000000
v -36.250000 -42.500000 0.000000
v -34.166672 -59.111084 0.000000
v 163.000000 167.333344 0.000000
v 155.000000 179.000000 0.000000
v 157.888885 164.888885 0.000000
v 173.000000 167.000000 0.000000
v -24.500000 -16.000000 0.000000
v -32.777771 -41.722198 0.000000
v -12.750000 10.500000 0.000000
v -13.138901 -4.333344 0.000000
v 141.333344 159.000000 0.000000
v 132.111115 166.444458 0.000000
v 131.111115 154.111115 0.000000
v 141.333344 169.777771 0.000000
v -6.875000 23.750000 0.000000
v -4.861099 21.388885 0.000000
v 128.000000 103.000000 0.000000
v 137.333344 101.333344 0.000000
v -1.000000 37.000000 0.000000
v 7.055557 27.555542 0.000000
v 4.750000 46.750000 0.000000
v 9.777802 44.777802 0.000000
v 165.888885 133.222198 0.000000
v 173.000000 132.000000 0.000000
v 173.555542 138.888885 0.000000
v 167.222198 126.777802 0.000000
v 10.500000 56.500000 0.000000
v 38.363922 145.868073 0.000000
v 53.808350 147.534760 0.000000
v 44.666656 155.333344 0.000000
v 44.283417 139.291718 0.000000
v 16.250000 66.250000 0.000000
v 17.333344 63.000000 0.000000
v 94.000000 93.500000 0.000000
v 100.000000 106.500000 0.000000
v 90.666656 104.500000 0.000000
v 103.333344 95.500000 0.000000
v 12.777771 150.111115 0.000000
v 12.888885 159.777802 0.000000
v 1.777771 150.777802 0.000000
v 17.500000 158.500000 0.000000
v 22.000000 76.000000 0.000000
v 26.222198 68.222198 0.000000
v 35.000000 159.000000 0.000000
v 43.722198 160.166656 0.000000
v 41.277802 168.055542 0.000000
v -1.000000 167.333344 0.000000
v 9.000000 168.000000 0.000000
v 0.500000 177.500000 0.000000
v 3.666672 162.333344 0.000000
v 19.873322 80.962280 0.000000
v 22.251068 81.969391 0.000000
v 19.000000 83.000000 0.000000
v 21.124939 82.958191 0.000000
v -14.388901 141.555573 0.000000
v -7.000000 151.000000 0.000000
v -15.625000 150.750000 0.000000
v -2.777786 140.444458 0.000000
v 12.000000 77.750000 0.000000
v 6.777771 87.555542 0.000000
v -101.777771 106.888885 0.000000
v -97.444443 118.333344 0.000000
v -105.000000 122.000000 0.000000
v -95.333328 108.666656 0.000000
v 5.000000 72.500000 0.000000
v 7.333328 78.722198 0.000000
v -97.555557 79.666656 0.000000
v -89.777786 71.111115 0.000000
v -87.666672 79.000000 0.000000
v -100.000000 70.000000 0.000000
v -2.000000 67.250000 0.000000
v -2.000000 71.722198 0.000000
v -49.666672 50.000000 0.000000
v -60.000000 51.000000 0.000000
v -51.000000 40.000000 0.000000
v -53.444443 57.777802 0.000000
v -9.000000 62.000000 0.000000
v -12.444443 73.555542 0.000000
v -79.666672 93.666656 0.000000
v -93.333328 97.444427 0.000000
v -90.777786 87.555542 0.000000
v -83.666672 105.444427 0.000000
v -30.000000 51.000000 0.000000
v -21.777771 63.666656 0.000000
v -69.444443 47.555542 0.000000
v -78.444443 45.888885 0.000000
v -75.000000 38.000000 0.000000
v -73.333328 53.666656 0.000000
v -39.666672 50.000000 0.000000
v -59.000000 146.888885 0.000000
v -68.166672 141.222198 0.000000
v -59.500000 141.666656 0.000000
v -58.750000 149.500000 0.000000
v -62.000000 43.000000 0.000000
v -84.222214 128.666656 0.000000
v -92.000000 124.333344 0.000000
v -82.777771 121.111115 0.000000
v -89.111099 132.666656 0.000000
v -87.000000 46.000000 0.000000
v -38.000000 59.000000 0.000000
v -89.555557 60.111115 0.000000
v -75.111130 83.222198 0.000000
v -58.000000 77.000000 0.000000
v -67.000000 95.500000 0.000000
v -75.777786 73.444458 0.000000
v -105.000000 90.000000 0.000000
v -31.444443 62.666656 0.000000
v -95.000000 137.000000 0.000000
v -97.333328 127.777802 0.000000
v -32.875000 150.250000 0.000000
v -37.277786 142.111115 0.000000
v -30.638901 147.611115 0.000000
v -41.500000 150.000000 0.000000
v -76.000000 149.000000 0.000000
v -83.777771 140.888885 0.000000
v -2.000000 80.666656 0.000000
v -14.777771 85.222198 0.000000
v -26.166672 142.333344 0.000000
v -19.138901 147.944458 0.000000
v -24.250000 150.500000 0.000000
v -48.388901 141.888885 0.000000
v -16.000000 97.000000 0.000000
v -32.111099 83.333344 0.000000
v -4.888901 92.222198 0.000000
v 3.333328 99.000000 0.000000
v 13.097748 92.771759 0.000000
v 21.251068 84.302734 0.000000
v -26.222229 179.666687 0.000000
v -22.388901 170.888916 0.000000
v -18.222229 183.000000 0.000000
v -25.750000 170.500000 0.000000
v 8.666656 139.000000 0.000000
v -55.000000 219.000000 0.000000
v -50.000000 217.000000 0.000000
v -48.666672 223.333313 0.000000
v -53.000000 207.000000 0.000000
v -13.250000 157.500000 0.000000
v -7.611099 159.111115 0.000000
v -19.500000 164.000000 0.000000
v -10.500000 166.000000 0.000000
v -39.444443 201.222168 0.000000
v -42.500000 192.000000 0.000000
v -45.777771 210.111084 0.000000
v -42.111099 216.111084 0.000000
v -42.000000 225.000000 0.000000
v -32.000000 177.000000 0.000000
v -38.666672 191.444397 0.000000
v -30.111099 200.888855 0.000000
v -34.333328 206.333313 0.000000
v -21.333328 194.444397 0.000000
v -31.000000 190.333313 0.000000
v -49.000000 226.000000 0.000000
v -33.500000 215.500000 0.000000
v -4.888901 175.555603 0.000000
v -15.666672 171.666687 0.000000
v -25.000000 206.000000 0.000000
v -33.777771 212.444397 0.000000
v -8.000000 187.000000 0.000000
v 26.000000 149.000000 0.000000
v 24.030609 139.423615 0.000000
v 46.176514 89.596008 0.000000
v 53.302246 87.265778 0.000000
v 53.275391 89.812683 0.000000
v 52.000000 84.000000 0.000000
v 75.659058 86.425446 0.000000
v 70.758453 95.937592 0.000000
v 66.159058 85.425446 0.000000
v 79.000000 97.000000 0.000000
v 99.666656 149.000000 0.000000
v 95.000000 138.111115 0.000000
v 102.666656 136.444458 0.000000
v 87.333344 146.333344 0.000000
v 95.000000 153.444458 0.000000
v 104.333344 151.111115 0.000000
v 103.000000 163.000000 0.000000
v 33.000000 152.000000 0.000000
v 32.141724 143.756958 0.000000
v 29.444458 200.888855 0.000000
v 25.500000 211.833313 0.000000
v 22.250000 205.361084 0.000000
v 35.277802 207.722229 0.000000
v 33.388916 189.944397 0.000000
v 39.333344 197.333313 0.000000
v 23.500000 193.500000 0.000000
v 100.666656 256.777771 0.000000
v 105.666656 261.555603 0.000000
v 99.666656 263.666687 0.000000
v 110.333344 249.666687 0.000000
v 32.125000 167.625000 0.000000
v 109.777802 222.111084 0.000000
v 110.444458 234.555603 0.000000
v 101.000000 231.000000 0.000000
v 120.000000 223.000000 0.000000
v 29.250000 176.250000 0.000000
v 33.861115 171.416687 0.000000
v 36.333344 261.333313 0.000000
v 31.000000 268.333313 0.000000
v 26.333344 263.000000 0.000000
v 40.666656 265.000000 0.000000
v 30.027802 182.916687 0.000000
v 36.444427 272.777771 0.000000
v 17.750000 210.750000 0.000000
v 21.333344 252.666687 0.000000
v 32.222260 254.666687 0.000000
v 14.000000 262.000000 0.000000
v 12.000000 228.000000 0.000000
v 18.416656 216.861084 0.000000
v 11.000000 246.000000 0.000000
v 14.555542 238.444397 0.000000
v 107.000000 271.333313 0.000000
v 119.000000 269.000000 0.000000
v 114.000000 280.000000 0.000000
v 112.111115 263.333313 0.000000
v 15.444458 253.555603 0.000000
v 85.333344 284.000000 0.000000
v 80.777802 274.222229 0.000000
v 91.444458 276.000000 0.000000
v 73.777802 284.222229 0.000000
v 26.000000 277.000000 0.000000
v 22.111115 267.333313 0.000000
v 42.666656 276.333313 0.000000
v 45.111084 267.444397 0.000000
v 50.333344 273.222168 0.000000
v 50.000000 291.000000 0.000000
v 39.555542 281.444397 0.000000
v 44.000000 257.000000 0.000000
v 52.000000 261.000000 0.000000
v 67.000000 295.000000 0.000000
v 57.777802 289.444397 0.000000
v 39.000000 250.000000 0.000000
v 101.000000 292.000000 0.000000
v 84.444458 290.333313 0.000000
v 105.333344 283.666687 0.000000
v 41.000000 214.000000 0.000000
v 32.388885 218.833313 0.000000
v 40.000000 232.000000 0.000000
v 53.500000 184.500000 0.000000
v 47.444458 176.555542 0.000000
v 54.916656 173.472229 0.000000
v 43.388916 186.944397 0.000000
v 119.500000 246.000000 0.000000
v 81.000000 181.000000 0.000000
v 81.666656 167.000000 0.000000
v 86.777740 176.777771 0.000000
v 73.500000 168.000000 0.000000
v 114.000000 201.000000 0.000000
v 114.111115 212.111084 0.000000
v 37.333344 179.000000 0.000000
v 106.000000 183.000000 0.000000
v 105.111115 194.111084 0.000000
v 117.333344 97.333344 0.000000
v 123.500000 88.000000 0.000000
v 108.000000 86.000000 0.000000
v 102.000000 174.000000 0.000000
v 100.555542 176.777771 0.000000
v 158.000000 126.000000 0.000000
v 145.000000 111.000000 0.000000
v 155.000000 113.333344 0.000000
v 98.000000 165.000000 0.000000
v 92.444427 171.444397 0.000000
v 180.000000 127.000000 0.000000
v 170.666656 122.333344 0.000000
v 162.000000 103.000000 0.000000
v 164.666656 114.333344 0.000000
v 155.222198 105.888916 0.000000
v 174.000000 114.000000 0.000000
v 110.666656 98.666656 0.000000
v 110.500000 167.000000 0.000000
v 111.777802 155.222260 0.000000
v 31.388885 61.722198 0.000000
v 19.500000 56.500000 0.000000
v 25.611115 51.277802 0.000000
v 118.000000 171.000000 0.000000
v 114.333344 165.111115 0.000000
v 75.222198 39.111115 0.000000
v 82.000000 45.333344 0.000000
v 72.444458 52.444458 0.000000
v 133.000000 179.000000 0.000000
v 124.333344 170.444458 0.000000
v 145.888885 176.444397 0.000000
v -5.250000 6.555542 0.000000
v -2.166672 -7.500000 0.000000
v 181.000000 143.000000 0.000000
v 171.666656 155.333344 0.000000
v 108.333344 -23.666656 0.000000
v 98.444458 -23.555542 0.000000
v 103.444458 -32.111115 0.000000
v 103.777802 -16.888885 0.000000
v 149.888885 98.111115 0.000000
v 63.000000 62.500000 0.000000
v 70.333344 65.000000 0.000000
v 65.000000 47.000000 0.000000
v 70.209290 76.737671 0.000000
v 68.670593 76.994141 0.000000
v 67.131927 77.250580 0.000000
v 69.191132 76.816528 0.000000
v 64.043793 88.661530 0.000000
v 58.500000 81.000000 0.000000
v 56.377106 84.328217 0.000000
v 90.000000 116.166656 0.000000
v 84.000000 110.166656 0.000000
v 54.784576 85.328217 0.000000
v 56.000000 84.000000 0.000000
v 53.722412 84.000000 0.000000
v 80.000000 101.000000 0.000000
v 49.486328 107.895966 0.000000
v 40.246063 92.592773 0.000000
v 72.394531 104.069489 0.000000
v 87.000000 84.000000 0.000000
v 85.596161 74.173187 0.000000
v 77.857788 78.816528 0.000000
v 79.441406 75.198975 0.000000
v 16.611115 51.277802 0.000000
v 19.833344 40.833344 0.000000
v 85.000000 70.000000 0.000000
v -0.833328 16.666656 0.000000
v 87.750000 57.250000 0.000000
v 79.111115 60.111115 0.000000
v 87.222198 0.222198 0.000000
v 93.000000 -13.000000 0.000000
v 98.888885 -7.444458 0.000000
v 87.333344 -12.666656 0.000000
v 85.833344 53.277802 0.000000
v 112.333344 -43.555542 0.000000
v 121.000000 -41.000000 0.000000
v 113.777802 -36.333344 0.000000
v 116.777802 -47.666656 0.000000
v 103.000000 2.500000 0.000000
v 99.888885 3.222198 0.000000
v 112.333344 -29.333344 0.000000
v 108.000000 -38.666656 0.000000
v 110.000000 -14.000000 0.000000
v 128.333344 -44.666656 0.000000
v 131.000000 -52.000000 0.000000
v 121.000000 -23.000000 0.000000
v 137.000000 -54.000000 0.000000
v 133.000000 -60.000000 0.000000
v 122.000000 -31.000000 0.000000
v -26.888901 -78.638885 0.000000
v -19.000000 -67.750000 0.000000
v -28.666672 -68.166656 0.000000
v -26.000000 -83.875000 0.000000
v 133.000000 -41.000000 0.000000
v -44.333328 -114.333328 0.000000
v -52.000000 -116.000000 0.000000
v -46.500000 -248.500000 0.000000
v -42.000000 -106.666672 0.000000
v -50.555557 -102.333328 0.000000
v -49.444443 -109.666672 0.000000
v -40.888901 -99.666672 0.000000
v -24.500000 -58.694427 0.000000
v -16.611099 -47.805542 0.000000
v 108.000000 -51.000000 0.000000
v -10.555557 -19.666656 0.000000
v 94.000000 -34.000000 0.000000
v 103.333344 -41.222198 0.000000
v 84.500000 -12.500000 0.000000
v 93.666656 4.666656 0.000000
v 88.222198 10.888885 0.000000
v 13.944458 35.611115 0.000000
v 23.000000 29.000000 0.000000
v 75.000000 9.000000 0.000000
v 83.222198 17.666656 0.000000
v 70.000000 28.000000 0.000000
v 72.888885 27.000000 0.000000
v 78.666656 25.000000 0.000000
v 30.708862 77.049561 0.000000
v 37.837250 80.911591 0.000000
v 32.959961 82.981964 0.000000
v 37.166656 72.166656 0.000000
v 77.198730 74.057739 0.000000
v 61.000000 78.000000 0.000000
v 62.302246 91.599121 0.000000
v 60.977173 78.276367 0.000000
v 48.375000 77.125000 0.000000
v 44.750000 70.250000 0.000000
v 54.176880 85.992310 0.000000
v 54.631348 87.984650 0.000000
v 43.385101 87.586182 0.000000
v 46.711700 80.612061 0.000000
v 60.667603 98.894196 0.000000
v 66.425140 115.270905 0.000000
v 66.495270 100.935883 0.000000
v 22.376587 84.954102 0.000000
v 53.451263 85.328217 0.000000
v 37.500000 56.500000 0.000000
v 30.250000 42.750000 0.000000
v 26.777802 42.111115 0.000000
v 9.000000 -3.250000 0.000000
v 10.388885 14.138885 0.000000
v 0.611099 -15.416656 0.000000
v 2.000000 -19.375000 0.000000
v -18.444443 -30.555542 0.000000
v -25.833328 -40.166656 0.000000
v -5.000000 -35.500000 0.000000
v -36.444458 -86.833344 0.000000
v -41.444458 -76.500000 0.000000
v -33.000000 -100.000000 0.000000
v -31.000000 -112.000000 0.000000
v -54.333328 -136.222229 0.000000
v -58.555542 -151.444443 0.000000
v -47.000000 -146.000000 0.000000
v -66.333328 -137.000000 0.000000
v -72.888870 -155.111099 0.000000
v -73.444443 -200.888870 0.000000
v -48.500000 -178.500000 0.000000
v -53.111099 -176.111099 0.000000
v -98.333328 -268.000000 0.000000
v -94.555542 -256.666656 0.000000
v -99.666672 -243.444458 0.000000
v -91.000000 -287.000000 0.000000
v -80.858444 -282.857544 0.000000
v -92.333328 -274.000000 0.000000
v -80.333328 -291.666656 0.000000
v -43.000000 -286.000000 0.000000
v -51.919327 -266.697998 0.000000
v -50.514450 -281.968445 0.000000
v -55.209991 -269.572021 0.000000
v -48.000000 -290.000000 0.000000
v -58.736649 -283.079559 0.000000
v -64.706223 -276.270447 0.000000
v -69.000000 -295.000000 0.000000
v -53.333328 -290.333344 0.000000
v -83.333328 -255.666656 0.000000
v -81.858444 -270.857544 0.000000
v -70.707779 -256.698212 0.000000
v -81.000000 -293.000000 0.000000
v -77.404892 -248.507324 0.000000
v -92.666672 -229.000000 0.000000
v -91.333328 -245.333344 0.000000
v -67.666672 -289.333344 0.000000
v -61.333328 -261.333344 0.000000
v -80.515991 -239.618439 0.000000
v -62.333328 -171.333328 0.000000
v -91.444443 -193.222214 0.000000
v -59.333328 -123.555557 0.000000
v 122.000000 161.333344 0.000000
v -47.666672 -92.333328 0.000000
v 120.777802 148.222260 0.000000
v 130.000000 142.000000 0.000000
v 118.111115 137.944458 0.000000
v 159.500000 141.000000 0.000000
v 166.666656 141.666656 0.000000
v 2.000000 1.972198 0.000000
v 149.666656 171.333313 0.000000
v 150.666656 162.111084 0.000000
v -10.000000 131.333344 0.000000
v 106.000000 124.750000 0.000000
v 88.888885 130.111115 0.000000
v 98.000000 119.000000 0.000000
v 75.919525 113.756958 0.000000
v 66.000000 155.000000 0.000000
v 66.030609 137.423615 0.000000
v 78.222260 142.111115 0.000000
v 24.879883 88.945953 0.000000
v 37.425140 130.270905 0.000000
v 24.950073 129.291718 0.000000
v 39.077637 89.379333 0.000000
v 17.572784 110.639862 0.000000
v 16.959961 96.315308 0.000000
v 24.701172 104.501923 0.000000
v 9.097748 104.105103 0.000000
v 30.780884 92.303833 0.000000
v 31.978760 89.162659 0.000000
v 7.000000 117.000000 0.000000
v 1.944443 107.666656 0.000000
v -80.666672 54.666656 0.000000
v -81.666672 64.333344 0.000000
v -72.444443 60.444458 0.000000
v -65.222214 56.000000 0.000000
v -54.888901 133.888885 0.000000
v -44.166672 134.000000 0.000000
v -51.444443 65.777802 0.000000
v -62.333328 63.333344 0.000000
v -67.333328 68.222260 0.000000
v -71.222229 94.888885 0.000000
v -61.000000 126.000000 0.000000
v -63.166672 133.555542 0.000000
v -69.000000 133.000000 0.000000
v -87.777771 115.666656 0.000000
v -80.333328 125.000000 0.000000
v -76.000000 114.000000 0.000000
v -75.111099 139.555542 0.000000
v -76.555542 131.555542 0.000000
v -80.333328 136.666656 0.000000
v -26.333328 78.000000 0.000000
v -39.444443 70.666656 0.000000
v -22.055557 133.222260 0.000000
v -30.000000 126.000000 0.000000
v -17.166672 126.277802 0.000000
v -33.444458 134.111115 0.000000
v -5.722229 101.000000 0.000000
v 1.888870 129.111115 0.000000
v 89.000000 159.444458 0.000000
v 78.333344 156.111115 0.000000
v 50.758453 132.270905 0.000000
v 38.980682 127.048676 0.000000
v 48.647339 122.048676 0.000000
v 66.172333 124.180573 0.000000
v 97.666656 182.333313 0.000000
v 99.666656 187.888855 0.000000
v 22.722198 223.500000 0.000000
v 101.111115 245.888916 0.000000
v 116.444458 247.222229 0.000000
v 49.666656 283.222168 0.000000
v 56.333344 282.333313 0.000000
v 21.111084 233.333313 0.000000
v 20.666656 241.333313 0.000000
v 30.111115 240.666687 0.000000
v 30.666656 230.666687 0.000000
v 27.000000 248.000000 0.000000
v 96.222198 269.222229 0.000000
v 108.333344 212.333313 0.000000
v 91.000000 213.000000 0.000000
v 98.222260 207.888855 0.000000
v 100.111115 218.777771 0.000000
v 89.111115 197.444397 0.000000
v 101.000000 279.000000 0.000000
v 95.777802 285.000000 0.000000
v 70.000000 263.000000 0.000000
v 69.666656 266.555603 0.000000
v 88.000000 265.000000 0.000000
v 92.000000 257.000000 0.000000
v 69.000000 273.666687 0.000000
v 64.111115 283.666687 0.000000
v 59.111115 272.333313 0.000000
v 105.888916 203.888855 0.000000
v 95.333344 198.333313 0.000000
v 91.333344 187.222168 0.000000
v 54.055542 158.833344 0.000000
v 51.500000 166.166656 0.000000
v 59.750000 169.750000 0.000000
v 110.333344 141.333344 0.000000
v 114.000000 130.500000 0.000000
v 108.000000 107.000000 0.000000
v 148.666656 101.333344 0.000000
v 173.111084 146.666656 0.000000
v 161.000000 156.000000 0.000000
v 153.250000 152.500000 0.000000
v 73.286682 76.224792 0.000000
v 53.949646 84.996155 0.000000
v 81.333344 125.000000 0.000000
v 76.364044 75.711884 0.000000
v -71.242004 -269.906006 0.000000
v 28.758453 118.604248 0.000000
v 14.808380 124.868073 0.000000
v 36.806305 102.334381 0.000000
v 28.385101 98.586212 0.000000
v -73.080673 -283.635345 0.000000
v 36.888885 231.555603 0.000000
v 116.000000 103.000000 0.000000
v 149.277802 154.666656 0.000000
v 145.500000 149.000000 0.000000
v 166.444427 151.000000 0.000000
v -70.000000 124.000000 0.000000
v -11.500000 121.500000 0.000000
v -45.055557 128.666656 0.000000
v 107.444458 130.277802 0.000000
v -54.000000 75.000000 0.000000
v 91.500000 235.000000 0.000000
v 94.666656 233.666687 0.000000
v 86.000000 197.000000 0.000000
v 42.627075 89.487671 0.000000
v 138.944458 150.000000 0.000000
v 160.250000 148.500000 0.000000
v 1.250000 112.000000 0.000000
v -4.833328 123.277802 0.000000
v -35.000000 86.000000 0.000000
v -2.250000 119.250000 0.000000
v 47.250000 199.250000 0.000000
v 44.611115 198.611084 0.000000
v 62.875000 162.375000 0.000000
v 59.083344 163.638885 0.000000
v -4.500000 107.000000 0.000000
vt 0.314583 0.807960
vt 0.295370 0.826036
vt 0.339120 0.821559
vt 0.287500 0.805638
vt 0.275000 0.920896
vt 0.291667 0.931343
vt 0.292361 0.926866
vt 0.286111 0.916915
vt 0.272917 0.901493
vt 0.395833 0.814925
vt 0.380108 0.864958
vt 0.395453 0.868916
vt 0.360962 0.840558
vt 0.260417 0.882090
vt 0.281019 0.883250
vt 0.264583 0.828358
vt 0.277315 0.850746
vt 0.337732 0.755556
vt 0.330556 0.776617
vt 0.365509 0.782421
vt 0.308796 0.763847
vt 0.283333 0.780597
vt 0.416667 0.683582
vt 0.411806 0.701990
vt 0.416667 0.704478
vt 0.396528 0.687562
vt 0.312500 0.734328
vt 0.756250 0.591045
vt 0.752778 0.576119
vt 0.744676 0.581095
vt 0.772917 0.587065
vt 0.370833 0.661194
vt 0.348380 0.700000
vt 0.684143 0.455970
vt 0.688542 0.433582
vt 0.674421 0.442869
vt 0.700000 0.471642
vt 0.400000 0.602985
vt 0.390509 0.633997
vt 0.778704 0.358541
vt 0.758333 0.366169
vt 0.789583 0.365672
vt 0.760417 0.361194
vt 0.424479 0.563433
vt 0.428819 0.588225
vt 0.839583 0.250249
vt 0.822917 0.232836
vt 0.828935 0.253897
vt 0.860417 0.250746
vt 0.448958 0.523881
vt 0.431713 0.562272
vt 0.473437 0.484328
vt 0.472627 0.506468
vt 0.794444 0.262687
vt 0.775231 0.251575
vt 0.773148 0.269983
vt 0.794444 0.246600
vt 0.485677 0.464552
vt 0.489873 0.468076
vt 0.766667 0.346269
vt 0.786111 0.348756
vt 0.497917 0.444776
vt 0.514699 0.458872
vt 0.509896 0.430224
vt 0.520370 0.433167
vt 0.845602 0.301161
vt 0.860417 0.302985
vt 0.861574 0.292703
vt 0.848380 0.310779
vt 0.521875 0.415672
vt 0.579925 0.282286
vt 0.612101 0.279799
vt 0.593056 0.268159
vt 0.592257 0.292102
vt 0.533854 0.401119
vt 0.536111 0.405970
vt 0.695833 0.360448
vt 0.708333 0.341045
vt 0.688889 0.344030
vt 0.715278 0.357463
vt 0.526620 0.275954
vt 0.526852 0.261526
vt 0.503704 0.274958
vt 0.536458 0.263433
vt 0.545833 0.386567
vt 0.554630 0.398176
vt 0.572917 0.262687
vt 0.591088 0.260945
vt 0.585995 0.249171
vt 0.497917 0.250249
vt 0.518750 0.249254
vt 0.501042 0.235075
vt 0.507639 0.257711
vt 0.541403 0.379161
vt 0.546356 0.377658
vt 0.539583 0.376119
vt 0.544010 0.376182
vt 0.470023 0.288723
vt 0.485417 0.274627
vt 0.467448 0.275000
vt 0.494213 0.290381
vt 0.525000 0.383955
vt 0.514120 0.369320
vt 0.287963 0.340464
vt 0.296991 0.323383
vt 0.281250 0.317910
vt 0.301389 0.337811
vt 0.510417 0.391791
vt 0.515278 0.382504
vt 0.296759 0.381095
vt 0.312963 0.393864
vt 0.317361 0.382090
vt 0.291667 0.395522
vt 0.495833 0.399627
vt 0.495833 0.392952
vt 0.396528 0.425373
vt 0.375000 0.423881
vt 0.393750 0.440298
vt 0.388657 0.413764
vt 0.481250 0.407463
vt 0.474074 0.390216
vt 0.334028 0.360199
vt 0.305556 0.354561
vt 0.310880 0.369320
vt 0.325694 0.342620
vt 0.437500 0.423881
vt 0.454630 0.404975
vt 0.355324 0.429022
vt 0.336574 0.431509
vt 0.343750 0.443284
vt 0.347222 0.419901
vt 0.417361 0.425373
vt 0.377083 0.280763
vt 0.357986 0.289221
vt 0.376042 0.288557
vt 0.377604 0.276866
vt 0.370833 0.435821
vt 0.324537 0.307960
vt 0.308333 0.314428
vt 0.327546 0.319237
vt 0.314352 0.301990
vt 0.318750 0.431343
vt 0.420833 0.411940
vt 0.313426 0.410282
vt 0.343518 0.375788
vt 0.379167 0.385075
vt 0.360417 0.357463
vt 0.342130 0.390381
vt 0.281250 0.365672
vt 0.434491 0.406468
vt 0.302083 0.295522
vt 0.297222 0.309287
vt 0.431510 0.275746
vt 0.422338 0.287894
vt 0.436169 0.279685
vt 0.413542 0.276119
vt 0.341667 0.277612
vt 0.325463 0.289718
vt 0.495833 0.379602
vt 0.469213 0.372803
vt 0.445486 0.287562
vt 0.460127 0.279187
vt 0.449479 0.275373
vt 0.399190 0.288226
vt 0.466667 0.355224
vt 0.433102 0.375622
vt 0.489815 0.362355
vt 0.506944 0.352239
vt 0.527287 0.361535
vt 0.544273 0.374175
vt 0.445370 0.231841
vt 0.453356 0.244942
vt 0.462037 0.226866
vt 0.446354 0.245522
vt 0.518056 0.292537
vt 0.385417 0.173134
vt 0.395833 0.176119
vt 0.398611 0.166667
vt 0.389583 0.191045
vt 0.472396 0.264925
vt 0.484144 0.262521
vt 0.459375 0.255224
vt 0.478125 0.252239
vt 0.417824 0.199668
vt 0.411458 0.213433
vt 0.404630 0.186401
vt 0.412269 0.177446
vt 0.412500 0.164179
vt 0.433333 0.235821
vt 0.419444 0.214262
vt 0.437269 0.200166
vt 0.428472 0.192040
vt 0.455556 0.209785
vt 0.435417 0.215920
vt 0.397917 0.162687
vt 0.430208 0.178358
vt 0.489815 0.237977
vt 0.467361 0.243781
vt 0.447917 0.192537
vt 0.429630 0.182919
vt 0.483333 0.220896
vt 0.554167 0.277612
vt 0.550064 0.291905
vt 0.596201 0.366275
vt 0.611046 0.369753
vt 0.610990 0.365951
vt 0.608333 0.374627
vt 0.657623 0.371007
vt 0.647413 0.356810
vt 0.637831 0.372499
vt 0.664583 0.355224
vt 0.707639 0.277612
vt 0.697917 0.293864
vt 0.713889 0.296352
vt 0.681944 0.281592
vt 0.697917 0.270978
vt 0.717361 0.274461
vt 0.714583 0.256716
vt 0.568750 0.273134
vt 0.566962 0.285437
vt 0.561343 0.200166
vt 0.553125 0.183831
vt 0.546354 0.193491
vt 0.573495 0.189967
vt 0.569560 0.216501
vt 0.581944 0.205473
vt 0.548958 0.211194
vt 0.709722 0.116750
vt 0.720139 0.109618
vt 0.707639 0.106468
vt 0.729861 0.127363
vt 0.566927 0.249813
vt 0.728704 0.168491
vt 0.730093 0.149917
vt 0.710417 0.155224
vt 0.750000 0.167164
vt 0.560938 0.236940
vt 0.570544 0.244154
vt 0.575694 0.109950
vt 0.564583 0.099503
vt 0.554861 0.107463
vt 0.584722 0.104478
vt 0.562558 0.226990
vt 0.575926 0.092869
vt 0.536979 0.185448
vt 0.544444 0.122886
vt 0.567130 0.119900
vt 0.529167 0.108955
vt 0.525000 0.159701
vt 0.538368 0.176327
vt 0.522917 0.132836
vt 0.530324 0.144113
vt 0.722917 0.095025
vt 0.747917 0.098507
vt 0.737500 0.082090
vt 0.733565 0.106965
vt 0.532176 0.121559
vt 0.677778 0.076119
vt 0.668287 0.090713
vt 0.690509 0.088060
vt 0.653704 0.075788
vt 0.554167 0.086567
vt 0.546065 0.100995
vt 0.588889 0.087562
vt 0.593981 0.100829
vt 0.604861 0.092206
vt 0.604167 0.065672
vt 0.582407 0.079934
vt 0.591667 0.116418
vt 0.608333 0.110448
vt 0.639583 0.059702
vt 0.620370 0.067993
vt 0.581250 0.126866
vt 0.710417 0.064179
vt 0.675926 0.066667
vt 0.719444 0.076617
vt 0.585417 0.180597
vt 0.567477 0.173383
vt 0.583333 0.153731
vt 0.611458 0.224627
vt 0.598843 0.236484
vt 0.614410 0.241086
vt 0.590394 0.220978
vt 0.748958 0.132836
vt 0.668750 0.229851
vt 0.670139 0.250746
vt 0.680787 0.236153
vt 0.653125 0.249254
vt 0.737500 0.200000
vt 0.737732 0.183416
vt 0.577778 0.232836
vt 0.720833 0.226866
vt 0.718982 0.210282
vt 0.744444 0.354726
vt 0.757292 0.368657
vt 0.725000 0.371642
vt 0.712500 0.240299
vt 0.709491 0.236153
vt 0.829167 0.311940
vt 0.802083 0.334328
vt 0.822917 0.330846
vt 0.704167 0.253731
vt 0.692593 0.244113
vt 0.875000 0.310448
vt 0.855556 0.317413
vt 0.837500 0.346269
vt 0.843056 0.329353
vt 0.823380 0.341957
vt 0.862500 0.329851
vt 0.730556 0.352736
vt 0.730208 0.250746
vt 0.732870 0.268325
vt 0.565394 0.407877
vt 0.540625 0.415672
vt 0.553356 0.423466
vt 0.745833 0.244776
vt 0.738194 0.253565
vt 0.656713 0.441625
vt 0.670833 0.432338
vt 0.650926 0.421725
vt 0.777083 0.232836
vt 0.759028 0.245605
vt 0.803935 0.236650
vt 0.489062 0.490216
vt 0.495486 0.511194
vt 0.877083 0.286567
vt 0.857639 0.268159
vt 0.725694 0.535323
vt 0.705093 0.535158
vt 0.715509 0.547927
vt 0.716204 0.525207
vt 0.812268 0.353566
vt 0.631250 0.406716
vt 0.646528 0.402985
vt 0.635417 0.429851
vt 0.646269 0.385466
vt 0.643064 0.385083
vt 0.639858 0.384701
vt 0.644148 0.385348
vt 0.633425 0.367669
vt 0.621875 0.379104
vt 0.617452 0.374137
vt 0.687500 0.326617
vt 0.675000 0.335572
vt 0.614135 0.372644
vt 0.616667 0.374627
vt 0.611922 0.374627
vt 0.666667 0.349254
vt 0.603097 0.338961
vt 0.583846 0.361802
vt 0.650822 0.344672
vt 0.681250 0.374627
vt 0.678325 0.389294
vt 0.662204 0.382363
vt 0.665503 0.387763
vt 0.534607 0.423466
vt 0.541319 0.439055
vt 0.677083 0.395522
vt 0.498264 0.475124
vt 0.682813 0.414552
vt 0.664815 0.410282
vt 0.681713 0.499668
vt 0.693750 0.519403
vt 0.706019 0.511111
vt 0.681944 0.518905
vt 0.678819 0.420481
vt 0.734028 0.565008
vt 0.752083 0.561194
vt 0.737037 0.554229
vt 0.743287 0.571144
vt 0.714583 0.496269
vt 0.708102 0.495191
vt 0.734028 0.543781
vt 0.725000 0.557711
vt 0.729167 0.520895
vt 0.767361 0.566667
vt 0.772917 0.577612
vt 0.752083 0.534328
vt 0.785417 0.580597
vt 0.777083 0.589552
vt 0.754167 0.546269
vt 0.443981 0.617371
vt 0.460417 0.601119
vt 0.440278 0.601741
vt 0.445833 0.625187
vt 0.777083 0.561194
vt 0.407639 0.670647
vt 0.391667 0.673134
vt 0.403125 0.870896
vt 0.412500 0.659204
vt 0.394676 0.652736
vt 0.396991 0.663682
vt 0.414815 0.648756
vt 0.448958 0.587604
vt 0.465394 0.571352
vt 0.725000 0.576119
vt 0.478009 0.529353
vt 0.695833 0.550746
vt 0.715278 0.561526
vt 0.676042 0.518657
vt 0.695139 0.493035
vt 0.683796 0.483748
vt 0.529051 0.446849
vt 0.547917 0.456716
vt 0.656250 0.486567
vt 0.673380 0.473632
vt 0.645833 0.458209
vt 0.651852 0.459701
vt 0.663889 0.462687
vt 0.563977 0.385001
vt 0.578828 0.379236
vt 0.568667 0.376146
vt 0.577431 0.392289
vt 0.660831 0.389466
vt 0.627083 0.383582
vt 0.629796 0.363285
vt 0.627036 0.383170
vt 0.600781 0.384888
vt 0.593229 0.395149
vt 0.612868 0.371653
vt 0.613815 0.368680
vt 0.590386 0.369274
vt 0.597316 0.379683
vt 0.626391 0.352397
vt 0.638386 0.327954
vt 0.638532 0.349349
vt 0.546618 0.373203
vt 0.611357 0.372644
vt 0.578125 0.415672
vt 0.563021 0.436194
vt 0.555787 0.437148
vt 0.518750 0.504851
vt 0.521644 0.478897
vt 0.501273 0.523010
vt 0.504167 0.528918
vt 0.461574 0.545605
vt 0.446181 0.559950
vt 0.489583 0.552985
vt 0.424074 0.629602
vt 0.413657 0.614179
vt 0.431250 0.649254
vt 0.435417 0.667164
vt 0.386806 0.703317
vt 0.378009 0.726036
vt 0.402083 0.717910
vt 0.361806 0.704478
vt 0.348148 0.731509
vt 0.346991 0.799834
vt 0.398958 0.766418
vt 0.389352 0.762852
vt 0.295139 0.900000
vt 0.303009 0.883085
vt 0.292361 0.863350
vt 0.310417 0.928358
vt 0.331545 0.922175
vt 0.307639 0.908955
vt 0.332639 0.935323
vt 0.410417 0.926866
vt 0.391835 0.898057
vt 0.394762 0.920848
vt 0.384979 0.902346
vt 0.400000 0.932836
vt 0.377632 0.922507
vt 0.365195 0.912344
vt 0.356250 0.940298
vt 0.388889 0.933333
vt 0.326389 0.881592
vt 0.329462 0.904265
vt 0.352692 0.883132
vt 0.331250 0.937313
vt 0.338740 0.870906
vt 0.306944 0.841791
vt 0.309722 0.866169
vt 0.359028 0.931841
vt 0.372222 0.890050
vt 0.332258 0.857639
vt 0.370139 0.755721
vt 0.309491 0.788391
vt 0.376389 0.684411
vt 0.754167 0.259204
vt 0.400694 0.637811
vt 0.751620 0.278773
vt 0.770833 0.288060
vt 0.746065 0.294113
vt 0.832292 0.289552
vt 0.847222 0.288557
vt 0.504167 0.497056
vt 0.811806 0.244279
vt 0.813889 0.258043
vt 0.479167 0.303980
vt 0.720833 0.313806
vt 0.685185 0.305804
vt 0.704167 0.322388
vt 0.658166 0.330213
vt 0.637500 0.268657
vt 0.637564 0.294890
vt 0.662963 0.287894
vt 0.551833 0.367245
vt 0.577969 0.305566
vt 0.551979 0.307027
vt 0.581412 0.366598
vt 0.536610 0.334866
vt 0.535333 0.356246
vt 0.551461 0.344027
vt 0.518954 0.344619
vt 0.564127 0.362233
vt 0.566622 0.366921
vt 0.514583 0.325373
vt 0.504051 0.339303
vt 0.331944 0.418408
vt 0.329861 0.403980
vt 0.349074 0.409784
vt 0.364120 0.416418
vt 0.385648 0.300166
vt 0.407986 0.300000
vt 0.392824 0.401824
vt 0.370139 0.405473
vt 0.359722 0.398176
vt 0.351620 0.358375
vt 0.372917 0.311940
vt 0.368403 0.300663
vt 0.356250 0.301493
vt 0.317130 0.327363
vt 0.332639 0.313433
vt 0.341667 0.329851
vt 0.343519 0.291708
vt 0.340509 0.303648
vt 0.332639 0.296020
vt 0.445139 0.383582
vt 0.417824 0.394527
vt 0.454051 0.301161
vt 0.437500 0.311940
vt 0.464236 0.311526
vt 0.430324 0.299834
vt 0.488079 0.349254
vt 0.503935 0.307297
vt 0.685417 0.262023
vt 0.663194 0.266998
vt 0.605747 0.302581
vt 0.581210 0.310375
vt 0.601349 0.317838
vt 0.637859 0.314656
vt 0.703472 0.227861
vt 0.707639 0.219569
vt 0.547338 0.166418
vt 0.710648 0.133002
vt 0.742593 0.131012
vt 0.603472 0.077280
vt 0.617361 0.078607
vt 0.543981 0.151741
vt 0.543056 0.139801
vt 0.562732 0.140796
vt 0.563889 0.155721
vt 0.556250 0.129851
vt 0.700463 0.098176
vt 0.725694 0.183085
vt 0.689583 0.182090
vt 0.704630 0.189718
vt 0.708565 0.173466
vt 0.685648 0.205307
vt 0.710417 0.083582
vt 0.699537 0.074627
vt 0.645833 0.107463
vt 0.645139 0.102156
vt 0.683333 0.104478
vt 0.691667 0.116418
vt 0.643750 0.091542
vt 0.633565 0.076617
vt 0.623148 0.093532
vt 0.720602 0.195688
vt 0.698611 0.203980
vt 0.690278 0.220564
vt 0.612616 0.262935
vt 0.607292 0.251990
vt 0.624479 0.246642
vt 0.729861 0.289055
vt 0.737500 0.305224
vt 0.725000 0.340299
vt 0.809722 0.348756
vt 0.860648 0.281095
vt 0.835417 0.267164
vt 0.819271 0.272388
vt 0.652681 0.386232
vt 0.612395 0.373140
vt 0.669444 0.313433
vt 0.659092 0.386997
vt 0.351579 0.902845
vt 0.559913 0.322979
vt 0.530851 0.313630
vt 0.576680 0.347262
vt 0.559136 0.352856
vt 0.347749 0.923336
vt 0.576852 0.154395
vt 0.741667 0.346269
vt 0.810995 0.269154
vt 0.803125 0.277612
vt 0.846759 0.274627
vt 0.354167 0.314925
vt 0.476042 0.318657
vt 0.406134 0.307960
vt 0.723843 0.305556
vt 0.387500 0.388060
vt 0.690625 0.149254
vt 0.697222 0.151244
vt 0.679167 0.205970
vt 0.588806 0.366436
vt 0.789468 0.276119
vt 0.833854 0.278358
vt 0.502604 0.332836
vt 0.489931 0.316003
vt 0.427083 0.371642
vt 0.495313 0.322015
vt 0.598437 0.202612
vt 0.592940 0.203566
vt 0.630990 0.257649
vt 0.623090 0.255763
vt 0.490625 0.340299
g Default
usemtl Default
f 28/28 29/29 30/30
f 29/29 28/28 31/31
f 34/34 35/35 36/36
f 35/35 34/34 37/37
f 40/40 41/41 42/42
f 41/41 40/40 43/43
f 46/46 47/47 48/48
f 47/47 46/46 49/49
f 54/54 55/55 56/56
f 55/55 54/54 57/57
f 40/40 60/60 43/43
f 60/60 40/40 61/61
f 66/66 67/67 68/68
f 67/67 66/66 69/69
f 71/71 72/72 73/73
f 72/72 71/71 74/74
f 77/77 78/78 79/79
f 78/78 77/77 80/80
f 81/81 82/82 83/83
f 82/82 81/81 84/84
f 87/87 88/88 89/89
f 88/88 87/87 73/73
f 90/90 91/91 92/92
f 91/91 90/90 93/93
f 94/94 85/85 95/95
f 96/96 94/94 97/97
f 98/98 99/99 100/100
f 99/99 98/98 101/101
f 102/102 96/96 103/103
f 104/104 105/105 106/106
f 105/105 104/104 107/107
f 108/108 102/102 109/109
f 110/110 111/111 112/112
f 111/111 110/110 113/113
f 114/114 108/108 115/115
f 116/116 117/117 118/118
f 117/117 116/116 119/119
f 120/120 114/114 121/121
f 122/122 123/123 124/124
f 123/123 122/122 125/125
f 126/126 120/120 127/127
f 128/128 129/129 130/130
f 129/129 128/128 131/131
f 118/118 126/126 132/132
f 133/133 134/134 135/135
f 134/134 133/133 136/136
f 130/130 118/118 137/137
f 138/138 139/139 140/140
f 139/139 138/138 141/141
f 142/142 130/130 129/129
f 143/143 132/132 126/126
f 132/132 143/143 116/116
f 113/113 142/142 144/144
f 145/145 146/146 147/147
f 146/146 145/145 148/148
f 149/149 113/113 110/110
f 106/106 149/149 104/104
f 150/150 126/126 127/127
f 126/126 150/150 143/143
f 151/151 106/106 152/152
f 153/153 154/154 155/155
f 154/154 153/153 156/156
f 157/157 151/151 158/158
f 159/159 121/121 115/115
f 121/121 159/159 160/160
f 136/136 157/157 134/134
f 161/161 162/162 163/163
f 162/162 161/161 98/98
f 156/156 136/136 164/164
f 160/160 165/165 166/166
f 165/165 160/160 167/167
f 103/103 109/109 102/102
f 109/109 103/103 159/159
f 163/163 153/153 155/155
f 103/103 168/168 167/167
f 168/168 103/103 169/169
f 100/100 163/163 162/162
f 169/169 96/96 170/170
f 96/96 169/169 103/103
f 171/171 172/172 173/173
f 172/172 171/171 174/174
f 83/83 175/175 81/81
f 175/175 83/83 101/101
f 176/176 177/177 178/178
f 177/177 176/176 179/179
f 180/180 99/99 181/181
f 182/182 180/180 183/183
f 184/184 179/179 185/185
f 179/179 184/184 186/186
f 174/174 182/182 172/172
f 178/178 187/187 188/188
f 187/187 178/178 177/177
f 189/189 174/174 171/171
f 177/177 186/186 187/187
f 186/186 177/177 179/179
f 185/185 189/189 190/190
f 191/191 184/184 190/190
f 184/184 191/191 192/192
f 193/193 194/194 173/173
f 194/194 193/193 191/191
f 195/195 176/176 178/178
f 188/188 195/195 178/178
f 196/196 188/188 187/187
f 197/197 183/183 90/90
f 183/183 197/197 198/198
f 199/199 196/196 200/200
f 183/183 180/180 181/181
f 201/201 199/199 193/193
f 197/197 90/90 92/92
f 92/92 201/201 197/197
f 81/81 202/202 84/84
f 202/202 81/81 203/203
f 204/204 205/205 206/206
f 205/205 204/204 207/207
f 84/84 91/91 82/82
f 208/208 209/209 210/210
f 209/209 208/208 211/211
f 212/212 213/213 214/214
f 213/213 212/212 215/215
f 216/216 217/217 218/218
f 217/217 216/216 212/212
f 219/219 202/202 220/220
f 221/221 222/222 223/223
f 222/222 221/221 224/224
f 87/87 219/219 73/73
f 221/221 225/225 226/226
f 225/225 221/221 227/227
f 228/228 229/229 230/230
f 229/229 228/228 231/231
f 232/232 87/87 89/89
f 233/233 234/234 235/235
f 234/234 233/233 236/236
f 237/237 232/232 238/238
f 239/239 240/240 241/241
f 240/240 239/239 242/242
f 227/227 237/237 243/243
f 240/240 242/242 244/244
f 245/245 227/227 223/223
f 241/241 246/246 247/247
f 246/246 241/241 248/248
f 249/249 245/245 250/250
f 251/251 249/249 252/252
f 253/253 254/254 255/255
f 254/254 253/253 256/256
f 248/248 251/251 257/257
f 258/258 259/259 260/260
f 259/259 258/258 261/261
f 262/262 248/248 263/263
f 264/264 265/265 266/266
f 265/265 264/264 244/244
f 267/267 262/262 268/268
f 269/269 265/265 242/242
f 265/265 269/269 270/270
f 271/271 267/267 272/272
f 239/239 269/269 242/242
f 269/269 239/239 273/273
f 274/274 271/271 275/275
f 255/255 274/274 276/276
f 277/277 278/278 224/224
f 278/278 277/277 279/279
f 280/280 281/281 282/282
f 281/281 280/280 283/283
f 284/284 254/254 256/256
f 232/232 89/89 238/238
f 236/236 284/284 234/234
f 285/285 286/286 287/287
f 286/286 285/285 288/288
f 289/289 236/236 290/290
f 291/291 89/89 281/281
f 89/89 291/291 238/238
f 292/292 289/289 293/293
f 294/294 295/295 41/41
f 295/295 294/294 296/296
f 297/297 292/292 298/298
f 299/299 300/300 301/301
f 302/302 297/297 303/303
f 67/67 304/304 68/68
f 304/304 67/67 305/305
f 306/306 307/307 308/308
f 307/307 306/306 309/309
f 218/218 302/302 216/216
f 296/296 294/294 310/310
f 311/311 218/218 312/312
f 316/316 311/311 317/317
f 318/318 319/319 320/320
f 319/319 318/318 36/36
f 321/321 316/316 322/322
f 47/47 321/321 323/323
f 326/326 49/49 327/327
f 304/304 326/326 68/68
f 309/309 304/304 305/305
f 328/328 329/329 330/330
f 329/329 328/328 331/331
f 42/42 306/306 332/332
f 333/333 320/320 334/334
f 320/320 333/333 335/335
f 295/295 42/42 41/41
f 210/210 336/336 208/208
f 336/336 210/210 337/337
f 334/334 338/338 333/333
f 338/338 334/334 339/339
f 340/340 341/341 210/210
f 341/341 340/340 342/342
f 77/77 296/296 80/80
f 343/343 79/79 78/78
f 79/79 343/343 344/344
f 345/345 346/346 342/342
f 346/346 345/345 347/347
f 348/348 77/77 79/79
f 204/204 349/349 350/350
f 349/349 204/204 206/206
f 211/211 348/348 351/351
f 352/352 211/211 208/208
f 353/353 354/354 355/355
f 354/354 353/353 352/352
f 358/358 353/353 355/355
f 360/360 358/358 361/361
f 362/362 363/363 364/364
f 363/363 362/362 365/365
f 35/35 360/360 366/366
f 367/367 368/368 369/369
f 368/368 367/367 370/370
f 371/371 37/37 372/372
f 373/373 330/330 374/374
f 330/330 373/373 328/328
f 375/375 371/371 364/364
f 29/29 376/376 368/368
f 376/376 29/29 377/377
f 378/378 375/375 328/328
f 379/379 31/31 380/380
f 31/31 379/379 377/377
f 381/381 378/378 373/373
f 386/386 381/381 368/368
f 379/379 386/386 377/377
f 28/28 380/380 31/31
f 396/396 28/28 30/30
f 381/381 373/373 369/369
f 398/398 396/396 399/399
f 329/329 365/365 398/398
f 365/365 329/329 363/363
f 400/400 398/398 365/365
f 401/401 37/37 402/402
f 37/37 401/401 372/372
f 405/405 400/400 362/362
f 406/406 37/37 34/34
f 37/37 406/406 402/402
f 407/407 405/405 408/408
f 408/408 318/318 407/407
f 318/318 408/408 409/409
f 335/335 407/407 318/318
f 361/361 366/366 360/360
f 366/366 361/361 320/320
f 358/358 414/414 361/361
f 414/414 358/358 355/355
f 415/415 333/333 338/338
f 209/209 340/340 210/210
f 340/340 209/209 416/416
f 341/341 415/415 417/417
f 341/341 342/342 346/346
f 420/420 421/421 205/205
f 421/421 420/420 345/345
f 422/422 423/423 204/204
f 423/423 422/422 411/411
f 424/424 425/425 349/349
f 425/425 424/424 426/426
f 97/97 427/427 170/170
f 427/427 97/97 95/95
f 207/207 347/347 428/428
f 202/202 203/203 220/220
f 418/418 207/207 423/423
f 411/411 418/418 423/423
f 377/377 386/386 376/376
f 29/29 31/31 377/377
f 30/30 370/370 396/396
f 370/370 30/30 29/29
f 386/386 368/368 376/376
f 311/311 312/312 317/317
f 308/308 307/307 301/301
f 322/322 480/480 55/55
f 480/480 322/322 316/316
f 301/301 307/307 299/299
f 307/307 309/309 305/305
f 480/480 316/316 317/317
f 312/312 218/218 217/217
f 482/482 483/483 56/56
f 483/483 482/482 484/484
f 327/327 49/49 46/46
f 56/56 55/55 480/480
f 66/66 485/485 299/299
f 485/485 66/66 486/486
f 57/57 323/323 321/321
f 323/323 57/57 488/488
f 489/489 57/57 54/54
f 57/57 489/489 488/488
f 47/47 488/488 48/48
f 488/488 47/47 323/323
f 108/108 159/159 115/115
f 159/159 108/108 109/109
f 101/101 98/98 490/490
f 491/491 492/492 493/493
f 492/492 491/491 214/214
f 348/348 79/79 344/344
f 351/351 344/344 494/494
f 344/344 351/351 348/348
f 495/495 496/496 497/497
f 496/496 495/495 72/72
f 427/427 412/412 498/498
f 412/412 427/427 95/95
f 204/204 423/423 207/207
f 499/499 203/203 500/500
f 203/203 499/499 220/220
f 501/501 411/411 422/422
f 411/411 501/501 412/412
f 97/97 94/94 95/95
f 83/83 181/181 99/99
f 181/181 83/83 93/93
f 91/91 93/93 82/82
f 182/182 183/183 198/198
f 203/203 81/81 175/175
f 99/99 101/101 83/83
f 502/502 503/503 504/504
f 503/503 502/502 505/505
f 501/501 506/506 507/507
f 506/506 501/501 350/350
f 508/508 505/505 502/502
f 505/505 508/508 509/509
f 170/170 96/96 97/97
f 351/351 425/425 426/426
f 425/425 351/351 494/494
f 206/206 416/416 424/424
f 416/416 206/206 421/421
f 345/345 342/342 421/421
f 211/211 351/351 209/209
f 416/416 209/209 426/426
f 510/510 142/142 129/129
f 142/142 510/510 144/144
f 137/137 117/117 128/128
f 117/117 137/137 118/118
f 511/511 510/510 512/512
f 510/510 511/511 144/144
f 513/513 131/131 128/128
f 131/131 513/513 512/512
f 514/514 164/164 135/135
f 164/164 514/514 515/515
f 154/154 164/164 515/515
f 164/164 154/154 156/156
f 119/119 516/516 517/517
f 516/516 119/119 143/143
f 120/120 121/121 127/127
f 512/512 510/510 131/131
f 148/148 512/512 518/518
f 512/512 148/148 511/511
f 144/144 111/111 113/113
f 111/111 144/144 511/511
f 513/513 119/119 517/517
f 119/119 513/513 117/117
f 513/513 128/128 117/117
f 148/148 111/111 511/511
f 111/111 148/148 112/112
f 112/112 124/124 110/110
f 124/124 112/112 145/145
f 124/124 145/145 122/122
f 145/145 147/147 519/519
f 520/520 521/521 522/522
f 521/521 520/520 514/514
f 105/105 152/152 106/106
f 152/152 105/105 139/139
f 140/140 139/139 523/523
f 152/152 141/141 151/151
f 141/141 152/152 139/139
f 523/523 139/139 105/105
f 123/123 104/104 149/149
f 104/104 123/123 107/107
f 107/107 125/125 523/523
f 125/125 107/107 123/123
f 138/138 140/140 524/524
f 125/125 525/525 523/523
f 525/525 125/125 519/519
f 526/526 522/522 134/134
f 522/522 526/526 527/527
f 141/141 158/158 151/151
f 158/158 141/141 528/528
f 527/527 138/138 524/524
f 138/138 527/527 528/528
f 158/158 526/526 157/157
f 526/526 158/158 528/528
f 133/133 135/135 164/164
f 527/527 526/526 528/528
f 133/133 164/164 136/136
f 121/121 160/160 529/529
f 145/145 519/519 122/122
f 530/530 143/143 150/150
f 143/143 530/530 516/516
f 163/163 155/155 161/161
f 531/531 532/532 533/533
f 532/532 531/531 534/534
f 531/531 98/98 161/161
f 98/98 531/531 490/490
f 165/165 167/167 535/535
f 101/101 536/536 175/175
f 536/536 101/101 490/490
f 190/190 184/184 185/185
f 199/199 192/192 191/191
f 192/192 199/199 200/200
f 187/187 200/200 196/196
f 200/200 187/187 186/186
f 191/191 193/193 199/199
f 191/191 190/190 194/194
f 189/189 194/194 190/190
f 194/194 189/189 171/171
f 173/173 197/197 201/201
f 197/197 173/173 198/198
f 172/172 182/182 198/198
f 537/537 302/302 303/303
f 302/302 537/537 216/216
f 538/538 215/215 537/537
f 215/215 538/538 497/497
f 215/215 492/492 213/213
f 492/492 215/215 497/497
f 539/539 540/540 541/541
f 540/540 539/539 499/499
f 219/219 220/220 71/71
f 541/541 425/425 542/542
f 425/425 541/541 349/349
f 73/73 219/219 71/71
f 495/495 497/497 538/538
f 237/237 291/291 243/243
f 291/291 237/237 238/238
f 543/543 292/292 544/544
f 292/292 543/543 298/298
f 243/243 291/291 225/225
f 545/545 222/222 278/278
f 222/222 545/545 250/250
f 234/234 231/231 546/546
f 231/231 234/234 547/547
f 272/272 548/548 549/549
f 548/548 272/272 267/267
f 249/249 550/550 252/252
f 550/550 249/249 545/545
f 246/246 251/251 551/551
f 251/251 246/246 257/257
f 550/550 552/552 551/551
f 552/552 550/550 553/553
f 245/245 222/222 250/250
f 222/222 245/245 223/223
f 553/553 550/550 545/545
f 247/247 273/273 239/239
f 273/273 247/247 554/554
f 551/551 251/251 252/252
f 246/246 551/551 554/554
f 241/241 247/247 239/239
f 246/246 248/248 257/257
f 253/253 230/230 229/229
f 230/230 253/253 555/555
f 547/547 234/234 284/284
f 284/284 256/256 547/547
f 233/233 290/290 236/236
f 290/290 233/233 556/556
f 234/234 546/546 235/235
f 557/557 558/558 559/559
f 558/558 557/557 560/560
f 248/248 241/241 263/263
f 263/263 240/240 262/262
f 240/240 263/263 241/241
f 253/253 276/276 561/561
f 276/276 253/253 255/255
f 256/256 253/253 229/229
f 562/562 275/275 258/258
f 275/275 562/562 274/274
f 253/253 561/561 555/555
f 562/562 276/276 274/274
f 276/276 562/562 561/561
f 265/265 244/244 242/242
f 268/268 548/548 267/267
f 548/548 268/268 264/264
f 244/244 268/268 262/262
f 268/268 244/244 264/264
f 563/563 259/259 564/564
f 259/259 563/563 565/565
f 230/230 565/565 566/566
f 565/565 230/230 555/555
f 259/259 261/261 567/567
f 567/567 568/568 569/569
f 568/568 567/567 261/261
f 266/266 548/548 264/264
f 548/548 266/266 549/549
f 271/271 568/568 261/261
f 568/568 271/271 272/272
f 562/562 260/260 561/561
f 260/260 562/562 258/258
f 261/261 275/275 271/271
f 275/275 261/261 258/258
f 290/290 570/570 289/289
f 570/570 290/290 556/556
f 556/556 559/559 558/558
f 559/559 556/556 233/233
f 570/570 556/556 558/558
f 544/544 292/292 293/293
f 571/571 570/570 558/558
f 570/570 571/571 293/293
f 291/291 281/281 283/283
f 544/544 571/571 572/572
f 571/571 544/544 293/293
f 303/303 297/297 298/298
f 537/537 303/303 286/286
f 286/286 303/303 287/287
f 538/538 537/537 286/286
f 573/573 88/88 73/73
f 88/88 573/573 574/574
f 574/574 282/282 281/281
f 282/282 574/574 575/575
f 281/281 89/89 574/574
f 480/480 482/482 56/56
f 482/482 480/480 312/312
f 576/576 484/484 482/482
f 484/484 576/576 577/577
f 78/78 80/80 578/578
f 80/80 296/296 310/310
f 300/300 308/308 301/301
f 308/308 300/300 579/579
f 332/332 61/61 42/42
f 61/61 332/332 579/579
f 308/308 332/332 306/306
f 332/332 308/308 579/579
f 492/492 214/214 213/213
f 317/317 312/312 480/480
f 215/215 212/212 216/216
f 488/488 489/489 48/48
f 326/326 327/327 580/580
f 327/327 46/46 581/581
f 581/581 489/489 582/582
f 489/489 581/581 48/48
f 35/35 319/319 36/36
f 319/319 35/35 366/366
f 366/366 320/320 319/319
f 318/318 320/320 335/335
f 68/68 486/486 66/66
f 486/486 68/68 580/580
f 299/299 307/307 69/69
f 305/305 67/67 69/69
f 307/307 305/305 69/69
f 367/367 399/399 396/396
f 399/399 367/367 374/374
f 381/381 369/369 368/368
f 399/399 330/330 398/398
f 330/330 399/399 374/374
f 367/367 369/369 374/374
f 29/29 368/368 370/370
f 364/364 331/331 375/375
f 331/331 364/364 363/363
f 372/372 364/364 371/371
f 364/364 372/372 401/401
f 365/365 362/362 400/400
f 362/362 402/402 405/405
f 402/402 362/362 401/401
f 361/361 414/414 334/334
f 334/334 414/414 583/583
f 339/339 334/334 336/336
f 294/294 41/41 43/43
f 42/42 61/61 40/40
f 340/340 416/416 342/342
f 210/210 341/341 417/417
f 336/336 337/337 339/339
f 338/338 417/417 415/415
f 417/417 338/338 210/210
f 347/347 345/345 584/584
f 421/421 342/342 416/416
f 428/428 347/347 584/584
f 207/207 428/428 205/205
f 420/420 584/584 345/345
f 584/584 420/420 428/428
f 499/499 539/539 74/74
f 496/496 585/585 497/497
f 585/585 496/496 542/542
f 539/539 72/72 74/74
f 72/72 539/539 496/496
f 541/541 542/542 539/539
f 209/209 351/351 426/426
f 542/542 494/494 585/585
f 494/494 542/542 425/425
f 352/352 208/208 354/354
f 354/354 208/208 583/583
f 355/355 586/586 414/414
f 586/586 355/355 354/354
f 583/583 208/208 336/336
f 334/334 583/583 336/336
f 406/406 34/34 409/409
f 409/409 408/408 405/405
f 409/409 405/405 406/406
f 378/378 328/328 373/373
f 373/373 374/374 369/369
f 330/330 329/329 398/398
f 328/328 375/375 331/331
f 205/205 428/428 420/420
f 205/205 421/421 206/206
f 169/169 170/170 427/427
f 499/499 588/588 540/540
f 588/588 499/499 500/500
f 175/175 589/589 203/203
f 589/589 175/175 536/536
f 169/169 498/498 503/503
f 498/498 169/169 427/427
f 504/504 590/590 588/588
f 590/590 504/504 591/591
f 591/591 498/498 506/506
f 498/498 591/591 503/503
f 224/224 221/221 226/226
f 283/283 225/225 291/291
f 225/225 283/283 226/226
f 558/558 560/560 571/571
f 230/230 566/566 228/228
f 569/569 568/568 549/549
f 278/278 593/593 553/553
f 593/593 278/278 279/279
f 552/552 553/553 593/593
f 545/545 278/278 553/553
f 212/212 576/576 217/217
f 576/576 212/212 214/214
f 578/578 493/493 78/78
f 294/294 43/43 60/60
f 310/310 594/594 578/578
f 594/594 310/310 294/294
f 578/578 80/80 310/310
f 579/579 300/300 61/61
f 294/294 60/60 594/594
f 595/595 54/54 596/596
f 54/54 595/595 489/489
f 597/597 580/580 327/327
f 580/580 597/597 486/486
f 522/522 598/598 520/520
f 598/598 522/522 527/527
f 134/134 521/521 135/135
f 521/521 134/134 522/522
f 598/598 527/527 524/524
f 490/490 533/533 599/599
f 533/533 490/490 531/531
f 103/103 167/167 159/159
f 504/504 503/503 591/591
f 169/169 505/505 168/168
f 505/505 169/169 503/503
f 532/532 534/534 600/600
f 534/534 161/161 154/154
f 161/161 534/534 531/531
f 519/519 125/125 122/122
f 57/57 321/321 55/55
f 55/55 321/321 322/322
f 492/492 497/497 585/585
f 576/576 214/214 601/601
f 493/493 492/492 343/343
f 83/83 82/82 93/93
f 74/74 220/220 499/499
f 220/220 74/74 71/71
f 143/143 119/119 116/116
f 116/116 118/118 132/132
f 121/121 114/114 115/115
f 149/149 110/110 124/124
f 529/529 127/127 121/121
f 127/127 529/529 150/150
f 129/129 131/131 510/510
f 128/128 130/130 137/137
f 149/149 124/124 123/123
f 105/105 107/107 523/523
f 528/528 141/141 138/138
f 112/112 148/148 145/145
f 518/518 512/512 517/517
f 146/146 517/517 602/602
f 517/517 146/146 518/518
f 150/150 529/529 530/530
f 98/98 100/100 162/162
f 161/161 155/155 154/154
f 173/173 194/194 171/171
f 198/198 173/173 172/172
f 173/173 201/201 193/193
f 588/588 349/349 541/541
f 349/349 588/588 590/590
f 350/350 349/349 590/590
f 590/590 591/591 506/506
f 200/200 186/186 192/192
f 181/181 93/93 90/90
f 181/181 90/90 183/183
f 217/217 576/576 312/312
f 223/223 227/227 221/221
f 225/225 227/227 243/243
f 233/233 235/235 559/559
f 244/244 262/262 240/240
f 249/249 250/250 545/545
f 551/551 252/252 550/550
f 229/229 231/231 256/256
f 231/231 228/228 546/546
f 566/566 546/546 228/228
f 546/546 566/566 603/603
f 256/256 231/231 547/547
f 565/565 260/260 259/259
f 260/260 565/565 555/555
f 561/561 260/260 555/555
f 270/270 266/266 265/265
f 266/266 270/270 569/569
f 549/549 266/266 569/569
f 272/272 549/549 568/568
f 604/604 559/559 235/235
f 559/559 604/604 557/557
f 563/563 569/569 270/270
f 569/569 563/563 564/564
f 572/572 560/560 605/605
f 560/560 572/572 571/571
f 543/543 287/287 303/303
f 287/287 543/543 572/572
f 287/287 572/572 285/285
f 572/572 543/543 544/544
f 574/574 89/89 88/88
f 293/293 289/289 570/570
f 298/298 543/543 303/303
f 299/299 69/69 66/66
f 334/334 320/320 361/361
f 396/396 370/370 367/367
f 409/409 36/36 318/318
f 36/36 409/409 34/34
f 585/585 344/344 343/343
f 344/344 585/585 494/494
f 343/343 78/78 493/493
f 585/585 343/343 492/492
f 606/606 501/501 422/422
f 501/501 606/606 350/350
f 350/350 590/590 506/506
f 364/364 401/401 362/362
f 331/331 363/363 329/329
f 405/405 402/402 406/406
f 416/416 426/426 424/424
f 424/424 349/349 206/206
f 312/312 576/576 482/482
f 56/56 483/483 607/607
f 54/54 56/56 607/607
f 54/54 607/607 596/596
f 486/486 608/608 485/485
f 608/608 486/486 597/597
f 215/215 216/216 537/537
f 573/573 73/73 72/72
f 496/496 539/539 542/542
f 588/588 500/500 589/589
f 500/500 203/203 589/589
f 588/588 502/502 504/504
f 502/502 588/588 589/589
f 168/168 505/505 509/509
f 509/509 508/508 609/609
f 168/168 509/509 535/535
f 610/610 490/490 599/599
f 490/490 610/610 536/536
f 517/517 512/512 513/513
f 515/515 514/514 600/600
f 514/514 135/135 521/521
f 611/611 530/530 166/166
f 530/530 611/611 602/602
f 517/517 516/516 602/602
f 146/146 148/148 518/518
f 154/154 515/515 534/534
f 140/140 525/525 524/524
f 525/525 140/140 523/523
f 134/134 157/157 526/526
f 168/168 535/535 167/167
f 529/529 160/160 166/166
f 160/160 159/159 167/167
f 166/166 530/530 529/529
f 600/600 514/514 520/520
f 516/516 530/530 602/602
f 600/600 534/534 515/515
f 166/166 165/165 611/611
f 536/536 508/508 589/589
f 508/508 536/536 612/612
f 192/192 186/186 184/184
f 538/538 286/286 288/288
f 538/538 288/288 495/495
f 588/588 541/541 540/540
f 567/567 564/564 259/259
f 564/564 567/567 569/569
f 546/546 604/604 235/235
f 604/604 546/546 603/603
f 551/551 552/552 554/554
f 552/552 593/593 279/279
f 560/560 557/557 605/605
f 273/273 554/554 552/552
f 247/247 246/246 554/554
f 603/603 557/557 604/604
f 283/283 280/280 613/613
f 285/285 572/572 605/605
f 226/226 283/283 614/614
f 573/573 495/495 615/615
f 495/495 573/573 72/72
f 574/574 573/573 616/616
f 46/46 48/48 581/581
f 327/327 581/581 597/597
f 326/326 580/580 68/68
f 502/502 589/589 508/508
f 222/222 224/224 278/278
f 224/224 226/226 614/614
f 614/614 283/283 613/613
f 576/576 601/601 577/577
f 601/601 214/214 491/491
f 147/147 525/525 519/519
f 536/536 610/610 612/612
f 609/609 617/617 509/509
f 574/574 616/616 575/575
f 616/616 573/573 615/615
f 224/224 614/614 277/277
f 489/489 595/595 582/582
f 61/61 300/300 60/60
f 617/617 165/165 535/535
f 535/535 509/509 617/617
f 615/615 575/575 616/616
f 575/575 280/280 282/282
f 279/279 273/273 552/552
f 277/277 614/614 613/613
f 491/491 577/577 601/601
f 577/577 483/483 484/484
f 483/483 596/596 607/607
f 595/595 596/596 582/582
f 608/608 597/597 581/581
f 524/524 525/525 598/598
f 532/532 599/599 533/533
f 599/599 612/612 610/610
f 204/204 350/350 606/606
f 422/422 204/204 606/606
f 412/412 501/501 507/507
f 412/412 507/507 498/498
f 507/507 506/506 498/498
f 354/354 583/583 586/586
f 583/583 414/414 586/586
f 210/210 338/338 337/337
f 338/338 339/339 337/337
f 52/52 50/50 53/53
f 58/58 52/52 59/59
f 62/62 58/58 63/63
f 64/64 62/62 65/65
f 70/70 64/64 65/65
f 75/75 70/70 76/76
f 85/85 75/75 86/86
f 313/313 314/314 315/315
f 314/314 313/313 86/86
f 53/53 324/324 52/52
f 324/324 53/53 325/325
f 356/356 315/315 314/314
f 315/315 356/356 357/357
f 59/59 63/63 58/58
f 63/63 59/59 359/359
f 53/53 397/397 325/325
f 397/397 53/53 50/50
f 403/403 404/404 357/357
f 404/404 403/403 63/63
f 356/356 70/70 65/65
f 70/70 356/356 314/314
f 410/410 411/411 412/412
f 411/411 410/410 413/413
f 413/413 418/418 411/411
f 418/418 413/413 419/419
f 76/76 86/86 75/75
f 86/86 76/76 314/314
f 429/429 419/419 413/413
f 315/315 429/429 313/313
f 429/429 315/315 430/430
f 62/62 403/403 65/65
f 403/403 62/62 63/63
f 404/404 430/430 431/431
f 359/359 52/52 324/324
f 52/52 359/359 59/59
f 432/432 404/404 433/433
f 325/325 397/397 434/434
f 435/435 432/432 434/434
f 50/50 436/436 397/397
f 438/438 435/435 397/397
f 433/433 487/487 432/432
f 487/487 433/433 359/359
f 359/359 433/433 63/63
f 76/76 70/70 314/314
f 315/315 357/357 431/431
f 95/95 85/85 410/410
f 95/95 410/410 412/412
f 434/434 432/432 325/325
f 325/325 432/432 487/487
f 324/324 325/325 487/487
f 86/86 410/410 85/85
f 410/410 86/86 413/413
f 429/429 413/413 313/313
f 315/315 431/431 430/430
f 357/357 404/404 431/431
f 357/357 65/65 403/403
f 65/65 357/357 356/356
f 413/413 86/86 313/313
f 404/404 63/63 433/433
f 397/397 435/435 434/434
f 487/487 359/359 324/324
f 38/38 32/32 39/39
f 44/44 38/38 45/45
f 50/50 44/44 51/51
f 382/382 383/383 384/384
f 383/383 382/382 385/385
f 26/26 387/387 388/388
f 390/390 391/391 392/392
f 391/391 390/390 393/393
f 383/383 394/394 384/384
f 394/394 383/383 395/395
f 436/436 50/50 437/437
f 394/394 437/437 51/51
f 437/437 394/394 395/395
f 383/383 438/438 395/395
f 439/439 382/382 440/440
f 382/382 439/439 385/385
f 439/439 441/441 385/385
f 441/441 439/439 393/393
f 390/390 442/442 441/441
f 442/442 390/390 387/387
f 23/23 442/442 387/387
f 32/32 479/479 388/388
f 391/391 39/39 32/32
f 39/39 391/391 481/481
f 393/393 439/439 481/481
f 481/481 440/440 39/39
f 440/440 481/481 439/439
f 51/51 45/45 394/394
f 45/45 51/51 44/44
f 436/436 395/395 438/438
f 395/395 436/436 437/437
f 437/437 50/50 51/51
f 440/440 45/45 38/38
f 45/45 440/440 384/384
f 45/45 384/384 394/394
f 387/387 392/392 388/388
f 392/392 387/387 390/390
f 391/391 393/393 481/481
f 390/390 441/441 393/393
f 38/38 39/39 440/440
f 438/438 397/397 436/436
f 384/384 440/440 382/382
f 32/32 388/388 392/392
f 32/32 392/392 391/391
f 1/1 2/2 3/3
f 2/2 1/1 4/4
f 10/10 11/11 12/12
f 11/11 10/10 13/13
f 14/14 9/9 15/15
f 16/16 14/14 17/17
f 18/18 19/19 20/20
f 19/19 18/18 21/21
f 22/22 16/16 4/4
f 23/23 24/24 25/25
f 24/24 23/23 26/26
f 27/27 22/22 21/21
f 32/32 27/27 33/33
f 387/387 26/26 23/23
f 389/389 10/10 12/12
f 443/443 444/444 445/445
f 444/444 443/443 446/446
f 444/444 446/446 447/447
f 445/445 25/25 24/24
f 20/20 19/19 448/448
f 1/1 3/3 448/448
f 449/449 445/445 450/450
f 15/15 451/451 452/452
f 451/451 15/15 9/9
f 10/10 449/449 20/20
f 453/453 15/15 452/452
f 15/15 453/453 14/14
f 458/458 389/389 459/459
f 459/459 460/460 458/458
f 460/460 459/459 461/461
f 462/462 458/458 460/460
f 461/461 463/463 460/460
f 463/463 461/461 464/464
f 467/467 468/468 469/469
f 468/468 467/467 452/452
f 14/14 453/453 17/17
f 467/467 469/469 471/471
f 472/472 453/453 473/473
f 453/453 472/472 17/17
f 473/473 467/467 471/471
f 467/467 473/473 452/452
f 461/461 475/475 464/464
f 475/475 461/461 459/459
f 9/9 8/8 451/451
f 17/17 2/2 16/16
f 2/2 17/17 472/472
f 472/472 473/473 476/476
f 476/476 13/13 3/3
f 13/13 476/476 11/11
f 477/477 447/447 18/18
f 447/447 477/477 444/444
f 20/20 449/449 450/450
f 450/450 445/445 444/444
f 18/18 20/20 477/477
f 478/478 21/21 22/22
f 21/21 478/478 19/19
f 10/10 20/20 448/448
f 478/478 448/448 19/19
f 448/448 478/478 1/1
f 4/4 478/478 22/22
f 478/478 4/4 1/1
f 3/3 2/2 472/472
f 479/479 32/32 33/33
f 24/24 443/443 445/445
f 443/443 24/24 26/26
f 447/447 33/33 27/27
f 33/33 447/447 446/446
f 479/479 443/443 26/26
f 443/443 479/479 446/446
f 479/479 26/26 388/388
f 12/12 459/459 389/389
f 459/459 12/12 475/475
f 475/475 587/587 464/464
f 587/587 475/475 469/469
f 473/473 471/471 476/476
f 476/476 3/3 472/472
f 469/469 468/468 587/587
f 474/474 463/463 464/464
f 587/587 592/592 464/464
f 468/468 452/452 451/451
f 452/452 473/473 453/453
f 27/27 21/21 18/18
f 27/27 18/18 447/447
f 4/4 16/16 2/2
f 33/33 446/446 479/479
f 12/12 11/11 475/475
f 444/444 477/477 450/450
f 10/10 448/448 3/3
f 10/10 3/3 13/13
f 450/450 477/477 20/20
f 11/11 476/476 471/471
f 466/466 460/460 463/463
f 11/11 471/471 469/469
f 11/11 469/469 475/475
f 5/5 6/6 7/7
f 8/8 5/5 7/7
f 5/5 8/8 9/9
f 454/454 455/455 456/456
f 455/455 454/454 457/457
f 465/465 462/462 466/466
f 470/470 465/465 457/457
f 454/454 470/470 457/457
f 456/456 8/8 7/7
f 8/8 456/456 451/451
f 6/6 454/454 7/7
f 457/457 465/465 474/474
f 7/7 454/454 456/456
f 462/462 460/460 466/466
f 463/463 474/474 466/466
f 465/465 466/466 474/474
f 592/592 587/587 468/468
f 457/457 474/474 592/592
f 592/592 468/468 455/455
f 456/456 455/455 468/468
f 468/468 451/451 456/456
f 455/455 457/457 592/592
f 474/474 464/464 592/592
