# Exported from kurumi_puppet.mdl by laobamac MDL Parser
mtllib kurumi.mtl
v 1163.166748 -701.000000 0.000000
v 1187.500000 -695.000000 0.000000
v 1160.500000 -681.000000 0.000000
v 1169.500000 -736.000000 0.000000
v -1205.166626 -727.000000 0.000000
v -1216.500000 -739.000000 0.000000
v -1209.500000 -752.000000 0.000000
v -1218.500000 -722.000000 0.000000
v -1185.500000 -746.000000 0.000000
v -1207.500000 -689.000000 0.000000
v -1181.166626 -705.333313 0.000000
v -1160.166626 -686.333313 0.000000
v -1176.500000 -648.000000 0.000000
v -1141.166626 -679.333313 0.000000
v -1144.500000 -632.000000 0.000000
v -1119.500000 -627.000000 0.000000
v -1113.833374 -677.333313 0.000000
v -1101.500000 -727.000000 0.000000
v -1159.500000 -779.000000 0.000000
v -1062.500000 -626.000000 0.000000
v -1069.166626 -676.000000 0.000000
v -921.500000 -635.000000 0.000000
v -978.611084 -645.888916 0.000000
v -887.833374 -679.333313 0.000000
v -951.833374 -676.666687 0.000000
v -870.500000 -634.000000 0.000000
v -739.166687 -691.000000 0.000000
v -752.500000 -739.000000 0.000000
v -692.500000 -732.000000 0.000000
v -817.833374 -711.666687 0.000000
v -103.277832 -526.555542 0.000000
v -111.500000 -574.666626 0.000000
v -59.833374 -547.000000 0.000000
v -151.833374 -507.888885 0.000000
v -772.500000 -602.000000 0.000000
v -798.500000 -658.333313 0.000000
v -401.833313 -578.333374 0.000000
v -372.388916 -513.000000 0.000000
v -436.833313 -517.222168 0.000000
v -367.166687 -579.000000 0.000000
v -583.500000 -526.000000 0.000000
v -675.277771 -581.555542 0.000000
v -317.833313 -613.777771 0.000000
v -260.888916 -680.555542 0.000000
v -258.666626 -584.666626 0.000000
v -327.666687 -677.666687 0.000000
v -460.500000 -489.000000 0.000000
v -521.055603 -536.555542 0.000000
v -217.666626 -587.333374 0.000000
v -198.222168 -681.444458 0.000000
v -156.277710 -614.111084 0.000000
v -232.000000 -589.000000 0.000000
v -408.500000 -481.000000 0.000000
v -270.555542 -521.222168 0.000000
v -341.500000 -479.000000 0.000000
v -304.500000 -483.000000 0.000000
v -310.111145 -548.888916 0.000000
v -50.500000 -408.000000 0.000000
v -5.055542 -430.222260 0.000000
v -5.500000 -375.333313 0.000000
v -23.166626 -487.444458 0.000000
v -248.500000 -496.000000 0.000000
v 1131.500000 -705.000000 0.000000
v 1145.166748 -658.333313 0.000000
v -224.500000 -496.000000 0.000000
v 1142.166748 -742.000000 0.000000
v 1162.500000 -744.000000 0.000000
v 1156.833252 -723.666687 0.000000
v 1143.500000 -750.000000 0.000000
v -205.500000 -491.000000 0.000000
v -178.222168 -551.000000 0.000000
v -138.500000 -458.000000 0.000000
v 815.500000 -703.000000 0.000000
v 780.500000 -695.000000 0.000000
v 771.500000 -704.000000 0.000000
v 813.833252 -698.666687 0.000000
v -82.944458 -471.000000 0.000000
v 1003.500000 50.000000 0.000000
v 895.944336 16.777832 0.000000
v 942.833252 -29.555481 0.000000
v 948.277588 92.000000 0.000000
v -9.500000 -371.000000 0.000000
v 53.277832 -394.888885 0.000000
v 43.500000 -347.000000 0.000000
v 84.944458 -374.111145 0.000000
v 1042.500000 10.000000 0.000000
v 1022.166748 -9.000000 0.000000
v 1040.500000 -12.000000 0.000000
v 1028.833252 18.333313 0.000000
v 81.500000 -310.000000 0.000000
v 89.500000 -313.000000 0.000000
v 143.500000 -282.000000 0.000000
v 1088.500000 -260.666687 0.000000
v 1101.500000 -291.000000 0.000000
v 1100.500000 -270.000000 0.000000
v 1038.388916 -301.333313 0.000000
v 242.500000 -229.000000 0.000000
v 209.388794 -311.888855 0.000000
v 1011.500000 41.000000 0.000000
v 1034.500000 26.000000 0.000000
v 1009.833252 11.666687 0.000000
v 250.500000 -219.000000 0.000000
v 323.722168 -227.000000 0.000000
v 978.833252 371.666626 0.000000
v 993.500000 380.000000 0.000000
v 982.500000 403.000000 0.000000
v 993.500000 364.000000 0.000000
v 189.500000 244.666626 0.000000
v 141.500000 264.000000 0.000000
v 178.500000 223.000000 0.000000
v 163.500000 296.000000 0.000000
v 248.500000 -206.000000 0.000000
v 237.500000 488.000000 0.000000
v 254.500000 513.333374 0.000000
v 242.500000 511.000000 0.000000
v 278.166626 446.000000 0.000000
v 229.500000 -159.000000 0.000000
v 280.500000 -152.333313 0.000000
v 130.500000 231.000000 0.000000
v 131.500000 205.000000 0.000000
v 189.000000 -37.000000 0.000000
v 244.611206 -108.111145 0.000000
v 148.500000 85.000000 0.000000
v 208.166626 34.222168 0.000000
v 153.166626 147.111206 0.000000
v 201.833374 260.333374 0.000000
v 316.500000 242.110962 0.000000
v 299.722168 194.555542 0.000000
v 377.166626 183.666626 0.000000
v 250.500000 229.000000 0.000000
v 178.500000 311.000000 0.000000
v 215.166626 270.333374 0.000000
v 380.833374 409.666626 0.000000
v 448.500000 459.000000 0.000000
v 408.500000 491.000000 0.000000
v 452.944458 405.777710 0.000000
v 335.166626 447.000000 0.000000
v 319.277832 396.777710 0.000000
v 357.833374 430.666626 0.000000
v 203.500000 326.000000 0.000000
v 377.389038 339.222168 0.000000
v 216.500000 342.000000 0.000000
v 255.389038 312.110962 0.000000
v 264.500000 539.000000 0.000000
v 250.500000 528.000000 0.000000
v 286.833374 518.000000 0.000000
v 227.000000 415.000000 0.000000
v 272.166626 367.222168 0.000000
v 244.055542 425.333374 0.000000
v 319.166626 507.000000 0.000000
v 380.500000 508.000000 0.000000
v 283.500000 541.000000 0.000000
v 339.500000 525.000000 0.000000
v 217.833374 181.000000 0.000000
v 203.944458 -35.555603 0.000000
v 233.833374 -32.666687 0.000000
v 742.500000 304.666626 0.000000
v 686.611206 331.666626 0.000000
v 676.833374 283.000000 0.000000
v 745.166748 327.666626 0.000000
v 477.500000 428.000000 0.000000
v 993.500000 534.000000 0.000000
v 981.500000 533.666626 0.000000
v 1003.500000 510.000000 0.000000
v 982.500000 549.000000 0.000000
v 484.500000 427.000000 0.000000
v 913.500000 688.000000 0.000000
v 887.166748 699.666626 0.000000
v 918.500000 659.000000 0.000000
v 897.500000 722.000000 0.000000
v 504.500000 460.000000 0.000000
v 548.611206 427.888794 0.000000
v 868.166748 728.666626 0.000000
v 878.500000 739.000000 0.000000
v 861.500000 746.000000 0.000000
v 890.833252 718.666626 0.000000
v 483.500000 514.000000 0.000000
v 492.500000 499.666626 0.000000
v 515.500000 557.000000 0.000000
v 490.500000 491.000000 0.000000
v 504.500000 467.000000 0.000000
v 544.500000 485.555542 0.000000
v 482.500000 541.000000 0.000000
v 486.500000 576.000000 0.000000
v 562.500000 606.000000 0.000000
v 520.500000 623.333374 0.000000
v 509.500000 593.333374 0.000000
v 534.500000 649.000000 0.000000
v 559.500000 663.000000 0.000000
v 499.500000 609.000000 0.000000
v 515.500000 631.000000 0.000000
v 612.833374 618.333374 0.000000
v 623.500000 688.000000 0.000000
v 648.944458 668.777832 0.000000
v 862.833252 348.333374 0.000000
v 884.500000 328.000000 0.000000
v 898.500000 339.000000 0.000000
v 873.500000 326.000000 0.000000
v 710.500000 700.000000 0.000000
v 780.833252 687.666626 0.000000
v 785.500000 749.000000 0.000000
v 753.833252 748.000000 0.000000
v 805.833252 704.000000 0.000000
v 713.500000 704.000000 0.000000
v 844.500000 720.000000 0.000000
v 850.166748 655.666626 0.000000
v 714.500000 733.000000 0.000000
v 737.833252 728.666626 0.000000
v 743.500000 765.000000 0.000000
v 761.500000 762.000000 0.000000
v 732.166748 748.000000 0.000000
v 720.500000 749.000000 0.000000
v 730.500000 760.000000 0.000000
v 829.500000 752.000000 0.000000
v 817.388916 634.333374 0.000000
v 821.166748 559.666626 0.000000
v 864.277832 607.777710 0.000000
v 761.388916 586.666626 0.000000
v 862.500000 330.000000 0.000000
v 883.833252 382.666626 0.000000
v 909.166748 373.000000 0.000000
v 921.500000 608.000000 0.000000
v 931.166748 474.333374 0.000000
v 936.500000 589.000000 0.000000
v 879.722412 563.444336 0.000000
v 870.611084 425.444336 0.000000
v 831.500000 371.000000 0.000000
v 837.500000 367.000000 0.000000
v 778.277832 481.110962 0.000000
v 958.500000 573.000000 0.000000
v 896.500000 522.666626 0.000000
v 849.722412 484.444336 0.000000
v 908.833252 511.000000 0.000000
v 982.500000 410.000000 0.000000
v 957.500000 385.000000 0.000000
v 939.166748 420.000000 0.000000
v 938.500000 332.000000 0.000000
v 960.500000 355.666626 0.000000
v 942.833252 359.000000 0.000000
v 960.500000 332.000000 0.000000
v 1003.500000 479.000000 0.000000
v 977.166748 350.666626 0.000000
v 988.500000 352.000000 0.000000
v 977.500000 340.000000 0.000000
v 967.500000 143.000000 0.000000
v 915.833252 188.666626 0.000000
v 919.055420 138.222168 0.000000
v 946.166748 203.666626 0.000000
v 895.500000 245.000000 0.000000
v 848.500000 271.000000 0.000000
v 876.611084 208.555542 0.000000
v 907.500000 342.000000 0.000000
v 852.500000 339.000000 0.000000
v 543.500000 288.000000 0.000000
v 522.500000 333.000000 0.000000
v 497.166626 303.777832 0.000000
v 540.833374 333.666626 0.000000
v 541.500000 253.000000 0.000000
v 473.277832 271.444458 0.000000
v 481.166626 198.333374 0.000000
v 539.500000 284.000000 0.000000
v 809.500000 326.000000 0.000000
v 752.944580 403.777710 0.000000
v 808.500000 315.000000 0.000000
v 724.500000 633.444336 0.000000
v 668.500000 610.333374 0.000000
v 527.833374 391.000000 0.000000
v 500.500000 379.666626 0.000000
v 688.166626 262.333374 0.000000
v 809.166748 246.222168 0.000000
v 820.500000 295.000000 0.000000
v 760.500000 275.666626 0.000000
v 270.500000 -132.666687 0.000000
v 1003.500000 134.000000 0.000000
v 973.166748 199.000000 0.000000
v 965.500000 218.000000 0.000000
v 982.500000 198.000000 0.000000
v 939.500000 232.000000 0.000000
v 980.166748 177.666626 0.000000
v 997.500000 167.000000 0.000000
v 873.833252 83.000000 0.000000
v 1014.500000 -56.000000 0.000000
v 949.166748 -82.888916 0.000000
v 804.166748 -44.333313 0.000000
v 662.018921 -97.314270 0.000000
v 807.500000 -61.666687 0.000000
v 663.500000 -31.555481 0.000000
v 1031.055664 -265.333313 0.000000
v 1093.500000 -310.000000 0.000000
v 1092.500000 -322.000000 0.000000
v 1015.500000 -79.000000 0.000000
v 864.500000 -689.000000 0.000000
v 915.055664 -628.000000 0.000000
v 835.166748 -651.888916 0.000000
v 888.500000 -698.000000 0.000000
v 1024.500000 -108.000000 0.000000
v 1101.166748 -596.333374 0.000000
v 1110.611084 -539.111084 0.000000
v 1061.833252 -579.333374 0.000000
v 1142.500000 -572.000000 0.000000
v 1071.500000 -202.000000 0.000000
v 1009.722412 -214.444397 0.000000
v 1000.500000 -741.000000 0.000000
v 1005.166748 -663.000000 0.000000
v 957.500000 -717.000000 0.000000
v 1033.500000 -676.666687 0.000000
v 1074.500000 -753.000000 0.000000
v 1048.500000 -744.666687 0.000000
v 1043.500000 -753.000000 0.000000
v 1085.500000 -693.666687 0.000000
v 1101.500000 -740.000000 0.000000
v 1113.500000 -740.000000 0.000000
v 1154.500000 -600.000000 0.000000
v 1179.500000 -635.000000 0.000000
v 1099.166748 -637.666626 0.000000
v 1127.500000 -466.000000 0.000000
v 1082.722412 -426.777802 0.000000
v 1072.500000 -512.555542 0.000000
v 1028.166748 -492.333344 0.000000
v 755.500000 -708.000000 0.000000
v 741.500000 -700.666687 0.000000
v 737.500000 -706.000000 0.000000
v 1188.500000 -668.000000 0.000000
v 703.500000 -690.000000 0.000000
v 627.500000 -647.777771 0.000000
v 688.500000 -694.000000 0.000000
v 746.871582 -556.685303 0.000000
v 989.388916 -588.111084 0.000000
v 937.166748 -566.666626 0.000000
v 969.166748 -618.333374 0.000000
v 1009.055664 -546.111084 0.000000
v 915.500000 -700.000000 0.000000
v 968.278076 -663.444458 0.000000
v 930.500000 -709.000000 0.000000
v 355.611206 -642.222229 0.000000
v 393.833374 -579.333374 0.000000
v 332.500000 -584.333374 0.000000
v 421.166626 -636.666626 0.000000
v 282.833374 -349.000000 0.000000
v 921.609619 -219.667053 0.000000
v 933.166748 -333.333313 0.000000
v 887.500000 -567.666626 0.000000
v 1025.500000 -406.333344 0.000000
v 993.833252 -353.333313 0.000000
v 650.316040 -545.463135 0.000000
v 813.425537 -321.019104 0.000000
v 862.982666 -383.351990 0.000000
v 926.833252 -513.000000 0.000000
v 893.500000 -513.444458 0.000000
v 444.166626 -415.222260 0.000000
v 404.277832 -514.111084 0.000000
v 439.166626 -506.111115 0.000000
v 363.833374 -393.333344 0.000000
v 777.722412 -651.666687 0.000000
v 715.500000 -692.000000 0.000000
v 854.500000 -689.000000 0.000000
v 455.166626 -569.666626 0.000000
v 492.722168 -624.333374 0.000000
v 498.500000 -555.333374 0.000000
v 220.833374 -601.000000 0.000000
v 153.277832 -562.444458 0.000000
v 172.166626 -661.000000 0.000000
v 194.944458 -496.000000 0.000000
v 646.500000 -715.000000 0.000000
v 319.833374 -705.444458 0.000000
v 292.500000 -773.000000 0.000000
v 340.500000 -763.000000 0.000000
v 286.500000 -769.000000 0.000000
v 158.388794 -339.888855 0.000000
v 541.833374 -610.000000 0.000000
v 528.500000 -542.666626 0.000000
v 463.611206 -497.111115 0.000000
v 505.388794 -462.222260 0.000000
v 251.944458 -711.333313 0.000000
v 279.944458 -651.444458 0.000000
v 215.944458 -707.666687 0.000000
v 382.944458 -701.111145 0.000000
v 141.722168 -716.333313 0.000000
v 178.500000 -758.000000 0.000000
v 598.500000 -732.000000 0.000000
v 597.500000 -660.444458 0.000000
v 524.500000 -748.000000 0.000000
v 540.500000 -678.444458 0.000000
v 56.166626 -730.666687 0.000000
v 129.500000 -767.000000 0.000000
v 92.055542 -680.333313 0.000000
v 414.500000 -761.000000 0.000000
v 464.722168 -692.888855 0.000000
v -139.666626 -680.333313 0.000000
v -73.888794 -635.000000 0.000000
v -33.555542 -701.777771 0.000000
v 226.500000 -771.000000 0.000000
v 248.500000 -764.000000 0.000000
v -441.500000 -581.666626 0.000000
v -402.000000 -644.555542 0.000000
v -479.055603 -618.000000 0.000000
v 9.500000 -775.000000 0.000000
v -583.500000 -672.333313 0.000000
v -612.277771 -605.000000 0.000000
v -635.611084 -670.333313 0.000000
v -562.055603 -597.666626 0.000000
v -223.000000 -775.000000 0.000000
v -117.722168 -743.444458 0.000000
v -587.833313 -753.333313 0.000000
v -609.500000 -766.000000 0.000000
v -596.500000 -769.000000 0.000000
v -624.833313 -749.333313 0.000000
v -455.500000 -775.000000 0.000000
v -335.388916 -742.555542 0.000000
v -513.500000 -769.000000 0.000000
v -481.833313 -740.555542 0.000000
v -624.500000 -757.000000 0.000000
v -830.500000 -762.000000 0.000000
v -653.500000 -722.000000 0.000000
v -676.500000 -674.666687 0.000000
v -706.166687 -685.333313 0.000000
v -716.166687 -634.666626 0.000000
v -669.833313 -616.666626 0.000000
v -857.500000 -721.666687 0.000000
v -871.500000 -769.000000 0.000000
v -1031.166626 -724.666687 0.000000
v -1015.166626 -675.777771 0.000000
v -1020.722168 -757.555542 0.000000
v -1189.500000 -770.000000 0.000000
v -951.500000 -723.444458 0.000000
v -903.722290 -708.333313 0.000000
v 29.500000 -650.000000 0.000000
v -47.277832 -590.555542 0.000000
v -524.500000 -706.333313 0.000000
v -561.611084 -731.555542 0.000000
v -473.722229 -555.111084 0.000000
v -519.166687 -594.666626 0.000000
v -419.888916 -710.111145 0.000000
v -476.500000 -677.666687 0.000000
v 121.833374 -462.333344 0.000000
v 52.389038 -448.333344 0.000000
v 117.166626 -624.000000 0.000000
v 93.277832 -531.222290 0.000000
v 62.500000 -593.777832 0.000000
v 40.833374 -507.333344 0.000000
v 3.500000 -568.111084 0.000000
v 1064.833252 -631.222168 0.000000
v 869.388672 154.555542 0.000000
v 351.500000 -307.333374 0.000000
v 440.166626 -309.666687 0.000000
v 151.166626 -400.000000 0.000000
v 312.833374 -467.444458 0.000000
v 363.389038 -519.000000 0.000000
v 242.166626 -424.666656 0.000000
v 547.500000 -534.333374 0.000000
v 175.166626 203.333374 0.000000
v 179.500000 151.333374 0.000000
v 405.944946 -160.768616 0.000000
v 319.833374 -90.333313 0.000000
v 346.833374 -184.111084 0.000000
v 424.574585 -99.536438 0.000000
v 295.500000 -72.000000 0.000000
v 308.166626 -90.333313 0.000000
v 227.833374 280.666626 0.000000
v 242.166626 50.333313 0.000000
v 218.500000 94.333313 0.000000
v 219.833374 119.000000 0.000000
v 266.722290 274.444336 0.000000
v 271.500000 171.000000 0.000000
v 322.388794 160.555542 0.000000
v 318.500000 127.000000 0.000000
v 436.944458 361.222168 0.000000
v 321.833374 313.666626 0.000000
v 376.166626 263.888794 0.000000
v 404.500000 159.666626 0.000000
v 419.166626 238.000000 0.000000
v 450.833374 236.000000 0.000000
v 429.500000 294.333374 0.000000
v 484.166626 335.666626 0.000000
v 333.500000 -33.000000 0.000000
v 342.500000 -32.000000 0.000000
v 353.500000 99.000000 0.000000
v 668.833374 76.000000 0.000000
v 653.500000 197.777832 0.000000
v 595.277832 168.888794 0.000000
v 725.166748 176.777832 0.000000
v 570.722290 365.666626 0.000000
v 755.722168 243.333374 0.000000
v 747.166748 290.333374 0.000000
v 690.277832 404.222168 0.000000
v 682.166626 512.666626 0.000000
v 594.944458 398.666626 0.000000
v 603.722168 500.777710 0.000000
v 613.500000 432.666626 0.000000
v 646.388794 439.222168 0.000000
v 586.722168 558.555542 0.000000
v 619.166626 579.000000 0.000000
v 818.500000 192.000000 0.000000
v 787.055664 117.000000 0.000000
v 612.500000 261.000000 0.000000
v 671.166626 295.000000 0.000000
v 643.500000 372.333374 0.000000
v 592.944458 330.666626 0.000000
v 636.388794 317.777832 0.000000
v 548.500000 243.000000 0.000000
v 782.277588 38.222229 0.000000
v 516.722168 92.777832 0.000000
v 522.944336 -16.111084 0.000000
v 592.500000 81.111084 0.000000
v 475.055542 43.888916 0.000000
v 446.136230 -234.026001 0.000000
v 513.500000 175.666626 0.000000
v 429.833374 134.333374 0.000000
v 441.500000 111.000000 0.000000
v 387.500000 61.000000 0.000000
v 591.166626 -42.000000 0.000000
v 595.166626 -8.333313 0.000000
v 608.433105 -416.471130 0.000000
v 617.288696 -339.646423 0.000000
v 521.666138 -382.273132 0.000000
v 699.947998 -412.056000 0.000000
v 879.720703 -129.111572 0.000000
v 698.761597 -319.222717 0.000000
v 661.167236 -244.480225 0.000000
v 837.166748 -568.000000 0.000000
v 734.571045 -254.297119 0.000000
v 807.161865 -217.668030 0.000000
v 587.390015 -188.276001 0.000000
v 734.017334 -155.870300 0.000000
v 530.521729 -305.448364 0.000000
v 830.982666 -461.574219 0.000000
v 973.722412 -487.888885 0.000000
v 689.388794 7.777832 0.000000
v 955.833252 -404.666656 0.000000
v 863.055664 -608.222168 0.000000
v 1012.055664 -620.222229 0.000000
v 265.166626 -536.666626 0.000000
v 557.515503 -457.311768 0.000000
v -526.388916 -648.222229 0.000000
v 282.111206 -7.888916 0.000000
v 515.018921 -83.425293 0.000000
v 603.500000 255.000000 0.000000
v 366.500000 -20.000000 0.000000
v 254.500000 90.000000 0.000000
v 252.500000 108.000000 0.000000
v 258.500000 164.000000 0.000000
v 263.500000 174.000000 0.000000
v 495.308838 -193.481506 0.000000
v 446.722168 -20.000000 0.000000
v 579.694336 -264.903870 0.000000
v 289.000000 33.000000 0.000000
v 323.500000 -24.000000 0.000000
v 594.500000 286.000000 0.000000
v 609.500000 273.000000 0.000000
v 455.388794 7.555603 0.000000
v 382.500000 2.000000 0.000000
v 388.500000 29.000000 0.000000
vt 0.953123 0.909463
vt 0.962602 0.905958
vt 0.952084 0.897780
vt 0.955590 0.929907
vt 0.030516 0.924650
vt 0.026101 0.931659
vt 0.028827 0.939252
vt 0.025321 0.921729
vt 0.038177 0.935748
vt 0.029607 0.902453
vt 0.039865 0.911994
vt 0.048046 0.900896
vt 0.041683 0.878505
vt 0.055447 0.896807
vt 0.054149 0.869159
vt 0.063888 0.866238
vt 0.066095 0.895639
vt 0.070900 0.924650
vt 0.048305 0.955023
vt 0.086093 0.865654
vt 0.083496 0.894860
vt 0.141021 0.870911
vt 0.118772 0.877272
vt 0.154136 0.896807
vt 0.129204 0.895249
vt 0.160888 0.870327
vt 0.212050 0.903621
vt 0.206856 0.931659
vt 0.230230 0.927570
vt 0.181405 0.915693
vt 0.459767 0.807567
vt 0.456564 0.835670
vt 0.476691 0.819509
vt 0.440852 0.796664
vt 0.199065 0.851636
vt 0.188937 0.884540
vt 0.343462 0.837812
vt 0.354932 0.799650
vt 0.329827 0.802116
vt 0.356967 0.838201
vt 0.272692 0.807243
vt 0.236939 0.839694
vt 0.376185 0.858515
vt 0.398368 0.897521
vt 0.399234 0.841511
vt 0.372354 0.895833
vt 0.320608 0.785631
vt 0.297018 0.813409
vt 0.415206 0.843069
vt 0.422781 0.898040
vt 0.439121 0.858710
vt 0.409622 0.844042
vt 0.340865 0.780958
vt 0.394602 0.804452
vt 0.366965 0.779790
vt 0.381379 0.782126
vt 0.379193 0.820613
vt 0.480327 0.738318
vt 0.498031 0.751298
vt 0.497857 0.719237
vt 0.490975 0.784722
vt 0.403194 0.789720
vt 0.940787 0.911799
vt 0.946111 0.884540
vt 0.412544 0.789720
vt 0.944942 0.933411
vt 0.952863 0.934579
vt 0.950656 0.922702
vt 0.945462 0.938084
vt 0.419945 0.786799
vt 0.430572 0.821846
vt 0.446046 0.767523
vt 0.817686 0.910631
vt 0.804051 0.905958
vt 0.800545 0.911215
vt 0.817037 0.908100
vt 0.467688 0.775117
vt 0.890923 0.470794
vt 0.849024 0.490200
vt 0.867290 0.517264
vt 0.869411 0.446262
vt 0.496299 0.716706
vt 0.520755 0.730659
vt 0.516946 0.702687
vt 0.533091 0.718523
vt 0.906116 0.494159
vt 0.898195 0.505257
vt 0.905337 0.507009
vt 0.900792 0.489291
vt 0.531749 0.681075
vt 0.534866 0.682827
vt 0.555902 0.664720
vt 0.924036 0.652259
vt 0.929100 0.669977
vt 0.928711 0.657710
vt 0.904515 0.676012
vt 0.594468 0.633762
vt 0.581569 0.682178
vt 0.894040 0.476051
vt 0.903000 0.484813
vt 0.893390 0.493185
vt 0.597585 0.627921
vt 0.626109 0.632593
vt 0.881314 0.282905
vt 0.887028 0.278037
vt 0.882743 0.264603
vt 0.887028 0.287383
vt 0.573822 0.357087
vt 0.555123 0.345794
vt 0.569536 0.369743
vt 0.563693 0.327103
vt 0.596806 0.620327
vt 0.592520 0.214953
vt 0.599143 0.200156
vt 0.594468 0.201519
vt 0.608363 0.239486
vt 0.589404 0.592874
vt 0.609272 0.588980
vt 0.550838 0.365070
vt 0.551227 0.380257
vt 0.573627 0.521612
vt 0.595291 0.563149
vt 0.557850 0.450350
vt 0.581093 0.480010
vt 0.559668 0.414071
vt 0.578626 0.347936
vt 0.623296 0.358580
vt 0.616760 0.386358
vt 0.646929 0.392718
vt 0.597585 0.366238
vt 0.569536 0.318341
vt 0.583820 0.342095
vt 0.648357 0.260709
vt 0.674718 0.231893
vt 0.659135 0.213201
vt 0.676449 0.262980
vt 0.630567 0.238902
vt 0.624378 0.268237
vt 0.639398 0.248442
vt 0.579275 0.309579
vt 0.647016 0.301856
vt 0.584340 0.300234
vt 0.599489 0.317692
vt 0.603039 0.185164
vt 0.597585 0.191589
vt 0.611739 0.197430
vt 0.588430 0.257593
vt 0.606025 0.285501
vt 0.595074 0.251558
vt 0.624335 0.203855
vt 0.648228 0.203271
vt 0.610440 0.183995
vt 0.632256 0.193341
vt 0.584859 0.394276
vt 0.579449 0.520768
vt 0.591092 0.519081
vt 0.789248 0.322040
vt 0.767476 0.306269
vt 0.763667 0.334696
vt 0.790287 0.308606
vt 0.686015 0.250000
vt 0.887028 0.188084
vt 0.882353 0.188279
vt 0.890923 0.202103
vt 0.882743 0.179322
vt 0.688742 0.250584
vt 0.855863 0.098131
vt 0.845604 0.091316
vt 0.857811 0.115070
vt 0.849630 0.078271
vt 0.696533 0.231308
vt 0.713717 0.250065
vt 0.838203 0.074377
vt 0.842228 0.068341
vt 0.835606 0.064252
vt 0.847033 0.080218
vt 0.688352 0.199766
vt 0.691858 0.208139
vt 0.700818 0.174650
vt 0.691079 0.213201
vt 0.696533 0.227220
vt 0.712115 0.216381
vt 0.687963 0.183995
vt 0.689521 0.163551
vt 0.719127 0.146028
vt 0.702766 0.135903
vt 0.698481 0.153427
vt 0.708220 0.120911
vt 0.717959 0.112734
vt 0.694585 0.144276
vt 0.700818 0.131425
vt 0.738735 0.138824
vt 0.742891 0.098131
vt 0.752803 0.109359
vt 0.836125 0.296534
vt 0.844566 0.308411
vt 0.850019 0.301986
vt 0.840280 0.309579
vt 0.776782 0.091121
vt 0.804181 0.098326
vt 0.805999 0.062500
vt 0.793663 0.063084
vt 0.813920 0.088785
vt 0.777951 0.088785
vt 0.828983 0.079439
vt 0.831191 0.117017
vt 0.778340 0.071846
vt 0.787430 0.074377
vt 0.789638 0.053154
vt 0.796650 0.054907
vt 0.785223 0.063084
vt 0.780678 0.062500
vt 0.784573 0.056075
vt 0.823140 0.060748
vt 0.818422 0.129478
vt 0.819894 0.173092
vt 0.836688 0.144990
vt 0.796607 0.157321
vt 0.835995 0.307243
vt 0.844306 0.276480
vt 0.854175 0.282126
vt 0.858979 0.144860
vt 0.862745 0.222936
vt 0.864823 0.155958
vt 0.842704 0.170885
vt 0.839155 0.251493
vt 0.823919 0.283294
vt 0.826256 0.285631
vt 0.803186 0.218977
vt 0.873393 0.165304
vt 0.849240 0.194704
vt 0.831018 0.217030
vt 0.854045 0.201519
vt 0.882743 0.260514
vt 0.873003 0.275117
vt 0.865862 0.254673
vt 0.865602 0.306075
vt 0.874172 0.292251
vt 0.867290 0.290304
vt 0.874172 0.306075
vt 0.890923 0.220210
vt 0.880665 0.295171
vt 0.885080 0.294393
vt 0.880795 0.301402
vt 0.876899 0.416472
vt 0.856772 0.389798
vt 0.858027 0.419263
vt 0.868589 0.381036
vt 0.848851 0.356893
vt 0.830541 0.341706
vt 0.841492 0.378180
vt 0.853526 0.300234
vt 0.832100 0.301986
vt 0.711726 0.331776
vt 0.703545 0.305491
vt 0.693676 0.322560
vt 0.710687 0.305101
vt 0.710947 0.352220
vt 0.684370 0.341446
vt 0.687443 0.384151
vt 0.710168 0.334112
vt 0.815349 0.309579
vt 0.793317 0.264149
vt 0.814959 0.316005
vt 0.782236 0.129997
vt 0.760421 0.143497
vt 0.705623 0.271612
vt 0.694975 0.278232
vt 0.768082 0.346768
vt 0.815219 0.356179
vt 0.819634 0.327687
vt 0.796260 0.338980
vt 0.605376 0.577492
vt 0.890923 0.421729
vt 0.879107 0.383762
vt 0.876120 0.372664
vt 0.882743 0.384346
vt 0.865991 0.364486
vt 0.881834 0.396223
vt 0.888586 0.402453
vt 0.840410 0.451519
vt 0.895208 0.532710
vt 0.869757 0.548416
vt 0.813271 0.525896
vt 0.757896 0.556842
vt 0.814570 0.536020
vt 0.758473 0.518432
vt 0.901658 0.654984
vt 0.925984 0.681075
vt 0.925594 0.688084
vt 0.895598 0.546145
vt 0.836774 0.902453
vt 0.856469 0.866822
vt 0.825347 0.880776
vt 0.846124 0.907710
vt 0.899104 0.563084
vt 0.928970 0.848326
vt 0.932649 0.814901
vt 0.913648 0.838396
vt 0.945072 0.834112
vt 0.917413 0.617991
vt 0.893347 0.625260
vt 0.889755 0.932827
vt 0.891573 0.887266
vt 0.873003 0.918808
vt 0.902610 0.895249
vt 0.918582 0.939836
vt 0.908453 0.934969
vt 0.906506 0.939836
vt 0.922867 0.905179
vt 0.929100 0.932243
vt 0.933775 0.932243
vt 0.949747 0.850467
vt 0.959486 0.870911
vt 0.928191 0.872469
vt 0.939229 0.772196
vt 0.921785 0.749286
vt 0.917803 0.799390
vt 0.900532 0.787578
vt 0.794312 0.913551
vt 0.788859 0.909268
vt 0.787300 0.912383
vt 0.962992 0.890187
vt 0.774055 0.903037
vt 0.744449 0.878375
vt 0.768212 0.905374
vt 0.790951 0.825167
vt 0.885426 0.843523
vt 0.865083 0.830997
vt 0.877548 0.861176
vt 0.893088 0.818990
vt 0.856642 0.908879
vt 0.877202 0.887526
vt 0.862485 0.914136
vt 0.638532 0.875130
vt 0.653422 0.838396
vt 0.629529 0.841316
vt 0.664070 0.871885
vt 0.610180 0.703855
vt 0.859022 0.628310
vt 0.863524 0.694704
vt 0.845734 0.831581
vt 0.899494 0.737344
vt 0.887157 0.706386
vt 0.753337 0.818612
vt 0.816878 0.687511
vt 0.836183 0.723921
vt 0.861057 0.799650
vt 0.848072 0.799909
vt 0.673029 0.742536
vt 0.657490 0.800299
vt 0.671082 0.795626
vt 0.641735 0.729751
vt 0.802969 0.880646
vt 0.778730 0.904206
vt 0.832879 0.902453
vt 0.677315 0.832749
vt 0.691945 0.864681
vt 0.694196 0.824377
vt 0.586028 0.851051
vt 0.559711 0.828531
vt 0.567069 0.886098
vt 0.575943 0.789720
vt 0.751850 0.917640
vt 0.624594 0.912059
vt 0.613946 0.951519
vt 0.632645 0.945678
vt 0.611609 0.949182
vt 0.561702 0.698533
vt 0.711076 0.856308
vt 0.705882 0.816978
vt 0.680604 0.790369
vt 0.696879 0.769990
vt 0.598147 0.915498
vt 0.609055 0.880517
vt 0.584123 0.913357
vt 0.649180 0.909528
vt 0.555209 0.918419
vt 0.569536 0.942757
vt 0.733152 0.927570
vt 0.732762 0.885774
vt 0.704324 0.936916
vt 0.710557 0.896288
vt 0.521880 0.926791
vt 0.550448 0.948014
vt 0.535861 0.897391
vt 0.661473 0.944509
vt 0.681037 0.904725
vt 0.445592 0.897391
vt 0.471216 0.870911
vt 0.486928 0.909917
vt 0.588235 0.950350
vt 0.596806 0.946262
vt 0.328009 0.839759
vt 0.343397 0.876493
vt 0.313379 0.860981
vt 0.503701 0.952687
vt 0.272692 0.892718
vt 0.261481 0.853388
vt 0.252391 0.891550
vt 0.281046 0.849104
vt 0.413128 0.952687
vt 0.454140 0.934255
vt 0.271004 0.940031
vt 0.262563 0.947430
vt 0.267628 0.949182
vt 0.256590 0.937695
vt 0.322556 0.952687
vt 0.369346 0.933736
vt 0.299961 0.949182
vt 0.312297 0.932567
vt 0.256720 0.942173
vt 0.176471 0.945093
vt 0.245423 0.921729
vt 0.236463 0.894081
vt 0.224906 0.900312
vt 0.221010 0.870717
vt 0.239060 0.860202
vt 0.165952 0.921534
vt 0.160499 0.949182
vt 0.098299 0.923287
vt 0.104532 0.894730
vt 0.102368 0.942497
vt 0.036619 0.949766
vt 0.129334 0.922573
vt 0.147946 0.913746
vt 0.511492 0.879673
vt 0.481582 0.844951
vt 0.295676 0.912578
vt 0.281219 0.927310
vt 0.315457 0.824247
vt 0.297754 0.847352
vt 0.336428 0.914785
vt 0.314375 0.895833
vt 0.547461 0.770055
vt 0.520409 0.761877
vt 0.545643 0.864486
vt 0.536337 0.810293
vt 0.524347 0.846833
vt 0.515907 0.796340
vt 0.501363 0.831841
vt 0.914816 0.868705
vt 0.838679 0.409722
vt 0.636930 0.679517
vt 0.671471 0.680880
vt 0.558888 0.733645
vt 0.621867 0.773040
vt 0.641562 0.803154
vt 0.594338 0.748053
vt 0.713284 0.812111
vt 0.568238 0.381231
vt 0.569926 0.411604
vt 0.658140 0.593907
vt 0.624594 0.552765
vt 0.635112 0.607542
vt 0.665397 0.558140
vt 0.615115 0.542056
vt 0.620049 0.552765
vt 0.588755 0.336059
vt 0.594338 0.470600
vt 0.585119 0.444899
vt 0.585638 0.430491
vt 0.603904 0.339694
vt 0.605765 0.400117
vt 0.625590 0.406218
vt 0.624075 0.425818
vt 0.670216 0.289006
vt 0.625373 0.316783
vt 0.646539 0.345859
vt 0.657577 0.406737
vt 0.663290 0.360981
vt 0.675627 0.362150
vt 0.667316 0.328076
vt 0.688612 0.303933
vt 0.629918 0.519276
vt 0.633424 0.518692
vt 0.637709 0.442173
vt 0.760551 0.455607
vt 0.754577 0.384476
vt 0.731896 0.401350
vt 0.782496 0.396742
vt 0.722330 0.286410
vt 0.794399 0.357866
vt 0.791066 0.330413
vt 0.768905 0.263889
vt 0.765745 0.200545
vt 0.731766 0.267134
vt 0.735186 0.207490
vt 0.738995 0.247274
vt 0.751807 0.243445
vt 0.728563 0.173741
vt 0.741202 0.161799
vt 0.818855 0.387850
vt 0.806605 0.431659
vt 0.738605 0.347547
vt 0.761460 0.327687
vt 0.750682 0.282516
vt 0.730987 0.306854
vt 0.747912 0.314382
vt 0.713674 0.358061
vt 0.804744 0.477674
vt 0.701294 0.445807
vt 0.703718 0.509411
vt 0.730814 0.452622
vt 0.685063 0.474364
vt 0.673797 0.636697
vt 0.700039 0.397391
vt 0.667446 0.421534
vt 0.671991 0.435164
vt 0.650954 0.464369
vt 0.730295 0.524533
vt 0.731853 0.504868
vt 0.737021 0.743266
vt 0.740471 0.698392
vt 0.703220 0.723290
vt 0.772672 0.740687
vt 0.842704 0.575416
vt 0.772209 0.686462
vt 0.757564 0.642804
vt 0.826127 0.831776
vt 0.786159 0.648538
vt 0.814438 0.627143
vt 0.728824 0.609974
vt 0.785944 0.591046
vt 0.706670 0.678416
vt 0.823717 0.769611
vt 0.879323 0.784982
vt 0.768558 0.495457
vt 0.872354 0.736371
vt 0.836212 0.855270
vt 0.894256 0.862279
vt 0.603298 0.813474
vt 0.717186 0.767121
vt 0.294940 0.878634
vt 0.609899 0.504608
vt 0.700631 0.548730
vt 0.735099 0.351051
vt 0.642774 0.511682
vt 0.599143 0.447430
vt 0.598364 0.436916
vt 0.600701 0.404206
vt 0.602649 0.398364
vt 0.692952 0.613015
vt 0.674025 0.511682
vt 0.725826 0.654734
vt 0.612583 0.480724
vt 0.626023 0.514019
vt 0.731593 0.332944
vt 0.737437 0.340537
vt 0.677401 0.495587
vt 0.649007 0.498832
vt 0.651344 0.483061
g Default
usemtl Default
f 284/284 285/285 286/286
f 285/285 284/284 287/287
f 286/286 79/79 284/284
f 325/325 327/327 345/345
f 444/444 353/353 445/445
f 370/370 345/345 450/450
f 287/287 511/511 285/285
f 511/511 287/287 512/512
f 513/513 514/514 515/515
f 514/514 513/513 516/516
f 518/518 514/514 516/516
f 514/514 518/518 519/519
f 346/346 521/521 518/518
f 521/521 346/346 522/522
f 519/519 285/285 523/523
f 285/285 519/519 524/524
f 445/445 353/353 350/350
f 445/445 525/525 506/506
f 525/525 445/445 515/515
f 521/521 524/524 519/519
f 524/524 521/521 522/522
f 287/287 284/284 528/528
f 517/517 524/524 522/522
f 524/524 517/517 286/286
f 526/526 516/516 327/327
f 345/345 533/533 450/450
f 533/533 345/345 513/513
f 513/513 345/345 516/516
f 371/371 450/450 373/373
f 523/523 511/511 536/536
f 511/511 523/523 285/285
f 503/503 511/511 512/512
f 506/506 444/444 445/445
f 286/286 285/285 524/524
f 327/327 516/516 345/345
f 516/516 346/346 518/518
f 373/373 450/450 533/533
f 373/373 515/515 350/350
f 515/515 373/373 533/533
f 445/445 350/350 515/515
f 523/523 536/536 543/543
f 506/506 525/525 543/543
f 523/523 543/543 545/545
f 543/543 453/453 506/506
f 528/528 512/512 287/287
f 515/515 514/514 525/525
f 515/515 533/533 513/513
f 545/545 543/543 525/525
f 525/525 514/514 545/545
f 514/514 519/519 545/545
f 523/523 545/545 519/519
f 519/519 518/518 521/521
f 249/249 250/250 251/251
f 157/157 159/159 269/269
f 270/270 271/271 272/272
f 271/271 270/270 250/250
f 271/271 264/264 272/272
f 278/278 249/249 246/246
f 251/251 250/250 270/270
f 246/246 443/443 247/247
f 443/443 246/246 251/251
f 478/478 479/479 480/480
f 479/479 478/478 481/481
f 483/483 484/484 269/269
f 484/484 483/483 272/272
f 246/246 249/249 251/251
f 443/443 251/251 493/493
f 493/493 494/494 443/443
f 494/494 493/493 481/481
f 272/272 264/264 484/484
f 157/157 269/269 484/484
f 495/495 269/269 159/159
f 269/269 495/495 479/479
f 159/159 496/496 495/495
f 251/251 270/270 493/493
f 443/443 494/494 281/281
f 483/483 493/493 270/270
f 493/493 483/483 481/481
f 483/483 269/269 481/481
f 501/501 281/281 494/494
f 281/281 501/501 79/79
f 79/79 501/501 284/284
f 528/528 284/284 501/501
f 479/479 495/495 537/537
f 478/478 480/480 504/504
f 504/504 480/480 502/502
f 478/478 512/512 528/528
f 512/512 478/478 504/504
f 281/281 247/247 443/443
f 270/270 272/272 483/483
f 481/481 269/269 479/479
f 481/481 478/478 494/494
f 494/494 478/478 501/501
f 501/501 478/478 528/528
f 480/480 479/479 537/537
f 507/507 480/480 500/500
f 500/500 480/480 537/537
f 495/495 496/496 549/549
f 104/104 105/105 106/106
f 105/105 104/104 107/107
f 157/157 158/158 159/159
f 158/158 157/157 160/160
f 162/162 163/163 164/164
f 163/163 162/162 165/165
f 167/167 168/168 169/169
f 168/168 167/167 170/170
f 171/171 166/166 172/172
f 173/173 174/174 175/175
f 174/174 173/173 176/176
f 177/177 178/178 179/179
f 178/178 177/177 180/180
f 181/181 171/171 182/182
f 183/183 179/179 184/184
f 179/179 183/183 177/177
f 180/180 181/181 178/178
f 185/185 186/186 187/187
f 186/186 185/185 188/188
f 188/188 185/185 189/189
f 179/179 178/178 182/182
f 190/190 184/184 187/187
f 185/185 187/187 179/179
f 191/191 190/190 186/186
f 182/182 178/178 181/181
f 188/188 191/191 186/186
f 189/189 185/185 192/192
f 193/193 192/192 194/194
f 192/192 193/193 189/189
f 195/195 196/196 197/197
f 196/196 195/195 198/198
f 199/199 193/193 194/194
f 200/200 201/201 202/202
f 201/201 200/200 203/203
f 204/204 199/199 200/200
f 205/205 168/168 173/173
f 168/168 205/205 206/206
f 207/207 204/204 208/208
f 209/209 202/202 210/210
f 202/202 209/209 211/211
f 212/212 207/207 211/211
f 211/211 209/209 213/213
f 213/213 212/212 211/211
f 211/211 207/207 208/208
f 202/202 211/211 208/208
f 201/201 210/210 202/202
f 174/174 176/176 170/170
f 203/203 214/214 201/201
f 214/214 203/203 205/205
f 204/204 200/200 208/208
f 175/175 214/214 205/205
f 168/168 206/206 169/169
f 215/215 216/216 217/217
f 216/216 215/215 218/218
f 198/198 195/195 219/219
f 197/197 220/220 195/195
f 220/220 197/197 221/221
f 222/222 169/169 217/217
f 164/164 163/163 223/223
f 224/224 222/222 225/225
f 226/226 227/227 228/228
f 227/227 226/226 229/229
f 230/230 224/224 231/231
f 232/232 223/223 233/233
f 223/223 232/232 226/226
f 165/165 230/230 163/163
f 223/223 163/163 233/233
f 234/234 235/235 106/106
f 235/235 234/234 236/236
f 237/237 238/238 239/239
f 238/238 237/237 240/240
f 241/241 164/164 223/223
f 104/104 242/242 243/243
f 242/242 104/104 238/238
f 234/234 241/241 236/236
f 238/238 240/240 244/244
f 238/238 235/235 239/239
f 235/235 238/238 104/104
f 235/235 236/236 221/221
f 243/243 107/107 104/104
f 244/244 243/243 242/242
f 221/221 197/197 252/252
f 219/219 195/195 253/253
f 252/252 237/237 239/239
f 226/226 228/228 220/220
f 230/230 231/231 233/233
f 254/254 255/255 256/256
f 255/255 254/254 257/257
f 262/262 227/227 263/263
f 262/262 160/160 264/264
f 160/160 262/262 263/263
f 231/231 224/224 225/225
f 171/171 172/172 182/182
f 228/228 253/253 195/195
f 229/229 216/216 218/218
f 216/216 229/229 232/232
f 215/215 217/217 206/206
f 194/194 265/265 199/199
f 265/265 194/194 266/266
f 166/166 267/267 172/172
f 257/257 267/267 255/255
f 267/267 257/257 482/482
f 163/163 230/230 233/233
f 175/175 205/205 173/173
f 168/168 170/170 176/176
f 173/173 168/168 176/176
f 169/169 206/206 217/217
f 264/264 160/160 157/157
f 267/267 268/268 255/255
f 229/229 485/485 263/263
f 485/485 229/229 486/486
f 482/482 172/172 267/267
f 172/172 482/482 487/487
f 488/488 489/489 490/490
f 489/489 488/488 182/182
f 187/187 184/184 179/179
f 186/186 190/190 187/187
f 185/185 179/179 491/491
f 182/182 491/491 179/179
f 491/491 182/182 488/488
f 486/486 266/266 492/492
f 266/266 486/486 218/218
f 192/192 185/185 492/492
f 192/192 492/492 266/266
f 263/263 227/227 229/229
f 492/492 488/488 486/486
f 488/488 492/492 491/491
f 488/488 490/490 486/486
f 208/208 200/200 202/202
f 206/206 205/205 203/203
f 203/203 200/200 215/215
f 200/200 199/199 265/265
f 200/200 265/265 215/215
f 206/206 203/203 215/215
f 229/229 218/218 486/486
f 225/225 222/222 217/217
f 228/228 195/195 220/220
f 232/232 225/225 216/216
f 225/225 232/232 231/231
f 241/241 223/223 236/236
f 232/232 233/233 231/231
f 223/223 226/226 236/236
f 252/252 239/239 221/221
f 236/236 220/220 221/221
f 220/220 236/236 226/226
f 235/235 221/221 239/239
f 104/104 106/106 235/235
f 238/238 244/244 242/242
f 484/484 264/264 157/157
f 485/485 486/486 490/490
f 496/496 159/159 158/158
f 172/172 487/487 489/489
f 497/497 498/498 499/499
f 498/498 497/497 487/487
f 158/158 499/499 496/496
f 499/499 158/158 497/497
f 485/485 160/160 263/263
f 160/160 485/485 158/158
f 489/489 497/497 490/490
f 497/497 489/489 487/487
f 489/489 182/182 172/172
f 194/194 192/192 266/266
f 215/215 265/265 218/218
f 229/229 226/226 232/232
f 497/497 158/158 485/485
f 217/217 216/216 225/225
f 266/266 218/218 265/265
f 482/482 257/257 498/498
f 498/498 487/487 482/482
f 497/497 485/485 490/490
f 185/185 491/491 492/492
f 498/498 257/257 254/254
f 499/499 498/498 548/548
f 496/496 499/499 549/549
f 254/254 548/548 498/498
f 549/549 499/499 548/548
f 258/258 259/259 260/260
f 259/259 258/258 261/261
f 453/453 454/454 455/455
f 454/454 453/453 456/456
f 464/464 465/465 128/128
f 465/465 464/464 466/466
f 470/470 471/471 129/129
f 471/471 470/470 472/472
f 470/470 129/129 477/477
f 473/473 472/472 259/259
f 472/472 470/470 260/260
f 259/259 261/261 256/256
f 254/254 256/256 261/261
f 258/258 260/260 500/500
f 502/502 503/503 504/504
f 503/503 502/502 505/505
f 507/507 508/508 509/509
f 508/508 507/507 260/260
f 510/510 509/509 508/508
f 509/509 510/510 505/505
f 477/477 129/129 465/465
f 260/260 470/470 508/508
f 472/472 260/260 259/259
f 511/511 503/503 536/536
f 510/510 508/508 477/477
f 476/476 456/456 538/538
f 260/260 507/507 500/500
f 507/507 509/509 502/502
f 508/508 470/470 477/477
f 129/129 128/128 465/465
f 256/256 473/473 259/259
f 536/536 544/544 456/456
f 544/544 536/536 503/503
f 456/456 543/543 536/536
f 543/543 456/456 453/453
f 455/455 506/506 453/453
f 504/504 503/503 512/512
f 507/507 502/502 480/480
f 502/502 509/509 505/505
f 544/544 503/503 550/550
f 503/503 505/505 550/550
f 456/456 544/544 538/538
f 538/538 544/544 551/551
f 550/550 552/552 551/551
f 552/552 550/550 505/505
f 544/544 550/550 551/551
f 552/552 505/505 510/510
f 477/477 465/465 466/466
f 78/78 79/79 80/80
f 79/79 78/78 81/81
f 86/86 87/87 88/88
f 87/87 86/86 89/89
f 99/99 89/89 100/100
f 89/89 99/99 101/101
f 245/245 246/246 247/247
f 246/246 245/245 248/248
f 81/81 274/274 245/245
f 274/274 81/81 78/78
f 275/275 276/276 248/248
f 276/276 275/275 277/277
f 248/248 276/276 278/278
f 279/279 277/277 275/275
f 277/277 279/279 280/280
f 79/79 81/81 281/281
f 274/274 280/280 245/245
f 282/282 80/80 283/283
f 80/80 282/282 87/87
f 87/87 89/89 101/101
f 99/99 78/78 101/101
f 86/86 100/100 89/89
f 79/79 286/286 80/80
f 282/282 88/88 87/87
f 291/291 282/282 283/283
f 296/296 291/291 283/283
f 101/101 78/78 80/80
f 80/80 87/87 101/101
f 245/245 280/280 279/279
f 245/245 247/247 81/81
f 248/248 245/245 279/279
f 248/248 278/278 246/246
f 275/275 248/248 279/279
f 80/80 517/517 283/283
f 517/517 80/80 286/286
f 340/340 283/283 517/517
f 281/281 81/81 247/247
f 296/296 283/283 302/302
f 93/93 94/94 95/95
f 94/94 93/93 96/96
f 96/96 93/93 288/288
f 289/289 96/96 290/290
f 96/96 289/289 94/94
f 298/298 297/297 300/300
f 301/301 296/296 302/302
f 95/95 301/301 93/93
f 316/316 290/290 317/317
f 300/300 316/316 298/298
f 297/297 313/313 300/300
f 317/317 318/318 316/316
f 318/318 317/317 319/319
f 329/329 328/328 331/331
f 340/340 288/288 302/302
f 288/288 340/340 341/341
f 293/293 329/329 342/342
f 290/290 343/343 317/317
f 343/343 290/290 344/344
f 346/346 341/341 340/340
f 341/341 346/346 347/347
f 348/348 342/342 329/329
f 342/342 348/348 349/349
f 93/93 301/301 288/288
f 354/354 520/520 327/327
f 283/283 340/340 302/302
f 344/344 290/290 96/96
f 526/526 520/520 349/349
f 520/520 526/526 327/327
f 319/319 343/343 527/527
f 343/343 319/319 317/317
f 299/299 318/318 331/331
f 318/318 299/299 298/298
f 527/527 343/343 529/529
f 293/293 342/342 530/530
f 348/348 329/329 331/331
f 348/348 529/529 349/349
f 529/529 348/348 527/527
f 346/346 340/340 522/522
f 529/529 341/341 347/347
f 341/341 529/529 344/344
f 301/301 302/302 288/288
f 331/331 318/318 319/319
f 349/349 520/520 342/342
f 520/520 294/294 530/530
f 342/342 520/520 530/530
f 516/516 526/526 346/346
f 288/288 341/341 96/96
f 96/96 341/341 344/344
f 517/517 522/522 340/340
f 298/298 316/316 318/318
f 331/331 319/319 527/527
f 344/344 529/529 343/343
f 529/529 347/347 526/526
f 346/346 526/526 347/347
f 349/349 529/529 526/526
f 331/331 527/527 348/348
f 1/1 2/2 3/3
f 2/2 1/1 4/4
f 3/3 63/63 1/1
f 63/63 3/3 64/64
f 66/66 67/67 68/68
f 67/67 66/66 69/69
f 63/63 68/68 1/1
f 68/68 63/63 66/66
f 73/73 74/74 75/75
f 74/74 73/73 76/76
f 292/292 293/293 294/294
f 293/293 292/292 295/295
f 297/297 298/298 299/299
f 303/303 304/304 305/305
f 304/304 303/303 306/306
f 307/307 308/308 309/309
f 308/308 307/307 310/310
f 311/311 63/63 310/310
f 63/63 311/311 312/312
f 68/68 67/67 4/4
f 313/313 64/64 314/314
f 64/64 313/313 315/315
f 310/310 307/307 311/311
f 313/313 297/297 315/315
f 320/320 321/321 322/322
f 321/321 320/320 75/75
f 323/323 314/314 64/64
f 2/2 323/323 3/3
f 328/328 329/329 330/330
f 312/312 69/69 66/66
f 332/332 333/333 293/293
f 333/333 332/332 334/334
f 303/303 309/309 308/308
f 293/293 295/295 332/332
f 329/329 293/293 330/330
f 334/334 305/305 333/333
f 321/321 75/75 74/74
f 356/356 292/292 294/294
f 73/73 356/356 76/76
f 355/355 322/322 321/321
f 4/4 1/1 68/68
f 66/66 63/63 312/312
f 323/323 64/64 3/3
f 310/310 315/315 442/442
f 315/315 310/310 64/64
f 306/306 303/303 308/308
f 64/64 310/310 63/63
f 356/356 294/294 76/76
f 354/354 355/355 321/321
f 74/74 76/76 354/354
f 520/520 354/354 294/294
f 333/333 305/305 304/304
f 531/531 306/306 442/442
f 306/306 531/531 304/304
f 531/531 330/330 304/304
f 330/330 531/531 328/328
f 310/310 306/306 308/308
f 306/306 310/310 442/442
f 299/299 531/531 442/442
f 531/531 299/299 328/328
f 297/297 442/442 315/315
f 442/442 297/297 299/299
f 304/304 330/330 333/333
f 321/321 74/74 354/354
f 294/294 293/293 530/530
f 299/299 331/331 328/328
f 333/333 330/330 293/293
f 354/354 76/76 294/294
f 117/117 112/112 118/118
f 121/121 117/117 122/122
f 123/123 121/121 124/124
f 124/124 155/155 156/156
f 155/155 124/124 121/121
f 273/273 117/117 118/118
f 117/117 273/273 122/122
f 112/112 103/103 118/118
f 156/156 122/122 457/457
f 122/122 156/156 155/155
f 273/273 118/118 458/458
f 458/458 457/457 122/122
f 457/457 458/458 454/454
f 124/124 156/156 460/460
f 461/461 124/124 460/460
f 124/124 461/461 123/123
f 452/452 123/123 462/462
f 475/475 454/454 476/476
f 454/454 475/475 457/457
f 458/458 118/118 454/454
f 454/454 118/118 455/455
f 460/460 156/156 535/535
f 462/462 123/123 461/461
f 456/456 476/476 454/454
f 458/458 122/122 273/273
f 539/539 461/461 460/460
f 461/461 539/539 540/540
f 462/462 461/461 540/540
f 535/535 156/156 457/457
f 155/155 121/121 122/122
f 118/118 103/103 455/455
f 460/460 535/535 546/546
f 535/535 457/457 547/547
f 547/547 457/457 475/475
f 460/460 546/546 539/539
f 546/546 535/535 547/547
f 108/108 109/109 110/110
f 109/109 108/108 111/111
f 110/110 119/119 120/120
f 119/119 110/110 109/109
f 120/120 123/123 125/125
f 111/111 108/108 126/126
f 128/128 127/127 130/130
f 131/131 126/126 132/132
f 126/126 131/131 111/111
f 140/140 131/131 132/132
f 110/110 130/130 108/108
f 130/130 110/110 154/154
f 130/130 126/126 108/108
f 126/126 130/130 132/132
f 451/451 125/125 452/452
f 125/125 451/451 120/120
f 110/110 120/120 451/451
f 154/154 110/110 451/451
f 154/154 451/451 452/452
f 140/140 132/132 459/459
f 132/132 130/130 459/459
f 123/123 452/452 125/125
f 130/130 463/463 459/459
f 140/140 459/459 143/143
f 452/452 462/462 154/154
f 154/154 462/462 541/541
f 130/130 154/154 542/542
f 128/128 130/130 542/542
f 128/128 542/542 464/464
f 540/540 541/541 462/462
f 154/154 541/541 542/542
f 113/113 114/114 115/115
f 114/114 113/113 116/116
f 127/127 128/128 129/129
f 133/133 134/134 135/135
f 134/134 133/133 136/136
f 137/137 138/138 139/139
f 138/138 137/137 116/116
f 138/138 133/133 139/139
f 133/133 138/138 141/141
f 142/142 140/140 143/143
f 114/114 144/144 145/145
f 144/144 114/114 146/146
f 147/147 142/142 148/148
f 114/114 145/145 115/115
f 113/113 147/147 149/149
f 150/150 116/116 137/137
f 116/116 150/150 146/146
f 147/147 148/148 149/149
f 151/151 137/137 139/139
f 137/137 151/151 150/150
f 133/133 135/135 139/139
f 152/152 144/144 146/146
f 153/153 152/152 150/150
f 151/151 153/153 150/150
f 135/135 151/151 139/139
f 161/161 134/134 136/136
f 166/166 161/161 136/136
f 267/267 166/166 268/268
f 463/463 130/130 127/127
f 149/149 148/148 116/116
f 467/467 133/133 141/141
f 133/133 467/467 136/136
f 468/468 469/469 141/141
f 469/469 468/468 127/127
f 166/166 136/136 268/268
f 468/468 143/143 463/463
f 143/143 468/468 148/148
f 141/141 469/469 473/473
f 143/143 459/459 463/463
f 141/141 138/138 468/468
f 467/467 268/268 136/136
f 268/268 467/467 474/474
f 116/116 146/146 114/114
f 116/116 148/148 138/138
f 116/116 113/113 149/149
f 150/150 152/152 146/146
f 471/471 473/473 469/469
f 473/473 471/471 472/472
f 474/474 473/473 256/256
f 473/473 474/474 467/467
f 255/255 268/268 474/474
f 255/255 474/474 256/256
f 127/127 129/129 469/469
f 127/127 468/468 463/463
f 141/141 473/473 467/467
f 468/468 138/138 148/148
f 148/148 142/142 143/143
f 469/469 129/129 471/471
f 31/31 32/32 33/33
f 32/32 31/31 34/34
f 58/58 59/59 60/60
f 59/59 58/58 61/61
f 70/70 65/65 71/71
f 72/72 70/70 34/34
f 58/58 72/72 77/77
f 82/82 58/58 60/60
f 83/83 84/84 60/60
f 84/84 83/83 85/85
f 84/84 82/82 60/60
f 90/90 84/84 91/91
f 91/91 84/84 85/85
f 92/92 90/90 91/91
f 97/97 92/92 98/98
f 102/102 97/97 103/103
f 112/112 102/102 103/103
f 339/339 97/97 98/98
f 97/97 339/339 103/103
f 92/92 369/369 98/98
f 369/369 92/92 91/91
f 77/77 31/31 33/33
f 31/31 77/77 72/72
f 77/77 33/33 61/61
f 33/33 32/32 428/428
f 70/70 71/71 34/34
f 369/369 91/91 85/85
f 435/435 83/83 436/436
f 83/83 435/435 85/85
f 437/437 438/438 439/439
f 440/440 439/439 438/438
f 439/439 440/440 441/441
f 71/71 51/51 32/32
f 51/51 71/71 49/49
f 353/353 444/444 339/339
f 59/59 83/83 60/60
f 83/83 59/59 436/436
f 435/435 440/440 438/438
f 440/440 435/435 436/436
f 441/441 61/61 33/33
f 61/61 441/441 440/440
f 85/85 446/446 369/369
f 446/446 85/85 435/435
f 447/447 353/353 339/339
f 449/449 339/339 98/98
f 339/339 449/449 447/447
f 363/363 446/446 435/435
f 446/446 363/363 449/449
f 103/103 506/506 455/455
f 506/506 103/103 444/444
f 532/532 449/449 363/363
f 449/449 532/532 447/447
f 441/441 33/33 428/428
f 51/51 390/390 32/32
f 32/32 34/34 71/71
f 72/72 34/34 31/31
f 61/61 58/58 77/77
f 61/61 440/440 436/436
f 59/59 61/61 436/436
f 449/449 98/98 369/369
f 103/103 339/339 444/444
f 363/363 435/435 361/361
f 361/361 435/435 438/438
f 449/449 369/369 446/446
f 428/428 32/32 390/390
f 428/428 427/427 441/441
f 324/324 325/325 326/326
f 325/325 324/324 327/327
f 335/335 336/336 337/337
f 336/336 335/335 338/338
f 350/350 351/351 352/352
f 351/351 350/350 353/353
f 354/354 324/324 355/355
f 324/324 354/354 327/327
f 357/357 358/358 359/359
f 358/358 357/357 338/338
f 360/360 361/361 362/362
f 361/361 360/360 363/363
f 364/364 326/326 325/325
f 365/365 366/366 367/367
f 366/366 365/365 368/368
f 359/359 370/370 371/371
f 370/370 359/359 358/358
f 350/350 372/372 373/373
f 372/372 350/350 352/352
f 374/374 375/375 376/376
f 375/375 374/374 365/365
f 377/377 365/365 367/367
f 365/365 377/377 335/335
f 378/378 376/376 362/362
f 376/376 378/378 379/379
f 380/380 364/364 381/381
f 382/382 380/380 383/383
f 378/378 384/384 385/385
f 387/387 382/382 388/388
f 367/367 387/387 377/377
f 392/392 366/366 393/393
f 379/379 392/392 376/376
f 385/385 379/379 378/378
f 376/376 375/375 360/360
f 438/438 437/437 361/361
f 353/353 447/447 448/448
f 345/345 370/370 325/325
f 387/387 388/388 377/377
f 336/336 351/351 448/448
f 351/351 336/336 357/357
f 358/358 338/338 388/388
f 376/376 393/393 374/374
f 393/393 376/376 392/392
f 337/337 336/336 448/448
f 357/357 336/336 338/338
f 381/381 364/364 325/325
f 357/357 372/372 352/352
f 372/372 357/357 359/359
f 371/371 372/372 359/359
f 372/372 371/371 373/373
f 388/388 383/383 358/358
f 383/383 388/388 382/382
f 362/362 361/361 437/437
f 337/337 360/360 375/375
f 360/360 337/337 532/532
f 532/532 363/363 360/360
f 450/450 371/371 370/370
f 393/393 366/366 368/368
f 337/337 375/375 335/335
f 393/393 368/368 374/374
f 377/377 338/338 335/335
f 338/338 377/377 388/388
f 370/370 381/381 325/325
f 381/381 370/370 383/383
f 383/383 370/370 358/358
f 368/368 365/365 374/374
f 365/365 335/335 375/375
f 383/383 380/380 381/381
f 357/357 352/352 351/351
f 351/351 353/353 448/448
f 376/376 360/360 362/362
f 386/386 362/362 437/437
f 362/362 386/386 378/378
f 448/448 532/532 337/337
f 532/532 448/448 447/447
f 49/49 50/50 51/51
f 384/384 378/378 386/386
f 389/389 390/390 51/51
f 390/390 389/389 391/391
f 397/397 385/385 384/384
f 402/402 397/397 403/403
f 390/390 427/427 428/428
f 427/427 390/390 391/391
f 51/51 50/50 389/389
f 427/427 384/384 386/386
f 384/384 427/427 391/391
f 427/427 439/439 441/441
f 439/439 427/427 437/437
f 384/384 391/391 397/397
f 437/437 427/427 386/386
f 389/389 403/403 391/391
f 403/403 389/389 50/50
f 403/403 50/50 402/402
f 44/44 402/402 50/50
f 397/397 391/391 403/403
f 44/44 43/43 46/46
f 408/408 402/402 409/409
f 43/43 395/395 46/46
f 46/46 433/433 409/409
f 433/433 46/46 395/395
f 44/44 409/409 402/402
f 409/409 44/44 46/46
f 433/433 411/411 408/408
f 411/411 433/433 434/434
f 408/408 409/409 433/433
f 37/37 38/38 39/39
f 38/38 37/37 40/40
f 43/43 44/44 45/45
f 50/50 49/49 52/52
f 53/53 47/47 39/39
f 52/52 54/54 45/45
f 54/54 52/52 49/49
f 55/55 53/53 38/38
f 56/56 55/55 57/57
f 62/62 56/56 54/54
f 65/65 62/62 54/54
f 39/39 38/38 53/53
f 394/394 395/395 37/37
f 395/395 394/394 396/396
f 65/65 54/54 49/49
f 65/65 49/49 71/71
f 37/37 39/39 394/394
f 40/40 395/395 43/43
f 395/395 40/40 37/37
f 56/56 57/57 54/54
f 57/57 55/55 38/38
f 431/431 432/432 396/396
f 45/45 44/44 52/52
f 57/57 38/38 40/40
f 45/45 57/57 43/43
f 57/57 45/45 54/54
f 431/431 396/396 394/394
f 431/431 47/47 48/48
f 47/47 431/431 39/39
f 50/50 52/52 44/44
f 434/434 433/433 395/395
f 395/395 396/396 434/434
f 396/396 534/534 434/434
f 40/40 43/43 57/57
f 394/394 39/39 431/431
f 27/27 28/28 29/29
f 28/28 27/27 30/30
f 41/41 35/35 42/42
f 47/47 41/41 48/48
f 398/398 399/399 400/400
f 399/399 398/398 401/401
f 404/404 405/405 406/406
f 405/405 404/404 407/407
f 410/410 408/408 411/411
f 405/405 407/407 412/412
f 407/407 398/398 400/400
f 398/398 407/407 404/404
f 406/406 410/410 404/404
f 29/29 414/414 415/415
f 416/416 29/29 415/415
f 29/29 416/416 27/27
f 417/417 27/27 416/416
f 27/27 417/417 36/36
f 414/414 412/412 407/407
f 400/400 399/399 418/418
f 35/35 36/36 417/417
f 410/410 429/429 430/430
f 429/429 410/410 411/411
f 432/432 431/431 48/48
f 415/415 414/414 400/400
f 399/399 41/41 42/42
f 41/41 399/399 401/401
f 417/417 42/42 35/35
f 42/42 417/417 418/418
f 410/410 430/430 404/404
f 401/401 48/48 41/41
f 48/48 401/401 432/432
f 534/534 396/396 432/432
f 434/434 534/534 429/429
f 401/401 534/534 432/432
f 534/534 401/401 398/398
f 407/407 400/400 414/414
f 398/398 404/404 430/430
f 417/417 415/415 418/418
f 415/415 417/417 416/416
f 42/42 418/418 399/399
f 411/411 434/434 429/429
f 400/400 418/418 415/415
f 398/398 429/429 534/534
f 429/429 398/398 430/430
f 5/5 6/6 7/7
f 6/6 5/5 8/8
f 5/5 7/7 9/9
f 10/10 8/8 5/5
f 11/11 10/10 5/5
f 10/10 11/11 12/12
f 13/13 10/10 12/12
f 13/13 12/12 14/14
f 15/15 13/13 14/14
f 16/16 15/15 17/17
f 18/18 9/9 19/19
f 9/9 18/18 11/11
f 20/20 16/16 21/21
f 22/22 20/20 23/23
f 24/24 22/22 25/25
f 22/22 24/24 26/26
f 35/35 26/26 36/36
f 413/413 28/28 30/30
f 36/36 24/24 30/30
f 24/24 36/36 26/26
f 413/413 419/419 420/420
f 419/419 413/413 30/30
f 421/421 21/21 18/18
f 21/21 421/421 422/422
f 18/18 21/21 17/17
f 19/19 420/420 423/423
f 5/5 9/9 11/11
f 424/424 19/19 9/9
f 7/7 424/424 9/9
f 11/11 18/18 12/12
f 15/15 14/14 17/17
f 16/16 17/17 21/21
f 14/14 12/12 18/18
f 17/17 14/14 18/18
f 25/25 422/422 425/425
f 422/422 25/25 23/23
f 25/25 426/426 24/24
f 426/426 25/25 425/425
f 25/25 22/22 23/23
f 426/426 420/420 419/419
f 420/420 426/426 425/425
f 30/30 27/27 36/36
f 30/30 24/24 419/419
f 419/419 24/24 426/426
f 421/421 425/425 422/422
f 425/425 421/421 423/423
f 423/423 18/18 19/19
f 18/18 423/423 421/421
f 23/23 20/20 422/422
f 422/422 20/20 21/21
f 423/423 420/420 425/425
