# Exported from shou_puppet.mdl by laobamac MDL Parser
mtllib shou.mtl
v 92.000000 113.000000 0.000000
v 98.000000 110.000000 0.000000
v 96.333313 113.000000 0.000000
v 94.111084 114.333328 0.000000
v 96.444397 115.333328 0.000000
v 94.000000 117.000000 0.000000
v 99.000000 116.000000 0.000000
v 405.000000 31.000000 0.000000
v 397.000000 37.000000 0.000000
v 399.333313 32.333328 0.000000
v 389.000000 35.000000 0.000000
v 394.000000 33.666672 0.000000
v 396.000000 29.000000 0.000000
v 150.000000 -49.333336 0.000000
v 152.666687 -49.777779 0.000000
v 154.000000 -47.000000 0.000000
v 151.000000 -52.111115 0.000000
v 147.000000 -47.000000 0.000000
v 149.000000 -54.000000 0.000000
v 154.000000 -53.000000 0.000000
v 432.333313 65.333328 0.000000
v 451.000000 58.000000 0.000000
v 456.000000 76.000000 0.000000
v 439.444397 55.444443 0.000000
v 480.000000 13.000000 0.000000
v 480.000000 16.000000 0.000000
v 475.666687 13.333328 0.000000
v 472.333313 9.666672 0.000000
v 473.000000 16.000000 0.000000
v 467.000000 13.666672 0.000000
v 474.000000 11.000000 0.000000
v 470.000000 2.000000 0.000000
v 446.000000 -11.000000 0.000000
v 458.000000 4.666672 0.000000
v 415.000000 53.333328 0.000000
v 404.000000 40.000000 0.000000
v 419.500000 41.500000 0.000000
v 396.833313 53.666672 0.000000
v 433.000000 -14.000000 0.000000
v 432.000000 -1.333328 0.000000
v 322.373230 56.614761 0.000000
v 339.457764 63.871582 0.000000
v 331.706543 76.614761 0.000000
v 336.000000 48.000000 0.000000
v 420.000000 -17.000000 0.000000
v 194.977722 15.431793 0.000000
v 217.738770 9.767059 0.000000
v 215.528076 35.708389 0.000000
v 186.646484 -10.181480 0.000000
v 435.500000 -20.500000 0.000000
v 416.666687 -29.000000 0.000000
v 451.000000 -24.000000 0.000000
v 454.666687 -39.666664 0.000000
v 458.000000 -33.333336 0.000000
v 445.000000 -43.333336 0.000000
v 434.333313 -32.000000 0.000000
v 461.000000 -44.000000 0.000000
v 452.000000 -51.000000 0.000000
v 462.000000 -32.000000 0.000000
v 432.000000 -55.000000 0.000000
v 427.666687 -38.666664 0.000000
v 412.444519 -41.666664 0.000000
v 384.000000 -54.000000 0.000000
v 401.555603 -50.000000 0.000000
v 388.666687 -41.000000 0.000000
v 401.111145 -28.333336 0.000000
v 336.000000 -53.000000 0.000000
v 361.000000 -44.888885 0.000000
v 209.298157 75.699844 0.000000
v 183.554382 70.838150 0.000000
v 204.329712 56.847778 0.000000
v 201.840027 89.778687 0.000000
v 331.513672 -54.313065 0.000000
v 328.897461 -43.383286 0.000000
v 128.333313 101.666672 0.000000
v 120.500000 86.500000 0.000000
v 136.333313 99.333328 0.000000
v 122.500000 101.500000 0.000000
v 295.000000 -65.000000 0.000000
v 314.122620 -54.205132 0.000000
v 210.961670 -20.976212 0.000000
v 183.653870 -31.769844 0.000000
v 204.764954 -41.103180 0.000000
v 140.111084 84.444443 0.000000
v 140.000000 102.000000 0.000000
v 157.000000 96.000000 0.000000
v 218.421143 -66.888481 0.000000
v 213.895142 -87.498177 0.000000
v 226.760132 -84.061646 0.000000
v 205.965027 -70.166054 0.000000
v 244.000000 -69.000000 0.000000
v 254.000000 -65.000000 0.000000
v 235.231628 -52.112068 0.000000
v 231.099426 -66.499794 0.000000
v 238.000000 -76.000000 0.000000
v 199.020203 -92.956467 0.000000
v 195.000000 -97.000000 0.000000
v 209.631653 -101.832726 0.000000
v 194.597656 -92.652969 0.000000
v 239.000000 -80.000000 0.000000
v 231.965027 -77.499390 0.000000
v 233.173401 -85.041092 0.000000
v 239.625122 -80.625114 0.000000
v 233.192627 -82.343384 0.000000
v 246.000000 -87.000000 0.000000
v 228.988281 -110.166466 0.000000
v 238.444397 -119.000000 0.000000
v 240.333313 -111.000000 0.000000
v 220.000000 -121.000000 0.000000
v 255.000000 -125.000000 0.000000
v 257.333313 -102.666672 0.000000
v 272.000000 -112.333336 0.000000
v 271.000000 -96.000000 0.000000
v 288.000000 -125.333336 0.000000
v 283.000000 -133.000000 0.000000
v 291.000000 -127.000000 0.000000
v 276.000000 -124.666664 0.000000
v 290.000000 -116.000000 0.000000
v 230.298340 -81.166061 0.000000
v 229.976379 -83.202515 0.000000
v 188.165222 -94.371239 0.000000
v 181.721741 -90.457077 0.000000
v 182.000000 -92.000000 0.000000
v 192.353455 -88.956467 0.000000
v 182.965027 -75.499390 0.000000
v 203.099426 -57.499794 0.000000
v 191.643372 -64.999596 0.000000
v 175.000000 -85.000000 0.000000
v 160.000000 -54.000000 0.000000
v 166.666687 -42.777779 0.000000
v 157.000000 -39.500000 0.000000
v 176.321716 -59.610909 0.000000
v 172.655029 -71.499794 0.000000
v 127.000000 58.000000 0.000000
v 111.888916 73.000000 0.000000
v 154.000000 -25.000000 0.000000
v 56.000000 112.000000 0.000000
v 55.777771 80.555557 0.000000
v 77.000000 94.333328 0.000000
v 33.777771 96.555557 0.000000
v -10.666656 113.666672 0.000000
v -19.000000 116.000000 0.000000
v -25.000000 112.000000 0.000000
v -14.666656 121.000000 0.000000
v 149.000000 -24.000000 0.000000
v 147.222168 2.777786 0.000000
v -96.333344 89.111099 0.000000
v -89.000000 108.000000 0.000000
v -102.666656 107.000000 0.000000
v -75.111115 91.777771 0.000000
v 138.000000 -31.000000 0.000000
v 137.333313 -28.000000 0.000000
v 131.500000 -30.000000 0.000000
v 125.000000 -29.000000 0.000000
v 131.333313 -26.666664 0.000000
v 127.000000 -24.333336 0.000000
v 120.666687 -30.333336 0.000000
v 120.000000 -27.000000 0.000000
v 125.000000 -33.000000 0.000000
v 119.000000 -35.000000 0.000000
v 120.333313 -33.000000 0.000000
v 117.000000 -31.000000 0.000000
v 112.000000 -22.000000 0.000000
v 126.111084 -9.888885 0.000000
v -137.869995 65.703995 0.000000
v -157.815338 76.802002 0.000000
v -157.576019 64.701996 0.000000
v -144.956665 89.567993 0.000000
v 81.000000 -23.000000 0.000000
v 98.222229 -8.888893 0.000000
v -148.406891 -2.690887 0.000000
v -123.333344 -4.000000 0.000000
v -146.554016 10.593994 0.000000
v -139.687347 -19.243996 0.000000
v 32.000000 -31.000000 0.000000
v 56.444397 -11.555565 0.000000
v -389.666656 16.333328 0.000000
v -411.888885 44.777771 0.000000
v -413.555542 23.111099 0.000000
v -388.555542 57.111099 0.000000
v 15.000000 -43.000000 0.000000
v 13.666656 -38.000000 0.000000
v 33.666687 0.777771 0.000000
v 19.444427 -18.333336 0.000000
v -6.000000 -40.000000 0.000000
v -229.000000 92.000000 0.000000
v -248.000000 88.000000 0.000000
v -230.777802 71.555557 0.000000
v -237.000000 96.000000 0.000000
v -84.000000 -54.000000 0.000000
v -35.555756 -37.344879 0.000000
v -194.333344 0.222214 0.000000
v -175.333344 -14.666664 0.000000
v -165.629120 13.086884 0.000000
v -192.333344 -19.333336 0.000000
v -106.000000 -53.000000 0.000000
v -97.666656 -36.111107 0.000000
v -422.732666 -20.700661 0.000000
v -413.000000 4.000000 0.000000
v -435.114014 -7.166000 0.000000
v -405.302826 -25.224976 0.000000
v -145.000000 -62.000000 0.000000
v -124.777802 -39.666664 0.000000
v -378.660126 -35.218414 0.000000
v -391.356323 -48.173447 0.000000
v -392.606628 -12.269943 0.000000
v -179.000000 -74.000000 0.000000
v -166.444458 -50.222221 0.000000
v -247.204224 67.042465 0.000000
v -236.293549 49.229126 0.000000
v -196.000000 -76.000000 0.000000
v -189.111115 -56.444450 0.000000
v -461.000000 5.333328 0.000000
v -458.000000 23.444443 0.000000
v -475.000000 16.000000 0.000000
v -444.704651 15.722427 0.000000
v -272.000000 -101.000000 0.000000
v -224.815613 -76.553223 0.000000
v -304.132019 -53.432671 0.000000
v -294.702698 -31.509338 0.000000
v -325.000000 -41.666664 0.000000
v -285.428009 -51.985336 0.000000
v -287.000000 -99.000000 0.000000
v -269.599976 -84.497330 0.000000
v -484.000000 -3.000000 0.000000
v -480.666656 6.333328 0.000000
v -483.000000 6.000000 0.000000
v -476.333344 -12.000000 0.000000
v -323.620667 -71.015106 0.000000
v -303.666687 -81.777771 0.000000
v -321.953979 -94.459549 0.000000
v -290.000000 -103.000000 0.000000
v -299.000000 -104.666664 0.000000
v -320.000000 -112.000000 0.000000
v -342.065125 -96.792892 0.000000
v -346.862000 -66.711998 0.000000
v -365.000000 -117.000000 0.000000
v -359.333313 -111.666664 0.000000
v -343.678650 -37.660606 0.000000
v -339.853577 -5.526672 0.000000
v -356.335236 -23.937660 0.000000
v -318.733978 -20.915886 0.000000
v -393.000000 -106.000000 0.000000
v -374.525787 -94.124893 0.000000
v -428.704651 15.278000 0.000000
v -470.000000 -49.000000 0.000000
v -427.694672 -71.312004 0.000000
v -364.744019 57.139999 0.000000
v -346.555542 67.222229 0.000000
v -368.000000 86.000000 0.000000
v -352.608673 36.988678 0.000000
v -291.666687 26.333328 0.000000
v -307.809998 47.597992 0.000000
v -309.861572 19.245560 0.000000
v -277.082001 46.929993 0.000000
v -269.000000 -37.333336 0.000000
v -268.599976 -63.275116 0.000000
v -249.800003 -53.491997 0.000000
v -438.000000 49.000000 0.000000
v -175.000000 43.333328 0.000000
v -178.192017 66.678452 0.000000
v -159.710022 39.543106 0.000000
v -408.000000 69.000000 0.000000
v -182.222260 -36.000000 0.000000
v -157.055328 -22.806664 0.000000
v -122.406891 19.642441 0.000000
v -107.888916 15.666672 0.000000
v -340.000000 90.000000 0.000000
v -294.000000 89.000000 0.000000
v -312.429810 80.142761 0.000000
v -118.067780 73.679092 0.000000
v -87.888916 71.888870 0.000000
v -106.333344 87.444443 0.000000
v -97.333344 52.333328 0.000000
v -281.701813 79.474762 0.000000
v -62.755341 69.245331 0.000000
v -77.333344 55.333328 0.000000
v -202.000000 92.000000 0.000000
v -103.000000 -1.333328 0.000000
v -72.306000 8.676895 0.000000
v -82.711334 -23.124451 0.000000
v -53.372467 52.690231 0.000000
v -46.946014 71.249329 0.000000
v -30.000000 61.333328 0.000000
v -178.000000 100.000000 0.000000
v -179.192017 85.567337 0.000000
v -23.372467 38.912430 0.000000
v -52.783997 41.403992 0.000000
v -7.888916 45.666672 0.000000
v -119.000000 103.000000 0.000000
v 34.111084 32.666672 0.000000
v 56.333313 19.333328 0.000000
v 12.666656 14.000000 0.000000
v -100.000000 110.000000 0.000000
v -7.000000 125.000000 0.000000
v -0.333344 116.666672 0.000000
v 6.000000 121.000000 0.000000
v -6.666656 120.666656 0.000000
v -18.000000 122.000000 0.000000
v -59.000000 112.000000 0.000000
v -15.333344 127.333344 0.000000
v -10.000000 130.000000 0.000000
v -18.000000 130.000000 0.000000
v -11.666656 125.666656 0.000000
v -38.000000 95.111099 0.000000
v -36.000000 122.000000 0.000000
v 112.000000 100.000000 0.000000
v 101.888916 89.000000 0.000000
v 97.000000 106.000000 0.000000
v -26.000000 122.000000 0.000000
v -32.666656 124.333344 0.000000
v 117.666687 4.333328 0.000000
v -19.333344 126.000000 0.000000
v -22.000000 126.000000 0.000000
v -39.000000 126.000000 0.000000
v -24.333344 125.666656 0.000000
v -36.000000 129.000000 0.000000
v -29.000000 126.666656 0.000000
v -25.000000 129.000000 0.000000
v 6.777740 -21.333336 0.000000
v -20.444458 78.333328 0.000000
v -14.000000 95.777786 0.000000
v 133.000000 103.000000 0.000000
v 137.333313 104.333328 0.000000
v 12.000000 113.000000 0.000000
v 96.666687 61.000000 0.000000
v 108.444458 45.777771 0.000000
v 92.111145 48.111099 0.000000
v 78.666687 34.222214 0.000000
v 78.000000 65.000000 0.000000
v 55.888855 49.666672 0.000000
v 170.881409 29.255051 0.000000
v 164.333313 56.666672 0.000000
v 152.333313 29.666672 0.000000
v 187.880249 42.982071 0.000000
v 139.000000 108.000000 0.000000
v 135.333313 106.666672 0.000000
v 134.000000 109.000000 0.000000
v 127.750000 102.250000 0.000000
v 265.879578 -27.587761 0.000000
v 244.361694 -34.336212 0.000000
v 262.792664 -48.733620 0.000000
v 239.528076 -18.958275 0.000000
v 289.654907 120.563416 0.000000
v 286.295715 114.234619 0.000000
v 290.963013 115.098526 0.000000
v 289.000000 121.000000 0.000000
v 292.180725 112.755753 0.000000
v 292.000000 119.000000 0.000000
v 301.750000 118.750000 0.000000
v 182.000000 99.000000 0.000000
v 167.777771 83.888901 0.000000
v 149.444397 70.222229 0.000000
v 153.333313 15.666672 0.000000
v 281.333313 124.333344 0.000000
v 326.281311 -32.453506 0.000000
v 315.854187 -43.302338 0.000000
v 327.589355 -37.918396 0.000000
v 312.448914 -29.970703 0.000000
v 223.500000 111.000000 0.000000
v 292.158203 124.772125 0.000000
v 295.000000 125.000000 0.000000
v 292.000000 128.000000 0.000000
v 292.237305 123.158203 0.000000
v 265.000000 123.000000 0.000000
v 232.013245 107.204910 0.000000
v 287.790894 128.350769 0.000000
v 288.632812 124.833618 0.000000
v 289.755188 125.889069 0.000000
v 285.596985 126.116913 0.000000
v 275.000000 123.000000 0.000000
v 264.111816 112.505356 0.000000
v 280.000000 129.000000 0.000000
v 311.500000 118.500000 0.000000
v 305.962402 111.901291 0.000000
v 385.833313 83.222229 0.000000
v 374.333313 94.222229 0.000000
v 370.000000 82.666672 0.000000
v 394.000000 95.000000 0.000000
v 289.474670 121.316437 0.000000
v 278.295715 114.901291 0.000000
v 286.668945 99.516052 0.000000
v 350.666687 67.000000 0.000000
v 347.888916 54.333328 0.000000
v 361.611145 59.111099 0.000000
v 339.064941 27.680588 0.000000
v 343.333313 10.000000 0.000000
v 354.000000 22.666672 0.000000
v 328.194763 22.375061 0.000000
v 377.166687 62.333328 0.000000
v 365.944519 70.666672 0.000000
v 371.555603 51.444443 0.000000
v 393.500000 72.000000 0.000000
v 406.000000 77.000000 0.000000
v 403.000000 85.333328 0.000000
v 405.944397 61.333328 0.000000
v 331.000000 118.000000 0.000000
v 316.736267 105.432495 0.000000
v 427.444397 53.888870 0.000000
v 417.777771 65.222214 0.000000
v 359.000000 105.000000 0.000000
v 340.013245 107.649368 0.000000
v 444.666687 12.000000 0.000000
v 458.000000 23.000000 0.000000
v 430.000000 24.000000 0.000000
v 409.000000 84.000000 0.000000
v 418.500000 76.750000 0.000000
v 462.000000 55.000000 0.000000
v 462.333313 64.333328 0.000000
v 469.000000 62.000000 0.000000
v 431.000000 76.500000 0.000000
v 470.000000 69.000000 0.000000
v 465.000000 69.000000 0.000000
v 417.333313 10.666672 0.000000
v 416.444397 19.888901 0.000000
v 435.000000 43.000000 0.000000
v 406.666687 -2.333328 0.000000
v 378.555603 -40.888885 0.000000
v 380.500000 44.000000 0.000000
v 368.750000 46.000000 0.000000
v 330.039856 99.948105 0.000000
v 347.111084 -35.333336 0.000000
v 329.520813 -39.302338 0.000000
v 342.333313 -25.333336 0.000000
v 357.000000 48.000000 0.000000
v 331.000000 45.000000 0.000000
v 290.016296 -46.864647 0.000000
v 279.672119 -58.954887 0.000000
v 272.287781 53.162277 0.000000
v 289.902039 67.161850 0.000000
v 264.234619 69.656494 0.000000
v 287.737732 40.985168 0.000000
v 335.000000 38.000000 0.000000
v 325.528076 38.708389 0.000000
v 239.201416 75.373001 0.000000
v 238.613770 53.783279 0.000000
v 224.231384 89.984009 0.000000
v 353.000000 36.000000 0.000000
v 371.000000 34.000000 0.000000
v 362.111084 12.333328 0.000000
v 386.500000 29.500000 0.000000
v 376.333313 18.333328 0.000000
v 391.277771 18.833328 0.000000
v 376.222229 -26.055550 0.000000
v 387.888916 -21.833336 0.000000
v 402.000000 25.000000 0.000000
v 398.000000 -15.000000 0.000000
v 416.000000 24.500000 0.000000
v 79.666687 4.888870 0.000000
v 385.333313 2.000000 0.000000
v 377.000000 -9.500000 0.000000
v 369.777771 1.611099 0.000000
v 356.000000 -4.000000 0.000000
v 363.000000 -27.666664 0.000000
v 167.437012 2.032822 0.000000
v 143.555481 43.777786 0.000000
v 271.334778 104.677368 0.000000
v 247.276855 34.845596 0.000000
v 313.901306 51.656494 0.000000
v 331.016296 -23.864647 0.000000
v 336.000000 -8.000000 0.000000
v 332.016296 -7.531311 0.000000
v 139.333313 16.666672 0.000000
v 122.666687 31.000000 0.000000
v 310.584290 33.125183 0.000000
v 315.816650 11.265625 0.000000
v 300.290222 -51.722328 0.000000
v 300.360535 -34.774414 0.000000
v 224.218933 -36.104149 0.000000
v 217.333313 -53.000000 0.000000
v 263.260864 -1.562408 0.000000
v 240.499817 4.102325 0.000000
v 295.211121 -14.156250 0.000000
v 314.180481 -19.067902 0.000000
v 273.707336 22.136124 0.000000
v 282.829407 -20.861107 0.000000
v 186.000000 -49.333336 0.000000
v 201.030151 -90.934708 0.000000
v 226.631653 -98.499390 0.000000
v 237.654968 -98.833130 0.000000
v 90.555603 77.333328 0.000000
v 13.000000 79.777786 0.000000
v 33.333313 64.666672 0.000000
v -1.666656 96.111130 0.000000
v -61.607758 -42.020882 0.000000
v -53.970520 -28.674240 0.000000
v 138.444397 -10.555550 0.000000
v -110.777802 -19.444435 0.000000
v -77.705780 31.801331 0.000000
v -92.555573 35.444443 0.000000
v -219.511108 -18.280449 0.000000
v -224.416016 -45.141998 0.000000
v -204.249786 -46.825111 0.000000
v -245.066666 -24.280449 0.000000
v 101.666687 18.333328 0.000000
v -127.252441 42.877090 0.000000
v -147.333344 47.000000 0.000000
v -188.555573 21.111099 0.000000
v -197.444458 56.666672 0.000000
v -215.444458 72.888901 0.000000
v -291.440002 -72.582001 0.000000
v -361.409119 13.806656 0.000000
v -331.666687 25.666672 0.000000
v -347.702026 -57.695557 0.000000
v -326.492249 54.421555 0.000000
v -301.678345 65.980484 0.000000
v -307.080048 -12.185570 0.000000
v -290.108002 -15.528000 0.000000
v -9.471802 -11.788002 0.000000
v 13.222198 46.777786 0.000000
v -12.463593 14.896881 0.000000
v -61.134003 -14.040001 0.000000
v -35.082001 -9.363998 0.000000
v -34.072021 -21.134666 0.000000
v -49.666656 6.000000 0.000000
v -28.411621 7.093307 0.000000
v -34.324097 24.049805 0.000000
v -56.632019 88.171997 0.000000
v -320.960632 1.573456 0.000000
v -272.137634 24.784607 0.000000
v -244.733109 30.410217 0.000000
v -256.917603 53.325073 0.000000
v -260.348083 12.327744 0.000000
v -276.488281 3.923645 0.000000
v -277.630676 60.842651 0.000000
v -247.738663 -45.322449 0.000000
v -266.963989 -14.409111 0.000000
v -359.146423 -81.028885 0.000000
v -371.244019 -64.708000 0.000000
v -359.124146 -45.356407 0.000000
v -362.894012 -0.580002 0.000000
v -394.776001 -76.548004 0.000000
v -407.668884 -46.245598 0.000000
v -433.666656 -35.333336 0.000000
v -388.520233 6.584427 0.000000
v -420.083984 -58.936005 0.000000
v -445.295349 -49.278008 0.000000
v -457.482452 -4.610901 0.000000
v -452.416443 -19.687996 0.000000
v -464.045105 -33.632668 0.000000
v -445.802002 -39.898003 0.000000
v -241.783997 9.634003 0.000000
v -216.483551 8.322449 0.000000
v -223.405334 -58.211334 0.000000
v -215.333344 34.666672 0.000000
v -242.784805 -69.035553 0.000000
v -371.980652 33.871338 0.000000
v -6.333344 61.666672 0.000000
v 318.066467 70.024597 0.000000
v 305.351929 54.984741 0.000000
v 300.119629 76.844299 0.000000
v 318.432800 0.335846 0.000000
v 310.692200 -4.494858 0.000000
v 323.544434 6.177078 0.000000
v 283.674377 82.005615 0.000000
v 340.248779 93.854294 0.000000
v 323.471741 91.470749 0.000000
v 347.124451 82.871582 0.000000
v 249.039856 99.614761 0.000000
v 292.271118 109.633636 0.000000
v 266.647766 89.595764 0.000000
v 313.498352 83.769470 0.000000
v 359.888916 84.888901 0.000000
v 294.887268 98.703857 0.000000
v 308.668945 97.849380 0.000000
v 291.617065 112.366089 0.000000
v 380.222229 72.333328 0.000000
v 398.000000 8.222229 0.000000
v 355.000000 -15.000000 0.000000
v 296.553955 14.276138 0.000000
v 291.429504 -1.484344 0.000000
v 323.665161 -21.523727 0.000000
v 321.048950 -10.593941 0.000000
v 339.000000 -4.000000 0.000000
v -146.924011 -38.615997 0.000000
v -375.871216 -13.799667 0.000000
v -250.199600 -84.903229 0.000000
vt 0.595833 0.058594
vt 0.602083 0.070312
vt 0.600347 0.058594
vt 0.598032 0.053385
vt 0.600463 0.049479
vt 0.597917 0.042969
vt 0.603125 0.046875
vt 0.921875 0.378906
vt 0.913542 0.355469
vt 0.915972 0.373698
vt 0.905208 0.363281
vt 0.910417 0.368490
vt 0.912500 0.386719
vt 0.656250 0.692708
vt 0.659028 0.694444
vt 0.660417 0.683594
vt 0.657292 0.703559
vt 0.653125 0.683594
vt 0.655208 0.710938
vt 0.660417 0.707031
vt 0.950347 0.244792
vt 0.969792 0.273438
vt 0.975000 0.203125
vt 0.957755 0.283420
vt 1.000000 0.449219
vt 1.000000 0.437500
vt 0.995486 0.447917
vt 0.992014 0.462240
vt 0.992708 0.437500
vt 0.986458 0.446615
vt 0.993750 0.457031
vt 0.989583 0.492188
vt 0.964583 0.542969
vt 0.977083 0.481771
vt 0.932292 0.291667
vt 0.920833 0.343750
vt 0.936979 0.337891
vt 0.913368 0.290365
vt 0.951042 0.554688
vt 0.950000 0.505208
vt 0.835805 0.278849
vt 0.853602 0.250502
vt 0.845528 0.200724
vt 0.850000 0.312500
vt 0.937500 0.566406
vt 0.703102 0.439720
vt 0.726811 0.461847
vt 0.724508 0.360514
vt 0.694423 0.539771
vt 0.953646 0.580078
vt 0.934028 0.613281
vt 0.969792 0.593750
vt 0.973611 0.654948
vt 0.977083 0.630208
vt 0.963542 0.669271
vt 0.952431 0.625000
vt 0.980208 0.671875
vt 0.970833 0.699219
vt 0.981250 0.625000
vt 0.950000 0.714844
vt 0.945486 0.651042
vt 0.929630 0.662760
vt 0.900000 0.710938
vt 0.918287 0.695312
vt 0.904861 0.660156
vt 0.917824 0.610677
vt 0.850000 0.707031
vt 0.876042 0.675347
vt 0.718019 0.204297
vt 0.691202 0.223288
vt 0.712843 0.277938
vt 0.710250 0.149302
vt 0.845327 0.712160
vt 0.842602 0.669466
vt 0.633681 0.102865
vt 0.625521 0.162109
vt 0.642014 0.111979
vt 0.627604 0.103516
vt 0.807292 0.753906
vt 0.827211 0.711739
vt 0.719752 0.581938
vt 0.691306 0.624101
vt 0.713297 0.660559
vt 0.645949 0.170139
vt 0.645833 0.101562
vt 0.663542 0.125000
vt 0.727522 0.761283
vt 0.722807 0.841790
vt 0.736208 0.828366
vt 0.714547 0.774086
vt 0.754167 0.769531
vt 0.764583 0.753906
vt 0.745033 0.703563
vt 0.740729 0.759765
vt 0.747917 0.796875
vt 0.707313 0.863111
vt 0.703125 0.878906
vt 0.718366 0.897784
vt 0.702706 0.861926
vt 0.748958 0.812500
vt 0.741630 0.802732
vt 0.742889 0.832192
vt 0.749610 0.814942
vt 0.742909 0.821654
vt 0.756250 0.839844
vt 0.738529 0.930338
vt 0.748380 0.964844
vt 0.750347 0.933594
vt 0.729167 0.972656
vt 0.765625 0.988281
vt 0.768056 0.901042
vt 0.783333 0.938802
vt 0.782292 0.875000
vt 0.800000 0.989583
vt 0.794792 1.019531
vt 0.803125 0.996094
vt 0.787500 0.986979
vt 0.802083 0.953125
vt 0.739894 0.817055
vt 0.739559 0.825010
vt 0.696005 0.868638
vt 0.689294 0.853348
vt 0.689583 0.859375
vt 0.700368 0.847486
vt 0.690589 0.794919
vt 0.711562 0.724609
vt 0.699629 0.753905
vt 0.682292 0.832031
vt 0.666667 0.710938
vt 0.673611 0.667101
vt 0.663542 0.654297
vt 0.683668 0.732855
vt 0.679849 0.779296
vt 0.632292 0.273438
vt 0.616551 0.214844
vt 0.660417 0.597656
vt 0.558333 0.062500
vt 0.558102 0.185330
vt 0.580208 0.131510
vt 0.535185 0.122830
vt 0.488889 0.055990
vt 0.480208 0.046875
vt 0.473958 0.062500
vt 0.484722 0.027344
vt 0.655208 0.593750
vt 0.653356 0.489149
vt 0.399653 0.151910
vt 0.407292 0.078125
vt 0.393056 0.082031
vt 0.421759 0.141493
vt 0.643750 0.621094
vt 0.643056 0.609375
vt 0.636979 0.617188
vt 0.630208 0.613281
vt 0.636806 0.604167
vt 0.632292 0.595052
vt 0.625694 0.618490
vt 0.625000 0.605469
vt 0.630208 0.628906
vt 0.623958 0.636719
vt 0.625347 0.628906
vt 0.621875 0.621094
vt 0.616667 0.585938
vt 0.631366 0.538628
vt 0.356385 0.243344
vt 0.335609 0.199992
vt 0.335858 0.247258
vt 0.349003 0.150125
vt 0.584375 0.589844
vt 0.602315 0.534722
vt 0.345409 0.510511
vt 0.371528 0.515625
vt 0.347340 0.458617
vt 0.354492 0.575172
vt 0.533333 0.621094
vt 0.558796 0.545139
vt 0.094097 0.436198
vt 0.070949 0.325087
vt 0.069213 0.409722
vt 0.095255 0.276910
vt 0.515625 0.667969
vt 0.514236 0.648438
vt 0.535069 0.496962
vt 0.520255 0.571615
vt 0.493750 0.656250
vt 0.261458 0.140625
vt 0.241667 0.156250
vt 0.259606 0.220486
vt 0.253125 0.125000
vt 0.412500 0.710938
vt 0.462963 0.645878
vt 0.297569 0.499132
vt 0.317361 0.557292
vt 0.327470 0.448879
vt 0.299653 0.575521
vt 0.389583 0.707031
vt 0.398264 0.641059
vt 0.059653 0.580862
vt 0.069792 0.484375
vt 0.046756 0.527992
vt 0.077810 0.598535
vt 0.348958 0.742188
vt 0.370023 0.654948
vt 0.105562 0.637572
vt 0.092337 0.688178
vt 0.091035 0.547929
vt 0.313542 0.789062
vt 0.326620 0.696181
vt 0.242496 0.238115
vt 0.253861 0.307699
vt 0.295833 0.796875
vt 0.303009 0.720486
vt 0.019792 0.479167
vt 0.022917 0.408420
vt 0.005208 0.437500
vt 0.036766 0.438584
vt 0.216667 0.894531
vt 0.265817 0.799036
vt 0.183196 0.708721
vt 0.193018 0.623083
vt 0.161458 0.662760
vt 0.202679 0.703068
vt 0.201042 0.886719
vt 0.219167 0.830068
vt -0.004167 0.511719
vt -0.000694 0.475260
vt -0.003125 0.476562
vt 0.003819 0.546875
vt 0.162895 0.777403
vt 0.183681 0.819444
vt 0.164631 0.868983
vt 0.197917 0.902344
vt 0.188542 0.908854
vt 0.166667 0.937500
vt 0.143682 0.878097
vt 0.138685 0.760594
vt 0.119792 0.957031
vt 0.125694 0.936198
vt 0.142001 0.647112
vt 0.145986 0.521589
vt 0.128817 0.593506
vt 0.167985 0.581703
vt 0.090625 0.914062
vt 0.109869 0.867675
vt 0.053433 0.440320
vt 0.010417 0.691406
vt 0.054485 0.778563
vt 0.120058 0.276797
vt 0.139005 0.237413
vt 0.116667 0.164062
vt 0.132699 0.355513
vt 0.196181 0.397135
vt 0.179365 0.314070
vt 0.177228 0.424822
vt 0.211373 0.316680
vt 0.219792 0.645833
vt 0.220208 0.747168
vt 0.239792 0.708953
vt 0.043750 0.308594
vt 0.317708 0.330729
vt 0.314383 0.239537
vt 0.333635 0.345535
vt 0.075000 0.230469
vt 0.310185 0.640625
vt 0.336401 0.589089
vt 0.372493 0.423272
vt 0.387616 0.438802
vt 0.145833 0.148438
vt 0.193750 0.152344
vt 0.174552 0.186942
vt 0.377013 0.212191
vt 0.408449 0.219184
vt 0.389236 0.158420
vt 0.398611 0.295573
vt 0.206561 0.189552
vt 0.434630 0.229510
vt 0.419444 0.283854
vt 0.289583 0.140625
vt 0.392708 0.505208
vt 0.424681 0.466106
vt 0.413842 0.590330
vt 0.444404 0.294179
vt 0.451098 0.221682
vt 0.468750 0.260417
vt 0.314583 0.109375
vt 0.313342 0.165753
vt 0.475654 0.347998
vt 0.445017 0.338266
vt 0.491782 0.321615
vt 0.376042 0.097656
vt 0.535532 0.372396
vt 0.558681 0.424479
vt 0.513194 0.445312
vt 0.395833 0.070312
vt 0.492708 0.011719
vt 0.499653 0.044271
vt 0.506250 0.027344
vt 0.493056 0.028646
vt 0.481250 0.023438
vt 0.438542 0.062500
vt 0.484028 0.002604
vt 0.489583 -0.007812
vt 0.481250 -0.007812
vt 0.487847 0.009115
vt 0.460417 0.128472
vt 0.462500 0.023438
vt 0.616667 0.109375
vt 0.606134 0.152344
vt 0.601042 0.085938
vt 0.472917 0.023438
vt 0.465972 0.014323
vt 0.622569 0.483073
vt 0.479861 0.007812
vt 0.477083 0.007812
vt 0.459375 0.007812
vt 0.474653 0.009115
vt 0.462500 -0.003906
vt 0.469792 0.005208
vt 0.473958 -0.003906
vt 0.507060 0.583333
vt 0.478704 0.194010
vt 0.485417 0.125868
vt 0.638542 0.097656
vt 0.643056 0.092448
vt 0.512500 0.058594
vt 0.600694 0.261719
vt 0.612963 0.321181
vt 0.595949 0.312066
vt 0.581944 0.366319
vt 0.581250 0.246094
vt 0.558218 0.305990
vt 0.678001 0.385722
vt 0.671181 0.278646
vt 0.658681 0.384115
vt 0.695709 0.332101
vt 0.644792 0.078125
vt 0.640972 0.083333
vt 0.639583 0.074219
vt 0.633073 0.100586
vt 0.776958 0.607765
vt 0.754543 0.634126
vt 0.773742 0.690366
vt 0.749508 0.574056
vt 0.801724 0.029049
vt 0.798225 0.053771
vt 0.803086 0.050396
vt 0.801042 0.027344
vt 0.804355 0.059548
vt 0.804167 0.035156
vt 0.814323 0.036133
vt 0.689583 0.113281
vt 0.674769 0.172309
vt 0.655671 0.225694
vt 0.659722 0.438802
vt 0.793056 0.014323
vt 0.839876 0.626772
vt 0.829015 0.669150
vt 0.841239 0.648119
vt 0.825468 0.617073
vt 0.732813 0.066406
vt 0.804331 0.012609
vt 0.807292 0.011719
vt 0.804167 0.000000
vt 0.804414 0.018913
vt 0.776042 0.019531
vt 0.741680 0.081231
vt 0.799782 -0.001370
vt 0.800659 0.012369
vt 0.801828 0.008246
vt 0.797497 0.007356
vt 0.786458 0.019531
vt 0.775117 0.060526
vt 0.791667 -0.003906
vt 0.824479 0.037109
vt 0.818711 0.062886
vt 0.901910 0.174913
vt 0.889931 0.131944
vt 0.885417 0.177083
vt 0.910417 0.128906
vt 0.801536 0.026108
vt 0.789891 0.051167
vt 0.798613 0.111265
vt 0.865278 0.238281
vt 0.862384 0.287760
vt 0.876678 0.269097
vt 0.853193 0.391873
vt 0.857639 0.460938
vt 0.868750 0.411458
vt 0.841870 0.412597
vt 0.892882 0.256510
vt 0.881192 0.223958
vt 0.887037 0.299045
vt 0.909896 0.218750
vt 0.922917 0.199219
vt 0.919792 0.166667
vt 0.922859 0.260417
vt 0.844792 0.039062
vt 0.829934 0.088154
vt 0.945255 0.289497
vt 0.935185 0.245226
vt 0.873958 0.089844
vt 0.854180 0.079495
vt 0.963194 0.453125
vt 0.977083 0.410156
vt 0.947917 0.406250
vt 0.926042 0.171875
vt 0.935938 0.200195
vt 0.981250 0.285156
vt 0.981597 0.248698
vt 0.988542 0.257812
vt 0.948958 0.201172
vt 0.989583 0.230469
vt 0.984375 0.230469
vt 0.934722 0.458333
vt 0.933796 0.422309
vt 0.953125 0.332031
vt 0.923611 0.509115
vt 0.894329 0.659722
vt 0.896354 0.328125
vt 0.884115 0.320312
vt 0.843792 0.109578
vt 0.861574 0.638021
vt 0.843251 0.653525
vt 0.856597 0.598958
vt 0.871875 0.312500
vt 0.844792 0.324219
vt 0.802100 0.683065
vt 0.791325 0.730293
vt 0.783633 0.292335
vt 0.801981 0.237649
vt 0.775244 0.227904
vt 0.799727 0.339902
vt 0.848958 0.351562
vt 0.839092 0.348795
vt 0.749168 0.205574
vt 0.748556 0.289909
vt 0.733574 0.148500
vt 0.867708 0.359375
vt 0.886458 0.367188
vt 0.877199 0.451823
vt 0.902604 0.384766
vt 0.892014 0.428385
vt 0.907581 0.426432
vt 0.891898 0.601779
vt 0.904051 0.585286
vt 0.918750 0.402344
vt 0.914583 0.558594
vt 0.933333 0.404297
vt 0.582986 0.480903
vt 0.901389 0.492188
vt 0.892708 0.537109
vt 0.885185 0.493707
vt 0.870833 0.515625
vt 0.878125 0.608073
vt 0.674414 0.492059
vt 0.649537 0.328993
vt 0.782640 0.091104
vt 0.757580 0.363884
vt 0.826981 0.298217
vt 0.844809 0.593221
vt 0.850000 0.531250
vt 0.845850 0.529419
vt 0.645139 0.434896
vt 0.627778 0.378906
vt 0.823525 0.370605
vt 0.828976 0.455994
vt 0.812802 0.702040
vt 0.812876 0.635838
vt 0.733561 0.641032
vt 0.726389 0.707031
vt 0.774230 0.506103
vt 0.750521 0.483975
vt 0.807512 0.555298
vt 0.827271 0.574484
vt 0.785112 0.413531
vt 0.794614 0.581489
vt 0.693750 0.692708
vt 0.709406 0.855214
vt 0.736075 0.884763
vt 0.747557 0.886067
vt 0.594329 0.197917
vt 0.513542 0.188368
vt 0.534722 0.247396
vt 0.498264 0.124566
vt 0.435825 0.664144
vt 0.443781 0.612009
vt 0.644213 0.541233
vt 0.384606 0.575955
vt 0.419056 0.375776
vt 0.403588 0.361545
vt 0.271343 0.571408
vt 0.266233 0.676336
vt 0.287240 0.682911
vt 0.244722 0.594846
vt 0.605903 0.428385
vt 0.367445 0.332511
vt 0.346528 0.316406
vt 0.303588 0.417535
vt 0.294329 0.278646
vt 0.275579 0.215278
vt 0.196417 0.783523
vt 0.123532 0.446068
vt 0.154514 0.399740
vt 0.137810 0.725373
vt 0.159904 0.287416
vt 0.185752 0.242264
vt 0.180125 0.547600
vt 0.197804 0.560656
vt 0.490134 0.546047
vt 0.513773 0.317274
vt 0.487017 0.441809
vt 0.436319 0.554844
vt 0.463456 0.536578
vt 0.464508 0.582557
vt 0.448264 0.476562
vt 0.470405 0.472292
vt 0.464246 0.406055
vt 0.441008 0.155578
vt 0.165666 0.493854
vt 0.216523 0.403185
vt 0.245070 0.381210
vt 0.232377 0.291699
vt 0.228804 0.451845
vt 0.211991 0.484673
vt 0.210801 0.262333
vt 0.241939 0.677041
vt 0.221913 0.556286
vt 0.125889 0.816519
vt 0.113287 0.752766
vt 0.125912 0.677173
vt 0.121985 0.502266
vt 0.088775 0.799016
vt 0.075345 0.680647
vt 0.048264 0.638021
vt 0.095291 0.474280
vt 0.062413 0.730219
vt 0.036151 0.692492
vt 0.023456 0.518011
vt 0.028733 0.576906
vt 0.016620 0.631378
vt 0.035623 0.655852
vt 0.248142 0.462367
vt 0.274496 0.467490
vt 0.267286 0.727388
vt 0.275694 0.364583
vt 0.247099 0.769670
vt 0.112520 0.367690
vt 0.493403 0.259115
vt 0.831319 0.226466
vt 0.818075 0.285216
vt 0.812625 0.199827
vt 0.831701 0.498688
vt 0.823638 0.517558
vt 0.837025 0.475871
vt 0.795494 0.179666
vt 0.854426 0.133382
vt 0.836950 0.142692
vt 0.861588 0.176283
vt 0.759417 0.110880
vt 0.804449 0.071744
vt 0.777758 0.150017
vt 0.826561 0.172776
vt 0.874884 0.168403
vt 0.807174 0.114438
vt 0.821530 0.117776
vt 0.803768 0.061070
vt 0.896065 0.217448
vt 0.914583 0.467882
vt 0.869792 0.558594
vt 0.808910 0.444234
vt 0.803572 0.505798
vt 0.837151 0.584077
vt 0.834426 0.541383
vt 0.853125 0.515625
vt 0.346954 0.650844
vt 0.108467 0.553905
vt 0.239375 0.831653
g Default
usemtl Default
f 1/1 2/2 3/3
f 3/3 4/4 1/1
f 4/4 3/3 5/5
f 6/6 1/1 4/4
f 7/7 6/6 5/5
f 2/2 7/7 3/3
f 3/3 7/7 5/5
f 5/5 6/6 4/4
f 8/8 9/9 10/10
f 9/9 11/11 12/12
f 10/10 12/12 13/13
f 12/12 10/10 9/9
f 13/13 8/8 10/10
f 11/11 13/13 12/12
f 14/14 15/15 16/16
f 15/15 14/14 17/17
f 18/18 19/19 14/14
f 16/16 18/18 14/14
f 20/20 16/16 15/15
f 19/19 20/20 17/17
f 14/14 19/19 17/17
f 17/17 20/20 15/15
f 75/75 76/76 77/77
f 76/76 75/75 78/78
f 84/84 85/85 77/77
f 85/85 84/84 86/86
f 134/134 76/76 135/135
f 76/76 134/134 84/84
f 137/137 138/138 139/139
f 138/138 137/137 140/140
f 141/141 142/142 143/143
f 142/142 141/141 144/144
f 147/147 148/148 149/149
f 148/148 147/147 150/150
f 151/151 145/145 152/152
f 151/151 152/152 153/153
f 154/154 155/155 156/156
f 155/155 154/154 153/153
f 157/157 154/154 158/158
f 154/154 157/157 159/159
f 155/155 153/153 152/152
f 160/160 159/159 161/161
f 161/161 162/162 160/160
f 162/162 161/161 157/157
f 163/163 158/158 164/164
f 158/158 162/162 157/157
f 158/158 154/154 156/156
f 158/158 156/156 164/164
f 165/165 166/166 167/167
f 166/166 165/165 168/168
f 169/169 163/163 170/170
f 171/171 172/172 173/173
f 172/172 171/171 174/174
f 175/175 169/169 176/176
f 177/177 178/178 179/179
f 178/178 177/177 180/180
f 181/181 175/175 182/182
f 183/183 175/175 176/176
f 175/175 183/183 184/184
f 185/185 181/181 182/182
f 186/186 187/187 188/188
f 187/187 186/186 189/189
f 190/190 185/185 191/191
f 192/192 193/193 194/194
f 193/193 192/192 195/195
f 196/196 190/190 197/197
f 198/198 199/199 200/200
f 199/199 198/198 201/201
f 202/202 196/196 203/203
f 204/204 201/201 205/205
f 201/201 204/204 206/206
f 207/207 202/202 208/208
f 209/209 188/188 187/187
f 188/188 209/209 210/210
f 211/211 207/207 212/212
f 213/213 214/214 215/215
f 214/214 213/213 216/216
f 217/217 211/211 218/218
f 219/219 220/220 221/221
f 220/220 219/219 222/222
f 223/223 217/217 224/224
f 225/225 226/226 227/227
f 226/226 225/225 228/228
f 229/229 230/230 219/219
f 230/230 229/229 231/231
f 232/232 223/223 233/233
f 234/234 232/232 233/233
f 229/229 235/235 231/231
f 235/235 229/229 236/236
f 237/237 234/234 238/238
f 239/239 240/240 241/241
f 240/240 239/239 242/242
f 243/243 237/237 244/244
f 179/179 199/199 177/177
f 199/199 179/179 245/245
f 246/246 243/243 247/247
f 248/248 249/249 250/250
f 249/249 248/248 251/251
f 225/225 246/246 228/228
f 252/252 253/253 254/254
f 253/253 252/252 255/255
f 215/215 227/227 226/226
f 256/256 257/257 258/258
f 257/257 256/256 222/222
f 259/259 215/215 214/214
f 260/260 167/167 261/261
f 167/167 260/260 262/262
f 263/263 259/259 178/178
f 264/264 193/193 195/195
f 193/193 264/264 265/265
f 250/250 263/263 180/180
f 266/266 172/172 267/267
f 172/172 266/266 173/173
f 268/268 250/250 249/249
f 261/261 167/167 166/166
f 269/269 268/268 270/270
f 271/271 272/272 273/273
f 272/272 271/271 274/274
f 187/187 269/269 275/275
f 276/276 272/272 277/277
f 272/272 276/276 150/150
f 278/278 189/189 186/186
f 279/279 280/280 267/267
f 280/280 279/279 281/281
f 282/282 283/283 276/276
f 283/283 282/282 284/284
f 285/285 278/278 286/286
f 287/287 284/284 288/288
f 284/284 287/287 289/289
f 290/290 285/285 168/168
f 291/291 183/183 292/292
f 183/183 291/291 293/293
f 294/294 290/290 149/149
f 148/148 294/294 149/149
f 295/295 296/296 297/297
f 296/296 295/295 298/298
f 142/142 144/144 299/299
f 300/300 148/148 150/150
f 301/301 302/302 303/303
f 302/302 301/301 304/304
f 305/305 306/306 300/300
f 306/306 305/305 143/143
f 301/301 144/144 304/304
f 144/144 301/301 299/299
f 307/307 308/308 76/76
f 308/308 307/307 309/309
f 306/306 310/310 311/311
f 312/312 163/163 164/164
f 163/163 312/312 170/170
f 303/303 313/313 301/301
f 313/313 303/303 314/314
f 314/314 299/299 313/313
f 315/315 306/306 311/311
f 310/310 314/314 316/316
f 315/315 311/311 317/317
f 316/316 318/318 310/310
f 318/318 316/316 319/319
f 310/310 318/318 311/311
f 319/319 317/317 318/318
f 314/314 319/319 316/316
f 182/182 320/320 185/185
f 320/320 182/182 184/184
f 295/295 302/302 304/304
f 321/321 305/305 283/283
f 305/305 321/321 322/322
f 323/323 77/77 324/324
f 77/77 323/323 75/75
f 137/137 325/325 140/140
f 326/326 327/327 135/135
f 327/327 326/326 328/328
f 325/325 297/297 296/296
f 329/329 330/330 331/331
f 330/330 329/329 328/328
f 332/332 333/333 334/334
f 333/333 332/332 335/335
f 309/309 137/137 139/139
f 78/78 307/307 76/76
f 324/324 77/77 85/85
f 336/336 337/337 324/324
f 337/337 336/336 338/338
f 339/339 78/78 75/75
f 323/323 339/339 75/75
f 338/338 323/323 337/337
f 351/351 86/86 352/352
f 86/86 353/353 352/352
f 353/353 86/86 84/84
f 85/85 336/336 324/324
f 332/332 334/334 354/354
f 449/449 176/176 169/169
f 176/176 449/449 292/292
f 352/352 353/353 333/333
f 77/77 76/76 84/84
f 70/70 351/351 352/352
f 456/456 353/353 134/134
f 353/353 456/456 333/333
f 455/455 332/332 354/354
f 463/463 146/146 354/354
f 146/146 463/463 312/312
f 463/463 456/456 464/464
f 456/456 463/463 334/334
f 464/464 134/134 327/327
f 134/134 464/464 456/456
f 330/330 139/139 138/138
f 139/139 330/330 481/481
f 292/292 183/183 176/176
f 449/449 169/169 170/170
f 329/329 331/331 292/292
f 140/140 482/482 483/483
f 482/482 140/140 325/325
f 322/322 141/141 143/143
f 141/141 322/322 484/484
f 304/304 298/298 295/295
f 298/298 304/304 144/144
f 325/325 296/296 484/484
f 296/296 141/141 484/484
f 141/141 296/296 298/298
f 463/463 354/354 334/334
f 149/149 290/290 273/273
f 190/190 281/281 197/197
f 281/281 190/190 485/485
f 271/271 290/290 168/168
f 290/290 271/271 273/273
f 281/281 485/485 486/486
f 487/487 155/155 152/152
f 155/155 487/487 156/156
f 152/152 145/145 487/487
f 156/156 487/487 164/164
f 159/159 157/157 161/161
f 488/488 203/203 197/197
f 203/203 488/488 174/174
f 489/489 267/267 280/280
f 267/267 489/489 490/490
f 174/174 488/488 172/172
f 197/197 203/203 196/196
f 279/279 172/172 488/488
f 172/172 279/279 267/267
f 491/491 492/492 493/493
f 492/492 491/491 494/494
f 449/449 329/329 292/292
f 329/329 449/449 495/495
f 464/464 312/312 463/463
f 312/312 464/464 495/495
f 490/490 496/496 266/266
f 496/496 490/490 274/274
f 173/173 496/496 497/497
f 496/496 173/173 266/266
f 166/166 285/285 286/286
f 285/285 166/166 168/168
f 497/497 167/167 262/262
f 167/167 497/497 165/165
f 265/265 264/264 208/208
f 271/271 496/496 274/274
f 496/496 271/271 165/165
f 271/271 168/168 165/165
f 260/260 194/194 262/262
f 194/194 260/260 498/498
f 260/260 499/499 498/498
f 499/499 260/260 261/261
f 278/278 499/499 261/261
f 499/499 278/278 500/500
f 223/223 230/230 233/233
f 230/230 223/223 501/501
f 502/502 503/503 251/251
f 503/503 502/502 240/240
f 229/229 221/221 504/504
f 221/221 229/229 219/219
f 505/505 270/270 249/249
f 270/270 505/505 506/506
f 220/220 507/507 242/242
f 507/507 220/220 508/508
f 249/249 270/270 268/268
f 182/182 175/175 184/184
f 293/293 320/320 184/184
f 320/320 293/293 509/509
f 293/293 510/510 289/289
f 510/510 293/293 291/291
f 511/511 289/289 287/287
f 289/289 511/511 293/293
f 212/212 207/207 208/208
f 194/194 171/171 173/173
f 171/171 194/194 193/193
f 262/262 194/194 173/173
f 280/280 281/281 512/512
f 486/486 513/513 512/512
f 513/513 486/486 514/514
f 515/515 512/512 513/513
f 512/512 515/515 280/280
f 514/514 185/185 509/509
f 185/185 514/514 191/191
f 509/509 516/516 513/513
f 516/516 509/509 511/511
f 489/489 288/288 277/277
f 288/288 489/489 280/280
f 288/288 515/515 517/517
f 515/515 288/288 280/280
f 305/305 300/300 518/518
f 240/240 242/242 519/519
f 520/520 521/521 522/522
f 521/521 520/520 523/523
f 254/254 503/503 519/519
f 503/503 254/254 253/253
f 507/507 524/524 254/254
f 524/524 507/507 508/508
f 187/187 275/275 209/209
f 255/255 506/506 253/253
f 506/506 255/255 525/525
f 503/503 253/253 505/505
f 506/506 269/269 270/270
f 269/269 506/506 275/275
f 526/526 256/256 258/258
f 256/256 526/526 494/494
f 508/508 256/256 527/527
f 256/256 508/508 220/220
f 257/257 222/222 501/501
f 528/528 238/238 235/235
f 238/238 528/528 244/244
f 229/229 504/504 236/236
f 244/244 237/237 238/238
f 504/504 529/529 236/236
f 529/529 504/504 530/530
f 240/240 502/502 531/531
f 178/178 180/180 263/263
f 236/236 529/529 528/528
f 504/504 221/221 239/239
f 532/532 243/243 244/244
f 243/243 532/532 247/247
f 198/198 533/533 201/201
f 533/533 198/198 534/534
f 199/199 206/206 535/535
f 206/206 199/199 201/201
f 245/245 200/200 199/199
f 200/200 245/245 216/216
f 205/205 532/532 529/529
f 532/532 205/205 533/533
f 536/536 537/537 247/247
f 537/537 536/536 534/534
f 247/247 532/532 536/536
f 213/213 228/228 538/538
f 228/228 213/213 226/226
f 228/228 539/539 538/538
f 539/539 228/228 540/540
f 537/537 534/534 541/541
f 539/539 534/534 200/200
f 534/534 539/539 541/541
f 246/246 541/541 540/540
f 541/541 246/246 537/537
f 542/542 491/491 543/543
f 491/491 542/542 494/494
f 493/493 211/211 212/212
f 211/211 493/493 544/544
f 545/545 521/521 542/542
f 521/521 545/545 210/210
f 543/543 498/498 545/545
f 498/498 543/543 192/192
f 498/498 499/499 545/545
f 216/216 538/538 200/200
f 538/538 216/216 213/213
f 213/213 215/215 226/226
f 540/540 541/541 539/539
f 228/228 246/246 540/540
f 544/544 258/258 546/546
f 258/258 544/544 526/526
f 501/501 224/224 257/257
f 224/224 501/501 223/223
f 491/491 493/493 195/195
f 526/526 544/544 492/492
f 211/211 544/544 218/218
f 508/508 527/527 524/524
f 545/545 542/542 543/543
f 542/542 527/527 494/494
f 527/527 542/542 523/523
f 234/234 233/233 231/231
f 238/238 234/234 235/235
f 528/528 529/529 244/244
f 177/177 199/199 535/535
f 502/502 535/535 531/531
f 535/535 502/502 177/177
f 180/180 177/177 547/547
f 545/545 500/500 210/210
f 500/500 545/545 499/499
f 278/278 186/186 500/500
f 518/518 276/276 283/283
f 276/276 518/518 150/150
f 274/274 277/277 272/272
f 277/277 274/274 490/490
f 277/277 288/288 282/282
f 484/484 321/321 482/482
f 321/321 484/484 322/322
f 288/288 284/284 282/282
f 482/482 325/325 484/484
f 482/482 510/510 483/483
f 510/510 482/482 548/548
f 284/284 548/548 321/321
f 548/548 284/284 289/289
f 510/510 548/548 289/289
f 141/141 298/298 144/144
f 299/299 301/301 313/313
f 135/135 481/481 326/326
f 481/481 135/135 308/308
f 292/292 331/331 291/291
f 135/135 327/327 134/134
f 317/317 311/311 318/318
f 323/323 324/324 337/337
f 326/326 330/330 328/328
f 330/330 326/326 481/481
f 308/308 139/139 481/481
f 139/139 308/308 309/309
f 331/331 138/138 483/483
f 138/138 331/331 330/330
f 84/84 134/134 353/353
f 76/76 308/308 135/135
f 140/140 483/483 138/138
f 150/150 147/147 272/272
f 272/272 147/147 273/273
f 147/147 149/149 273/273
f 261/261 166/166 286/286
f 286/286 278/278 261/261
f 495/495 170/170 312/312
f 170/170 495/495 449/449
f 490/490 266/266 267/267
f 173/173 497/497 262/262
f 505/505 251/251 503/503
f 251/251 505/505 249/249
f 177/177 502/502 547/547
f 251/251 248/248 547/547
f 248/248 250/250 180/180
f 251/251 547/547 502/502
f 547/547 248/248 180/180
f 293/293 184/184 183/183
f 202/202 203/203 575/575
f 171/171 193/193 265/265
f 208/208 202/202 575/575
f 174/174 265/265 575/575
f 265/265 174/174 171/171
f 174/174 575/575 203/203
f 575/575 265/265 208/208
f 281/281 486/486 512/512
f 485/485 190/190 191/191
f 514/514 486/486 191/191
f 485/485 191/191 486/486
f 221/221 220/220 242/242
f 256/256 220/220 222/222
f 222/222 219/219 501/501
f 501/501 219/219 230/230
f 488/488 281/281 279/279
f 281/281 488/488 197/197
f 534/534 536/536 533/533
f 206/206 204/204 576/576
f 533/533 536/536 532/532
f 201/201 533/533 205/205
f 205/205 529/529 204/204
f 200/200 534/534 198/198
f 531/531 535/535 576/576
f 240/240 531/531 241/241
f 204/204 529/529 530/530
f 206/206 576/576 535/535
f 576/576 204/204 241/241
f 531/531 576/576 241/241
f 212/212 208/208 264/264
f 195/195 493/493 264/264
f 259/259 216/216 245/245
f 216/216 259/259 214/214
f 257/257 546/546 258/258
f 546/546 257/257 577/577
f 217/217 577/577 224/224
f 577/577 217/217 218/218
f 544/544 546/546 218/218
f 577/577 218/218 546/546
f 577/577 257/257 224/224
f 231/231 233/233 230/230
f 234/234 231/231 235/235
f 235/235 236/236 528/528
f 530/530 241/241 204/204
f 241/241 530/530 239/239
f 239/239 221/221 242/242
f 239/239 530/530 504/504
f 503/503 240/240 519/519
f 259/259 245/245 179/179
f 259/259 179/179 178/178
f 246/246 247/247 537/537
f 192/192 194/194 498/498
f 195/195 192/192 491/491
f 543/543 491/491 192/192
f 522/522 521/521 210/210
f 506/506 525/525 275/275
f 210/210 209/209 522/522
f 255/255 522/522 525/525
f 522/522 255/255 520/520
f 522/522 209/209 525/525
f 186/186 188/188 500/500
f 188/188 210/210 500/500
f 209/209 275/275 525/525
f 506/506 505/505 253/253
f 300/300 150/150 518/518
f 489/489 277/277 490/490
f 277/277 282/282 276/276
f 283/283 284/284 321/321
f 518/518 283/283 305/305
f 287/287 288/288 517/517
f 511/511 517/517 516/516
f 517/517 511/511 287/287
f 483/483 291/291 331/331
f 291/291 483/483 510/510
f 143/143 305/305 322/322
f 185/185 320/320 509/509
f 482/482 321/321 548/548
f 495/495 328/328 329/329
f 328/328 495/495 327/327
f 327/327 495/495 464/464
f 146/146 312/312 164/164
f 352/352 333/333 70/70
f 334/334 333/333 456/456
f 145/145 146/146 487/487
f 354/354 146/146 455/455
f 146/146 164/164 487/487
f 492/492 494/494 526/526
f 256/256 494/494 527/527
f 496/496 165/165 497/497
f 212/212 264/264 493/493
f 507/507 254/254 519/519
f 519/519 242/242 507/507
f 509/509 293/293 511/511
f 509/509 513/513 514/514
f 517/517 515/515 516/516
f 513/513 516/516 515/515
f 527/527 523/523 524/524
f 523/523 542/542 521/521
f 254/254 524/524 252/252
f 523/523 520/520 524/524
f 520/520 255/255 252/252
f 524/524 520/520 252/252
f 244/244 529/529 532/532
f 200/200 538/538 539/539
f 493/493 492/492 544/544
f 46/46 47/47 48/48
f 47/47 46/46 49/49
f 69/69 70/70 71/71
f 70/70 69/69 72/72
f 81/81 82/82 83/83
f 82/82 81/81 49/49
f 88/88 87/87 90/90
f 91/91 92/92 93/93
f 91/91 94/94 95/95
f 94/94 91/91 93/93
f 100/100 95/95 101/101
f 119/119 104/104 101/101
f 121/121 122/122 123/123
f 122/122 121/121 124/124
f 121/121 97/97 99/99
f 122/122 124/124 125/125
f 126/126 90/90 87/87
f 90/90 126/126 127/127
f 128/128 123/123 122/122
f 129/129 130/130 131/131
f 130/130 129/129 132/132
f 129/129 128/128 133/133
f 136/136 131/131 130/130
f 145/145 136/136 146/146
f 340/340 341/341 342/342
f 341/341 340/340 343/343
f 360/360 351/351 72/72
f 365/365 360/360 366/366
f 371/371 365/365 372/372
f 342/342 427/427 340/340
f 427/427 342/342 428/428
f 429/429 430/430 431/431
f 430/430 429/429 432/432
f 435/435 69/69 436/436
f 69/69 435/435 437/437
f 146/146 136/136 455/455
f 351/351 70/70 72/72
f 437/437 360/360 72/72
f 360/360 437/437 366/366
f 335/335 70/70 333/333
f 70/70 335/335 71/71
f 372/372 381/381 371/371
f 381/381 372/372 457/457
f 335/335 48/48 71/71
f 48/48 335/335 46/46
f 332/332 455/455 46/46
f 93/93 92/92 342/342
f 48/48 436/436 71/71
f 436/436 48/48 458/458
f 467/467 357/357 468/468
f 469/469 93/93 341/341
f 93/93 469/469 470/470
f 47/47 49/49 81/81
f 136/136 82/82 49/49
f 82/82 136/136 130/130
f 343/343 81/81 469/469
f 81/81 343/343 47/47
f 93/93 342/342 341/341
f 471/471 343/343 340/340
f 343/343 471/471 472/472
f 359/359 473/473 468/468
f 473/473 359/359 474/474
f 472/472 475/475 458/458
f 475/475 472/472 471/471
f 95/95 94/94 101/101
f 83/83 469/469 81/81
f 469/469 83/83 470/470
f 125/125 124/124 127/127
f 340/340 427/427 476/476
f 79/79 427/427 428/428
f 427/427 79/79 467/467
f 121/121 99/99 124/124
f 127/127 124/124 90/90
f 128/128 125/125 133/133
f 125/125 128/128 122/122
f 132/132 125/125 127/127
f 125/125 132/132 133/133
f 132/132 127/127 477/477
f 126/126 87/87 470/470
f 90/90 124/124 478/478
f 101/101 87/87 89/89
f 87/87 101/101 94/94
f 130/130 132/132 477/477
f 470/470 83/83 126/126
f 477/477 83/83 82/82
f 83/83 477/477 126/126
f 101/101 89/89 119/119
f 100/100 101/101 104/104
f 99/99 478/478 124/124
f 46/46 455/455 49/49
f 455/455 136/136 49/49
f 550/550 551/551 430/430
f 431/431 430/430 555/555
f 71/71 436/436 69/69
f 366/366 372/372 365/365
f 372/372 366/366 559/559
f 382/382 561/561 555/555
f 561/561 382/382 457/457
f 382/382 381/381 457/457
f 371/371 381/381 355/355
f 475/475 570/570 432/432
f 570/570 475/475 571/571
f 429/429 436/436 458/458
f 436/436 429/429 431/431
f 555/555 561/561 431/431
f 435/435 561/561 559/559
f 561/561 435/435 431/431
f 473/473 553/553 571/571
f 553/553 473/473 474/474
f 476/476 571/571 471/471
f 571/571 476/476 473/473
f 476/476 427/427 468/468
f 46/46 335/335 332/332
f 79/79 80/80 467/467
f 47/47 343/343 472/472
f 472/472 458/458 47/47
f 47/47 458/458 48/48
f 92/92 428/428 342/342
f 93/93 470/470 94/94
f 94/94 470/470 87/87
f 477/477 127/127 126/126
f 477/477 82/82 130/130
f 129/129 133/133 132/132
f 476/476 471/471 340/340
f 465/465 550/550 432/432
f 475/475 429/429 458/458
f 429/429 475/475 432/432
f 471/471 571/571 475/475
f 467/467 468/468 427/427
f 559/559 366/366 437/437
f 437/437 72/72 69/69
f 435/435 559/559 437/437
f 559/559 457/457 372/372
f 457/457 559/559 561/561
f 436/436 431/431 435/435
f 469/469 341/341 343/343
f 468/468 473/473 476/476
f 570/570 553/553 466/466
f 553/553 570/570 571/571
f 432/432 570/570 465/465
f 553/553 474/474 573/573
f 430/430 432/432 550/550
f 555/555 430/430 551/551
f 21/21 22/22 23/23
f 22/22 21/21 24/24
f 35/35 36/36 37/37
f 36/36 35/35 38/38
f 41/41 42/42 43/43
f 42/42 41/41 44/44
f 383/383 384/384 385/385
f 384/384 383/383 42/42
f 385/385 390/390 391/391
f 390/390 385/385 392/392
f 393/393 394/394 395/395
f 394/394 393/393 396/396
f 399/399 400/400 35/35
f 400/400 399/399 21/21
f 407/407 394/394 400/400
f 394/394 406/406 395/395
f 408/408 409/409 22/22
f 409/409 408/408 410/410
f 411/411 407/407 400/400
f 23/23 411/411 21/21
f 412/412 23/23 413/413
f 410/410 412/412 413/413
f 410/410 413/413 409/409
f 23/23 22/22 409/409
f 416/416 408/408 22/22
f 411/411 400/400 21/21
f 37/37 416/416 399/399
f 396/396 35/35 400/400
f 35/35 396/396 38/38
f 390/390 38/38 393/393
f 38/38 390/390 419/419
f 419/419 36/36 38/38
f 419/419 390/390 392/392
f 420/420 419/419 392/392
f 425/425 420/420 385/385
f 44/44 41/41 426/426
f 459/459 426/426 41/41
f 459/459 549/549 550/550
f 549/549 459/459 41/41
f 551/551 550/550 549/549
f 41/41 43/43 549/549
f 558/558 43/43 42/42
f 558/558 42/42 383/383
f 385/385 384/384 425/425
f 396/396 393/393 38/38
f 383/383 385/385 391/391
f 563/563 383/383 391/391
f 567/567 393/393 376/376
f 393/393 567/567 390/390
f 391/391 567/567 378/378
f 567/567 391/391 390/390
f 392/392 385/385 420/420
f 416/416 22/22 24/24
f 23/23 409/409 413/413
f 37/37 399/399 35/35
f 21/21 399/399 24/24
f 400/400 394/394 396/396
f 465/465 459/459 550/550
f 42/42 44/44 384/384
f 416/416 24/24 399/399
f 549/549 43/43 562/562
f 87/87 88/88 89/89
f 96/96 97/97 98/98
f 97/97 96/96 99/99
f 102/102 103/103 104/104
f 103/103 102/102 105/105
f 103/103 100/100 104/104
f 106/106 107/107 108/108
f 107/107 106/106 109/109
f 110/110 111/111 108/108
f 111/111 110/110 112/112
f 113/113 105/105 111/111
f 114/114 115/115 116/116
f 115/115 114/114 117/117
f 118/118 113/113 112/112
f 112/112 110/110 117/117
f 116/116 118/118 114/114
f 118/118 112/112 117/117
f 110/110 115/115 117/117
f 109/109 110/110 107/107
f 104/104 119/119 120/120
f 97/97 109/109 98/98
f 88/88 479/479 89/89
f 479/479 88/88 98/98
f 88/88 90/90 478/478
f 89/89 102/102 120/120
f 102/102 89/89 479/479
f 106/106 98/98 109/109
f 98/98 106/106 479/479
f 102/102 480/480 105/105
f 480/480 102/102 479/479
f 480/480 111/111 105/105
f 111/111 480/480 108/108
f 106/106 480/480 479/479
f 480/480 106/106 108/108
f 110/110 108/108 107/107
f 104/104 120/120 102/102
f 113/113 111/111 112/112
f 118/118 117/117 114/114
f 478/478 99/99 96/96
f 96/96 98/98 478/478
f 98/98 88/88 478/478
f 119/119 89/89 120/120
f 50/50 45/45 51/51
f 52/52 53/53 54/54
f 53/53 52/52 55/55
f 52/52 50/50 56/56
f 57/57 53/53 58/58
f 53/53 57/57 54/54
f 59/59 52/52 54/54
f 52/52 56/56 55/55
f 57/57 59/59 54/54
f 55/55 60/60 58/58
f 60/60 55/55 61/61
f 51/51 61/61 56/56
f 61/61 51/51 62/62
f 63/63 60/60 64/64
f 64/64 65/65 63/63
f 65/65 64/64 66/66
f 67/67 63/63 68/68
f 73/73 67/67 74/74
f 79/79 73/73 80/80
f 356/356 357/357 358/358
f 357/357 356/356 359/359
f 418/418 63/63 65/65
f 63/63 418/418 68/68
f 422/422 423/423 67/67
f 423/423 422/422 424/424
f 67/67 423/423 74/74
f 444/444 65/65 445/445
f 65/65 444/444 418/418
f 56/56 50/50 51/51
f 61/61 55/55 56/56
f 58/58 53/53 55/55
f 65/65 66/66 445/445
f 454/454 422/422 68/68
f 422/422 454/454 424/424
f 460/460 461/461 462/462
f 461/461 460/460 424/424
f 74/74 80/80 73/73
f 80/80 74/74 357/357
f 357/357 467/467 80/80
f 358/358 74/74 423/423
f 74/74 358/358 357/357
f 468/468 357/357 359/359
f 451/451 569/569 454/454
f 572/572 359/359 356/356
f 359/359 572/572 474/474
f 569/569 424/424 454/454
f 424/424 569/569 461/461
f 424/424 356/356 423/423
f 356/356 424/424 460/460
f 460/460 462/462 572/572
f 62/62 51/51 66/66
f 66/66 64/64 62/62
f 60/60 62/62 64/64
f 62/62 60/60 61/61
f 454/454 68/68 418/418
f 67/67 68/68 422/422
f 572/572 462/462 573/573
f 572/572 356/356 460/460
f 454/454 418/418 444/444
f 444/444 445/445 451/451
f 454/454 444/444 451/451
f 573/573 474/474 572/572
f 423/423 356/356 358/358
f 25/25 26/26 27/27
f 28/28 29/29 30/30
f 29/29 28/28 31/31
f 31/31 25/25 27/27
f 27/27 26/26 29/29
f 32/32 31/31 28/28
f 33/33 32/32 34/34
f 39/39 33/33 40/40
f 45/45 39/39 40/40
f 386/386 387/387 388/388
f 387/387 386/386 389/389
f 403/403 404/404 405/405
f 404/404 403/403 34/34
f 414/414 405/405 415/415
f 405/405 414/414 40/40
f 40/40 414/414 417/417
f 433/433 434/434 389/389
f 434/434 433/433 426/426
f 438/438 433/433 386/386
f 439/439 388/388 440/440
f 388/388 439/439 438/438
f 441/441 442/442 443/443
f 442/442 441/441 439/439
f 446/446 441/441 443/443
f 447/447 45/45 417/417
f 45/45 447/447 66/66
f 448/448 446/446 415/415
f 45/45 40/40 417/417
f 405/405 448/448 415/415
f 40/40 33/33 403/403
f 32/32 30/30 34/34
f 30/30 32/32 28/28
f 29/29 404/404 30/30
f 29/29 31/31 27/27
f 404/404 34/34 30/30
f 33/33 34/34 403/403
f 403/403 405/405 40/40
f 443/443 442/442 450/450
f 45/45 66/66 51/51
f 450/450 451/451 447/447
f 451/451 450/450 452/452
f 452/452 453/453 451/451
f 453/453 452/452 440/440
f 426/426 459/459 434/434
f 465/465 389/389 434/434
f 389/389 465/465 466/466
f 552/552 466/466 553/553
f 466/466 552/552 554/554
f 568/568 415/415 446/446
f 415/415 568/568 414/414
f 414/414 568/568 417/417
f 568/568 446/446 443/443
f 438/438 386/386 388/388
f 459/459 465/465 434/434
f 554/554 389/389 466/466
f 389/389 554/554 387/387
f 433/433 389/389 386/386
f 552/552 462/462 554/554
f 462/462 552/552 573/573
f 440/440 388/388 387/387
f 439/439 440/440 442/442
f 450/450 442/442 452/452
f 450/450 417/417 568/568
f 417/417 450/450 447/447
f 387/387 554/554 574/574
f 574/574 554/554 462/462
f 447/447 451/451 445/445
f 443/443 450/450 568/568
f 445/445 66/66 447/447
f 440/440 387/387 453/453
f 452/452 442/442 440/440
f 574/574 462/462 461/461
f 453/453 387/387 574/574
f 465/465 570/570 466/466
f 553/553 573/573 552/552
f 344/344 345/345 346/346
f 345/345 344/344 347/347
f 348/348 349/349 346/346
f 349/349 348/348 350/350
f 345/345 347/347 355/355
f 361/361 362/362 363/363
f 362/362 361/361 364/364
f 367/367 368/368 369/369
f 368/368 367/367 370/370
f 363/363 369/369 361/361
f 369/369 363/363 367/367
f 373/373 371/371 355/355
f 367/367 373/373 370/370
f 374/374 350/350 375/375
f 376/376 377/377 378/378
f 377/377 376/376 379/379
f 347/347 368/368 370/370
f 368/368 347/347 380/380
f 375/375 350/350 348/348
f 380/380 364/364 368/368
f 373/373 355/355 370/370
f 381/381 345/345 355/355
f 345/345 381/381 382/382
f 349/349 344/344 346/346
f 397/397 374/374 398/398
f 401/401 397/397 402/402
f 379/379 401/401 377/377
f 406/406 379/379 395/395
f 393/393 395/395 376/376
f 397/397 398/398 421/421
f 368/368 364/364 361/361
f 368/368 361/361 369/369
f 355/355 347/347 370/370
f 556/556 421/421 557/557
f 421/421 556/556 402/402
f 43/43 558/558 556/556
f 345/345 382/382 560/560
f 551/551 549/549 562/562
f 563/563 556/556 558/558
f 556/556 563/563 401/401
f 376/376 395/395 379/379
f 375/375 564/564 565/565
f 564/564 375/375 560/560
f 375/375 565/565 398/398
f 374/374 375/375 398/398
f 345/345 560/560 566/566
f 375/375 348/348 560/560
f 566/566 346/346 345/345
f 346/346 566/566 348/348
f 563/563 377/377 401/401
f 377/377 563/563 378/378
f 383/383 563/563 558/558
f 556/556 557/557 43/43
f 397/397 421/421 402/402
f 565/565 557/557 398/398
f 557/557 565/565 562/562
f 398/398 557/557 421/421
f 376/376 378/378 567/567
f 401/401 402/402 556/556
f 391/391 378/378 563/563
f 564/564 555/555 551/551
f 555/555 564/564 382/382
f 562/562 565/565 551/551
f 562/562 43/43 557/557
f 551/551 565/565 564/564
f 382/382 564/564 560/560
f 560/560 348/348 566/566
